<?xml version='1.0' encoding='utf-8'?>
<svg xmlns="http://www.w3.org/2000/svg" enable-background="new 0 0 1000 1000" version="1.1" viewBox="0 0 1e3 1e3"> <style type="text/css">.st0{fill:#A3A2A2;} .st1{fill:#FFE6A2;} .st2{fill:#E8C577;} .st3{fill:#353535;} .st4{fill:#D8D8D8;} .st5{fill:#FFFFFF;stroke:#000000;stroke-width:0.5;stroke-miterlimit:10;} .st6{fill:#D1D1D1;} .st7{fill:#CCCCCC;} .st8{fill:#EFEFEF;} .st9{fill:#E5E5E5;} .st10{fill:#FFFFFF;} .st11{fill:#FFFFFF;stroke:#000000;stroke-width:0.25;stroke-miterlimit:10;} .st12{fill:#FFD8BD;} .st13{fill:#898989;} .st14{fill:none;stroke:#000000;stroke-width:0.5;stroke-miterlimit:10;} .st15{fill:#CECECE;} .st16{fill:#FFBB53;}</style> <rect width="1e3" height="1e3"/> <path class="st0" d="m484.8 692.16c-0.51-2.92-5.14-7.24-5.37-7.45-4.56-4.21-8.08-4.04-9.84-8.05-0.21-0.48-1.71-3.91-0.22-6.48 0.95-1.64 2.53-1.92 2.46-2.91-0.09-1.41-3.32-1.07-5.37-3.35-2.01-2.24-0.35-4.18-2.24-9.17-1.02-2.71-1.69-2.6-2.91-5.59-1.45-3.57-1.46-6.09-1.79-8.05-1.14-6.82-6.31-7.93-9.32-13.79-3.02-5.89-1.51-12.3 1.79-25.04 2.96-11.42 6.13-14.65 3.8-18.78-1.3-2.3-5.75-7.43-9.69-9.47-0.58-0.3-2.18-1.06-3.02-2.74-0.48-0.97-0.56-1.93-0.67-3.41-0.13-1.65-0.19-2.47 0.26-3.09 0.6-0.83 1.59-0.81 3.2-1.19 1.14-0.27 2.75-0.79 4.62-1.86-5.31-1.86-13.82-3.91-20.72 0-14.83 8.39-10.46 32.62-10.29 83.63 0.19 57.3-5.63 66.78 3.13 72.89 18.5 12.87 64.01-15.59 62.19-26.1z"/> <path class="st1" d="m550.8 329c0.17-0.83 0.43-2.05 0.81-3.5 5.77-21.95 22.14-35 25.61-37.76 20.09-16.02 43.04-16.48 54.04-16.7 8.89-0.18 24.45 0.1 53.44 12.07 34.23 14.14 42.16 23.7 74.68 41.14 11.79 6.33 34.99 15.7 81.39 34.43 50.98 20.59 64.55 24.62 78.26 27.73 23.85 5.4 44.06 7.06 57.69 7.6-7.36 1.78-18.32 3.98-31.75 4.92-23.66 1.66-37.02-1.84-54.11-2.68-14.86-0.73-35.97 0.37-62.16 8.94-2.45 2.73-6.32 7.2-10.73 12.97-13.09 17.11-13.24 22.51-21.91 30.86-9.19 8.84-19.17 12.53-26.39 15.2-10 3.7-18.12 4.68-31.3 6.26-2.96 0.36-15.42 1.85-24.6 1.79-21.29-0.15-37.61-8.81-60.82-21.47-16.21-8.84-34.05-18.56-53.66-37.27-11.54-11-26.5-25.55-37.57-49.49-6.43-13.89-9.41-26.37-10.92-35.04z"/> <path class="st2" d="m578.01 390.76c3.07 0.99 7.84 2.81 13.08 6.09 2.53 1.59 6.85 4.58 20.57 19.38 6.93 7.47 7.27 8.27 11.63 12.67 6.28 6.35 11.88 11.08 15.68 14.11-5.26-3.01-9.71-5.86-13.27-8.26-7.77-5.25-13.32-9.74-15.13-11.22-4.65-3.82-8.05-6.97-10.82-9.55-4.3-4-7.49-7.24-9.09-8.88-1.98-2.04-4.2-4.32-6.99-7.52-2.33-2.65-4.23-4.99-5.66-6.82z"/> <path class="st2" d="m627.61 386.71c-0.4-1.36-1.08-3.97-0.15-6.78 2.3-6.98 12.38-8.74 18.59-10.8 19.22-6.38 34.99-26.75 37.31-44.65 1.47-11.38-2.55-21.26-4.92-27.06-4.21-10.33-10.15-17.46-14.17-21.6 6.79 1.08 15.8 3.04 25.94 6.84 6.18 2.31 13.21 5.47 35.48 18.48 15.55 9.09 15.7 9.64 23.85 14.31 4.4 2.52 17.35 9.8 50.68 23.85 17.53 7.39 16.09 6.28 44.12 17.59 38.1 15.37 41.55 17.74 56.65 22.06 16.64 4.77 30.09 6.94 40.84 8.65 19.17 3.04 35.68 4.27 48.3 4.77-3.25 0.92-7.62 2.09-12.82 3.28-16.69 3.81-29.76 5-34.29 5.37-12.45 1-21.73 0.67-31.3 0.3-26.16-1.02-30.37-4.03-45.02-2.98-8.13 0.58-20.01 2.46-34.29 8.65-2.94 2.87-7.53 7.61-12.52 14.01-7.28 9.35-8.58 13.47-15.5 21.76-4.03 4.83-8.18 9.8-14.91 14.61-9.67 6.92-18.94 9.41-28.32 11.93-7.02 1.88-13.55 2.98-19.38 3.58-2.33 0.24-17.6 1.74-30.71-0.6-19.99-3.57-33.18-15.95-50.09-31.9 0.02 0-24.41-23.17-33.37-53.67z"/> <path class="st3" d="m256.5 416.08c0.42-1.48 3.14-2.04 5.96-2.61 4.9-1 5.91 0.7 11.85 0.22 4.45-0.36 5.62-1.45 8.2-0.45 1.95 0.76 2.21 1.74 4.62 2.98 2.81 1.44 5.1 1.46 6.86 1.71 6.29 0.9 13.36 5.83 13.04 8.65-0.37 3.22-10.61 5.55-19.45 5.14-16.85-0.77-32.2-11.66-31.08-15.64z"/> <path class="st4" d="m442.99 563.09c-0.51 0.05-1.42 0.22-2.01 0.92-0.54 0.64-0.54 1.5-0.5 3.19 0.03 1.7 0.05 2.57 0.45 3.63 0.45 1.21 1.14 1.98 1.9 2.8 3.91 4.18 5.26 4.78 6.8 7.32 0.69 1.13 1.15 2.22 1.34 3.5 0.12 0.85 0.36 2.46-0.52 3.8-0.44 0.67-0.56 0.35-2.01 1.64-1.31 1.16-1.6 1.76-3.13 2.98-0.47 0.37-0.42 0.3-0.89 0.67-0.5 0.39-2.13 1.71-3.2 3.13-1.28 1.7-1.69 3.43-2.01 4.84-0.79 3.5 0.16 4.04-0.3 7.45-0.36 2.67-1.27 4.78-2.68 8.05-1.16 2.69-2.05 4.09-1.79 6.26 0.18 1.51 0.7 1.58 0.89 3.13 0.06 0.5 0.21 2.06-1.64 6.41-1.66 3.91-2.93 5.35-2.24 7.16 0.2 0.51 0.46 0.83 0.89 1.34 1.22 1.45 2.39 1.7 4.62 3.13 0.37 0.24 1.21 0.78 2.09 1.49 0.86 0.7 2.81 2.32 4.17 4.92 0.88 1.68 1.13 3.21 1.64 6.26 0.47 2.82 0.7 4.24 0.3 5.22-0.87 2.11-2.68 1.73-5.52 4.47-1.21 1.17-3.09 2.98-3.58 5.66-0.32 1.77 0.29 2.06 0.3 5.96 0 1.99 0.01 2.99-0.3 4.32-0.47 2.08-1.06 2.27-2.24 5.37-0.89 2.33-1.33 3.5-1.19 4.62 0.26 2.12 1.64 2.16 2.83 5.07 0.8 1.95 0.24 2.1 1.19 5.37 0.51 1.77 0.93 3.17 1.94 4.77 0.53 0.84 1.51 2.39 3.28 3.58 2.26 1.51 4.58 1.6 6.26 1.64 1.52 0.04 7.17 0.18 10.88-3.58 3.28-3.32 2.25-6.87 5.52-8.5 1.8-0.9 2.62-0.08 5.22-0.3 6.76-0.57 8.13-6.72 15.06-8.65 0.59-0.17 4.97-1.32 9.54 0.45 6.97 2.7 9.68 10.42 11.63 15.95 0.87 2.46 2.06 6.63 2.24 11.93 0.12 3.61 0.32 9.59-2.68 15.65-1.91 3.85-3.43 4.36-9.99 11.78-4.66 5.27-6.74 8.23-8.8 10.73-7.09 8.63-15.06 13.2-26.83 21.17-27.06 18.32-24.55 20.97-38.61 27.28-6.9 3.1-15.83 7.1-28.17 8.05-12.37 0.95-15.81-2.12-36.67-2.83-11.41-0.39-20.14 0.2-23.4 0.45-3.15 0.24-15.29 1.24-31.16 4.62-11.23 2.39-13.53 3.68-23.25 5.07-3.81 0.54-10.05 1.41-18.19 1.49-14.72 0.14-25.98-2.41-33.54-4.17-3.71-0.86-10.05-2.36-17.89-5.22-16.31-5.94-27.47-13.52-34.88-18.63-8.73-6.01-21.52-14.97-33.84-30.11-7.95-9.78-8.11-12.8-18.93-25.64-10.3-12.22-11.38-10.95-17.74-19.53-6.61-8.93-6.63-11.92-17.74-32.35-9.55-17.55-8.8-13.99-11.93-21.02-8.05-18.08-9.83-34.5-10.58-42.04-0.63-6.22-0.77-11.62-0.75-15.8 0.08-13.54 1.98-23.85 2.83-28.02 1.06-5.18 2.3-9.27 4.77-17.44 3.93-13 7.93-23.89 11.33-32.5 3.6-9.1 3.05-6.83 8.2-19.38 6.36-15.51 7.69-20.19 14.16-35.63 4.08-9.74 6.16-14.67 8.05-17.74 7.85-12.78 17.69-20.18 22.21-23.25 8.81-5.98 16.22-8.28 28.02-11.93 9.22-2.85 16.83-4.24 32.05-7.01 42.9-7.81 35.17-2.12 47.7-5.22 2.33-0.58 9.1-2.38 12.52 0.89 1.47 1.41 1.75 3.22 4.02 4.47 2.17 1.19 4.26 0.85 6.11 0.75 4.08-0.22 9.15 0.06 12.22 2.46 2.86 2.22 2.22 5.1 3.73 7.68 4.52 7.76 23.28 4.26 31.9 3.58 15.7-1.24 27.76 5.04 51.88 17.59 30.6 15.95 61.79 57.89 78.64 114.38z"/> <path class="st3" d="m254.94 488.57c-0.09-1.53 0-4.29-0.37-8.59-0.05-0.61-0.1-1.08-0.07-1.77 0.1-2.69 1.13-3.96 2.09-6.56 1.39-3.77 0.17-3.66 1.42-5.64 1.07-1.69 1.9-1.69 4.47-4.92 0.9-1.13 1.01-1.4 1.71-2.1 1.3-1.29 2.12-1.58 3.5-2.95 0.68-0.68 0.63-0.76 1.57-1.84 1.7-1.96 2.63-2.57 4.25-4.2 1.76-1.77 2.48-2.87 3.28-3.8 4.34-5.07 12.33-6.79 12.82-6.89 1.48-0.3 9.84-2.01 14.46 1.11 0.57 0.38 1.41 1.06 2.83 1.38 2.41 0.53 4.03-0.54 6.34-0.98 3.62-0.7 6.83 0.53 8.5 1.18 3.02 1.17 3.25 2.32 9.02 6.43 1.81 1.29 3.13 2.23 4.92 3.28 6.02 3.53 8.76 3.26 13.34 6.17 2.64 1.67 4.19 3.32 5.81 5.05 2.56 2.73 9.43 10.03 9.09 19.54-0.07 2.08-0.77 4.47-2.16 9.25-1.25 4.3-2.07 5.9-3.5 7.35-1.85 1.87-4.07 2.8-5.52 3.28-0.85 0.88-2.11 2.18-3.65 3.74-3.02 3.04-6.17 6.1-7.45 7.28-5.84 5.37-13.12 8.69-14.91 9.51-12.61 5.76-25.56 5.73-31.75 5.38-2.92 0.17-5.24-0.18-6.93-0.59-1.79-0.43-7.22-1.98-19.08-14.89-2.72-2.96-4.08-4.44-5.52-6.36-2.48-3.32-8.12-10.86-8.51-17.85z"/> <path class="st3" d="m332.08 407.66c1.11-0.31 2.31-0.07 3.8 0.22 2.64 0.53 2.98 1.34 4.81 1.34 1.96 0 2.08-0.94 3.91-0.89 1.98 0.04 2.09 1.13 4.7 1.9 3.04 0.9 4.7-0.05 5.7 1.23 0.63 0.8 0.08 1.31 0.56 2.57 0.55 1.45 1.74 1.98 6.04 4.25 4.2 2.21 4.15 2.28 5.03 2.57 1.9 0.64 3.35 0.75 6.26 0.89 9.43 0.48 11.15 0.22 13.64 1.57 2.07 1.12 1.19 1.47 3.8 3.24 3.23 2.19 5.9 2.55 15.76 4.7 2.18 0.48 3.9 0.86 4.72 1.05 0.76 0.81 1.76 1.99 2.77 3.54 3.49 5.41 6.68 14.94 2.8 20.12-0.66 0.88-3.16 3.82-11.85 4.02-11.41 0.27-17.03-4.55-39.13-16.1-3.55-1.86-13.89-7.21-26.39-15.65-6.45-4.35-11.56-8.24-11.4-13.19 0.08-2.71 1.77-6.62 4.47-7.38z"/> <path class="st5" d="m344.38 419.96c0.35-1.4 1.68-3.01 3.28-3.06 1.2-0.03 2.07 0.82 2.53 1.27 1.47 1.43 1.96 3.63 1.57 5.52-0.13 0.64-0.6 2.85-1.94 3.2-2.13 0.56-6.29-3.59-5.44-6.93z"/> <path class="st5" d="m348.55 420.25c0.1-0.49 0.53-2.44 2.31-3.88 2.12-1.72 5.49-2.17 8.05-0.45 2.91 1.95 2.91 5.46 2.91 5.66-0.06 3.52-3 5.87-5.29 6.71-0.71 0.26-1.85 0.67-3.2 0.37-3.17-0.69-5.47-4.84-4.78-8.41z"/> <path class="st5" d="m355.19 422.19c1.08-2.25 3.58-2.99 4.1-3.13 0.42-0.11 3.34-0.85 5.61 0.98 0.35 0.28 1.48 1.21 1.84 2.82 0.33 1.45-0.15 2.64-0.45 3.35-0.89 2.13-3.52 5.81-6.71 5.37-3.56-0.5-6.06-5.92-4.39-9.39z"/> <path class="st5" d="m361.82 425.1c0.86-0.77 1.87-0.94 2.91-1.12 0.9-0.15 3.8-0.64 6.11 1.27 0.35 0.29 2.33 1.93 2.24 4.25-0.12 2.94-3.47 4.78-5.74 5.29-0.85 0.19-3.11 0.71-4.92-0.6-2.77-1.99-2.86-7.06-0.6-9.09z"/> <path class="st5" d="m366.14 429.65c2.22-1.26 4.72-0.11 5.44 0.22 0.87 0.4 2.43 1.12 3.06 2.83 0.64 1.75 0.08 3.91-1.34 5.07-1.25 1.02-2.73 0.92-4.17 0.82-1.59-0.11-3.97-0.27-5.07-2.01-1.32-2.09-0.27-5.59 2.08-6.93z"/> <path class="st5" d="m285.5 427.78c-0.91-3.06 0.99-5.84 1.66-6.7 0.47-0.6 2.52-3.25 6.16-3.66 4.4-0.5 7.33 2.7 7.83 3.24 0.6 0.66 1.93 2.1 2.09 4.21 0.26 3.4-2.59 7.2-6.73 8.26-4.76 1.24-9.87-1.52-11.01-5.35z"/> <path class="st5" d="m292.55 421.62c-0.2-0.78-0.76-3.55 1.21-6.1 1.87-2.42 4.74-2.97 5.48-3.1 4.04-0.72 8.06 1.28 10.11 4.11 0.38 0.53 3.1 4.41 1.1 7.85-2.12 3.65-8.16 4.41-12.18 2.97-0.56-0.21-4.71-1.77-5.72-5.73z"/> <path class="st5" d="m301.7 418.52c-1.19-1.89-1.7-4.91 0.2-7.1 1.89-2.18 5.01-2.22 5.99-2.23 2.62-0.03 6.64 0.97 8.03 4.18 0.09 0.2 1.28 3.09-0.57 5.71-2 2.82-6.12 3.33-8.94 2.65-0.74-0.19-3.26-0.91-4.71-3.21z"/> <ellipse transform="matrix(.9927 -.1207 .1207 .9927 -47.509 40.592)" cx="311.23" cy="412.36" rx="3.48" ry="3.14"/> <path class="st4" d="m276.85 419.88c3.53 1.76 6.2 3.52 8.05 4.84 3.24 2.33 4.57 3.81 7.16 3.95 1.58 0.08 2.97-0.37 5.22-1.12 2.3-0.76 3.92-1.61 4.84-2.09 9.74-5.07 8.83-4.53 9.99-5.22 4.98-2.96 13.3-8.48 15.65-10.36 1.18-0.94-1.71 1.09 2.83-1.71 0.54-0.33 1.2-0.74 1.49-0.52 0.24 0.18-0.03 0.59 0.15 1.12 0.23 0.67 0.91 0.74 1.79 1.34 1.28 0.88 0.98 1.51 1.86 1.94 1.2 0.58 1.94-0.52 3.58-0.3 1.53 0.2 2.56 1.38 3.43 2.39 1.67 1.92 1.13 2.82 2.68 4.17 1.27 1.11 1.9 0.74 2.98 1.94 1.1 1.22 0.62 1.78 1.64 2.98 0.66 0.78 1.83 1.32 4.17 2.39 1.3 0.59 1.89 0.77 2.98 1.43 0.98 0.59 1.63 1.13 1.9 1.34 3.14 2.49 5.9 2.28 9.58 5.12 2.25 1.74 1.66 2.17 3.13 2.83 2.77 1.26 4.47-0.45 8.35 0.15 0.75 0.12 3.42 0.56 5.81 2.53 3.33 2.75 4.41 7.02 4.47 7.3 0.35 1.49 0.26 2.32 1.04 3.58 1.12 1.8 2.87 2.6 3.43 2.83 2.56 1.05 5.24 0.48 7.45 0 2.56-0.55 4.16-1.38 4.92-0.6 0.62 0.64 0.05 1.72 0.67 2.12 0.69 0.46 2.26-0.33 3.13-1.45 0.91-1.17 0.96-2.58 0.89-4.02-0.19-4.12-1.44-9.29-2.24-12.52-0.16-0.64-0.51-2.08 0.22-3.24 0.48-0.76 1.23-1.08 1.57-1.23 2.08-0.93 3.68-2.68 5.59-3.91 11.02-7.08 23.51-11.79 34.21-19.34 1.19-0.84 3.54-2.54 5.59-1.79 2.2 0.81 2.01 3.69 4.02 8.27 3.12 7.1 6.47 6.75 7.38 11.85 0.67 3.74-1.14 3.92-1.12 9.84 0.02 4.64 1.13 4.94 1.79 11.4 0.49 4.77 0.76 7.46 0 10.96-1.17 5.36-3.38 6.23-3.13 10.29 0.23 3.69 2.09 3.63 2.24 7.38 0.14 3.79-1.73 4.72-2.24 9.84-0.23 2.36 0.11 2.73 0.22 6.26 0.02 0.5 0.17 6.06-0.89 12.3-1.15 6.73-2.49 7.07-3.35 13.64-0.32 2.44-0.36 4.31-0.45 8.05-0.15 6.5 0.26 8.27 0.22 15.43-0.04 8.63-0.65 10.31-1.34 11.63-2.07 3.93-5.57 5.86-7.16 6.71 0 0-5.49 2.94-12.97 2.46-9.75-0.63-44.08-20.5-87.58-52.02 0.7-2.27 1.59-4.04 2.39-5.37 1.7-2.82 2.9-3.46 3.73-5.81 0.22-0.62 0.6-1.91 0.45-5.52-0.2-4.72-1.1-8.31-1.34-9.24-2.03-7.91-3.17-12.33-6.56-17.44-2.16-3.25-3.96-5.98-7.45-8.05-1.55-0.92-4.11-1.91-9.24-3.88-1.98-0.76-3.63-1.37-4.77-1.79-0.33-0.93-0.94-2.23-2.09-3.43-1.6-1.67-3.11-1.93-6.41-3.13-6.82-2.48-6.92-3.73-9.39-3.43-2.51 0.31-2.77 1.65-5.81 1.79-1.67 0.08-3.06-0.26-5.07-0.75-2.68-0.65-3.12-1.07-4.77-1.49-4.22-1.07-7.98 0.02-9.39 0.45-1.27 0.39-0.7 0.39-6.86 3.73-3.71 2.01-4.65 2.42-6.63 3.69-2.14 1.38-3.79 2.67-4.87 3.57 2.76-11.68 5.5-23.37 8.24-35.06z"/> <path d="m536.6 368.86 3.99-2.76c1.86-1.44 3.73-2.88 5.59-4.32l3.54 6.48c-1.48 0.45-3.31 0.86-5.44 1.04-3.11 0.28-5.75-0.04-7.68-0.44z"/> <path class="st6" d="m358.26 463.62c0.97-0.85 3.05-0.71 7.2-0.43 3.49 0.23 7.65 0.4 10.93 2.78 3.37 2.45 3.38 5 5.79 8.4 5.44 7.65 17.23 11.35 25.85 8.96 2.1-0.58 2.47-1.46 10.23-5.13 4.04-1.91 5.35-2.39 7.06-2.56 3.37-0.35 7.49 0.56 10.06 2.68 4.34 3.58 2.1 8.81 2.79 26.76 0.54 14.17 2.04 16.35-0.38 21.15-2.14 4.24-5.23 6.02-6.03 11.69-0.5 3.58 0.39 5.33-0.96 7.76-1.91 3.45-4.95 2.2-7.43 5.01-1.25 1.41-1.76 3.17-1.32 19.23 0.2 7.24 0.39 10.36-1.63 13.4-1.55 2.32-2.73 2.1-4.03 4.46-2.71 4.92-0.6 11.42-0.14 12.82 2.07 6.35 5.07 6.12 9.19 13.73 3.02 5.57 3.94 10.9 4.09 13.51 0.43 7.71-2.84 8.27-1.96 13.49 1.53 9.05 12.1 11.62 11.03 17.29-0.65 3.45-4.66 3.05-6.26 7.75-1.75 5.11 2.02 8.43 0 11.63-1.76 2.77-7.12 4.25-10.43 2.39-5.27-2.96-0.94-11.86-6.86-26.24-2.35-5.7-3.07-4.41-5.66-10.73-4.4-10.75-2.69-15.39-6.61-22.31-3.84-6.79-7.07-5.11-11.65-11.08-7.76-10.11-6.97-25.95-5.48-55.65 0.07-1.36 0.32-5.96-2.05-10.73-0.85-1.71-2.36-4.75-5.1-6.09-4.22-2.05-7.28 1.91-16.91 5.16-3.34 1.13-1.79 0.25-15.95 3.27-7.14 1.52-10.97 2.28-13.16 2.54-11.62 1.38-26.24-6.43-25.94-11.84 0.32-5.79 17.43-4.04 37.83-18.15 8.88-6.14 18.52-12.94 20.25-23.68 2.27-14.23-10.64-27.47-6.36-31.24z"/> <path class="st7" d="m692.6 577.52c-2.91-6.6-4.33-11.98-5.07-15.5-0.27-1.29-0.87-4.35-0.89-8.35-0.02-3.3-0.01-4.99 0.89-6.86 1.16-2.38 4.03-5.67 7.75-5.37 2.85 0.23 4.57 2.43 4.77 2.68 2.22 2.92-0.52 6.39-0.6 10.73-0.13 6.78 5.76 12.01 8.35 14.31 8.59 7.64 19.72 7.18 27.43 6.86 7.87-0.33 16.4-0.68 23.25-6.56 5.93-5.09 4.6-9.17 12.82-18.48 3.13-3.55 10.13-11.49 14.01-9.84 3.49 1.48 2.92 10.06 2.39 17.29-1.26 16.98-5.27 20.52-7.45 35.78-1.97 13.8-0.71 25.01 0 31.01 1.06 8.92 2.76 15.26 5.07 23.85 2.18 8.13 5.55 19.17 10.73 32.05-21.47 2.83-42.93 5.66-64.4 8.5-13.01-37.37-26.03-74.73-39.05-112.1z"/> <path class="st8" d="m659.66 545.17c0.41 2.22 3.37 3.34 6.26 4.47 14.96 5.85 10.08 4.89 15.2 6.26 14.01 3.75 21.02 5.62 27.28 4.47 9.48-1.74 23.71-8.63 26.61-18.56 0.5-1.72 1.21-5.43 4.02-6.71 2.09-0.95 4.92-0.38 6.71 1.12 1.86 1.56 2.78 4.29 2.24 12.75-0.42 6.56-0.63 9.84-2.01 14.53-3.71 12.64-4.71 27.75-5.59 40.7-1.44 21.26 1.79 37.57 3.2 43.83 3.48 15.45 6.85 29.5 17.59 34.14 4.29 1.85 7.9 1.41 18.19-0.3 21.03-3.48 36.61-6.71 42.63-7.9 14.11-2.8 10.28-1.31 44.72-7.16 16.58-2.81 24.88-4.22 25.21-4.31 8.58-2.36 17.75-2.04 26.33-4.41 0.88-0.24 3.58-1.01 5.14 0.34 1.17 1.01 1.12 2.71 1.23 4.47 0.01 0.09 0.75 3.34 2.24 9.84 0 0 1.4 6.14 4.7 12.19 4.74 8.72 9.46 8.48 18.11 20.35 2.57 3.52 4.07 6.17 3.8 9.39-0.38 4.64-4.2 7.73-5.14 8.5-6.01 4.87-12.13 2.86-23.03 3.8-11.83 1.02-20.53 4.76-28.17 8.05-9.83 4.23-14.83 8.34-20.35 11.85-15.27 9.72-29.9 11.95-49.86 14.98-19.56 2.97-46.69 7.1-66.41-1.34-3-1.28-9.68-4.51-18.41-3.8-5.86 0.47-10.54 2.54-17.59 5.66-7.36 3.26-11.62 6.2-19.68 7.45-3.71 0.58-5.48 0.37-6.86 0-6.04-1.6-9.25-7.34-11.03-10.43-11.48-19.92-13.05-15.69-18.48-28.62-4.99-11.87-11.34-26.96-7.16-43.53 2.27-9.01 5.84-11.24 6.56-21.17 0.49-6.76-0.72-11.89-4.17-23.25-6.02-19.8-9.03-29.7-12.52-36.97-9.24-19.24-15.53-21.59-16.7-34.88-0.67-7.66 0.77-14.17 1.79-18.78 1.86-8.43 3.31-14.95 8.94-19.08 3.07-2.25 9.27-5.17 13.42-2.39 2.41 1.62 3.97 5.07 3.58 8.05-0.44 3.23-2.94 4.22-2.54 6.4z"/> <path class="st9" d="m786.81 661.45c-0.38-3.15-0.77-6.37 1.12-8.65 0.71-0.86 1.84-1.34 4.1-2.31 2.36-1.01 5.21-2.23 8.42-1.86 0.89 0.1 1.5 0.29 2.68 0.22 1.97-0.12 2.54-0.78 3.5-0.45 1.01 0.35 1.44 1.44 2.09 3.06 0.22 0.56 0.93 2.46 0.97 5.14 0.02 1.77-0.25 3.15-0.52 4.47-0.27 1.36-0.61 2.54-0.75 2.91-1.67 4.67-16.07 8.37-20.2 3.06-0.87-1.14-1.05-2.62-1.41-5.59z"/> <path class="st9" d="m807.91 655.93c0.02-1.1 0.1-4.02 2.16-6.41 0.45-0.53 2.22-2.58 4.17-2.31 0.94 0.13 0.93 0.66 2.24 1.12 2.06 0.72 4.07 0.1 4.62-0.07 1.8-0.56 1.8-1.25 3.06-1.34 1.39-0.1 3.03 0.62 3.8 1.86 0.86 1.38-0.22 1.98 0.15 5.07 0.27 2.26 1 3.16 0.82 5.59-0.07 0.92-0.1 1.38-0.3 1.71-1.12 1.88-4.57 0.51-9.76 1.19-5.01 0.66-6 2.49-7.98 1.49-3.08-1.55-2.99-7.14-2.98-7.9z"/> <path class="st9" d="m827.58 655.04c-0.64-3.79 1.51-6.66 2.24-7.53 0.48-0.57 2.29-2.72 5.07-3.13 1.64-0.24 1.7 0.41 3.95 0.3 2.16-0.11 2.58-0.73 5.52-1.04 2.63-0.28 3.23 0.12 3.5 0.37s0.58 0.7 0.67 2.91c0.1 2.35-0.17 3.69-0.37 6.71-0.16 2.42-0.03 2.21-0.15 2.53-0.23 0.61-1.08 2.38-9.76 4.32-4.97 1.11-5.98 0.81-6.63 0.52-3.21-1.43-3.95-5.43-4.04-5.96z"/> <path class="st9" d="m848.49 646.23c0.48-0.45 1.15-0.86 2.5-1.7 3.31-2.06 4.96-3.08 6.86-3.35 1.12-0.16 3.65-0.52 5.52 0.89 1.04 0.79 1.1 1.54 2.83 2.83 1.12 0.84 1.46 0.79 2.09 1.49 0.7 0.78 1.57 2.27 1.27 3.58-0.31 1.35-1.8 1.99-4.77 3.2-3.53 1.45-6.47 1.99-8.2 2.24-1.58 0.22-2.83 0.39-4.55 0.3-2.76-0.15-5.36-0.3-6.34-1.94-1.26-2.12 0.82-5.7 2.79-7.54z"/> <path class="st9" d="m867.68 648.33c-0.87-1.33 0.07-3.5 0.67-4.47 0.74-1.2 1.69-1.75 3.35-2.68 1.64-0.92 3.86-2.13 7.08-2.53 2.31-0.29 4.13-0.51 5.74 0.52 0.83 0.54 1.62 1.41 2.68 2.61 0.79 0.89 0.86 1.09 0.89 1.27 0.31 1.83-3.51 3.84-4.02 4.1-1.29 0.66-2.78 1.17-6.93 1.64-5.69 0.62-8.56 0.92-9.46-0.46z"/> <path class="st10" d="m750.49 670.96c0.07-1.88 0.16-3.78 1.29-5.86 0.38-0.69 1.17-2.12 2.83-3.28 0.6-0.42 2.64-1.73 5.29-1.57 1.87 0.11 1.69 0.81 3.65 0.97 1.74 0.14 2.23-0.38 5.66-0.75 1.58-0.17 2.38-0.25 2.91 0 1.26 0.6 1.79 2.21 2.24 5.37 0.53 3.74 0.51 6.45 0.45 10.66-0.09 5.98-0.13 7.16-1.19 8.27-1.26 1.32-2.94 1.48-5.44 1.71-1.72 0.16-6.53 0.55-11.33-2.46-1.35-0.85-3.52-2.21-4.99-4.92-1.56-2.85-1.46-5.61-1.37-8.14z"/> <path class="st11" d="m511.75 378.88c-0.94 1.06-1.28 2.63-0.95 4.02 0.57 2.42 2.9 3.29 3.24 3.41 2.15 0.76 4.01-0.2 4.53-0.5s1.65-0.96 2.12-2.29c0.59-1.65-0.15-3.41-1.06-4.42-1.92-2.12-5.98-2.37-7.88-0.22z"/> <path class="st10" d="m773.02 667.78c0.47-2.03 1.08-3.66 2.46-4.99 0.51-0.5 1.51-1.32 5.37-2.39 5.2-1.43 7.81-2.15 10.51-0.89 1.93 0.89 2.98 2.35 3.65 3.28 2.25 3.11 2.36 6.42 2.46 10.88 0.11 4.91 0.17 7.36-0.97 8.5-2.85 2.83-7.78-1.12-13.12 1.94-0.79 0.45-2.35 1.49-4.62 1.64-0.42 0.03-2.08 0.14-3.35-0.45-4.49-2.06-3.54-12.51-2.39-17.52z"/> <path class="st10" d="m795.83 666.96c0.97-2.6 2.89-3.95 5.22-5.59 2.21-1.55 6.69-4.7 11.78-3.65 1.09 0.22 2.97 0.61 4.17 2.16 1.23 1.57 0.58 2.83 0.82 7.08 0.31 5.46 1.58 6.86 0.37 9.47-0.85 1.83-2.27 2.84-2.68 3.13-2.75 1.91-4.62 0.61-11.25 1.34-3.76 0.42-4.58 0.99-5.81 0.22-1.7-1.05-2.05-3.31-2.61-6.93-0.52-3.29-0.8-5.1-0.01-7.23z"/> <path class="st10" d="m816.48 668.6c-0.14-2.32-0.49-8.06 3.2-11.25 2.6-2.26 3.67-0.18 11.93-2.76 2.09-0.65 4.03-1.41 5.66-0.45 1.21 0.72 1.72 2.05 2.16 3.28 0.83 2.3 0.75 4.11 0.75 6.11-0.01 7.42 1.14 7.47 0.22 9.32-1.57 3.18-5.56 4.26-8.27 4.99-3.12 0.84-5.76 0.65-7.38 0.52-2.33-0.19-3.5-0.28-4.62-0.97-3.24-1.97-3.53-6.77-3.65-8.79z"/> <path class="st10" d="m837.65 665.25c-0.05-3.65-0.13-8.99 3.58-12.22 1.14-0.99 3.79-1.6 9.09-2.83 3.56-0.82 5.82-1.08 8.27-0.3 1.02 0.33 2.08 0.67 2.91 1.64 1.51 1.78 0.92 4.13 0.6 7.6-0.73 7.93 1.17 8.46-0.3 10.73-1.9 2.94-6 3.42-12.97 4.25-0.94 0.11-2.65 0.27-4.77-0.15-1.34-0.27-3.1-0.62-4.4-1.79-1.9-1.7-1.98-4.37-2.01-6.93z"/> <path class="st10" d="m860.53 659.43c0.96-6.14 1.45-9.21 3.58-11.03 3.14-2.68 7.98-2.55 8.42-2.53 1.79 0.07 3.04 0.55 5.66 0.22 1.43-0.18 1.94-0.43 2.53-0.07 0.59 0.35 1.18 1.24 0.89 6.41-0.24 4.27-0.67 4.22-0.6 6.56 0.13 3.94 1.4 4.83 0.6 6.56-0.69 1.5-2.33 2.07-5.59 3.2-2.53 0.88-5.67 1.94-9.76 1.49-2.52-0.28-4.13-0.45-5.29-1.71-0.48-0.52-1.56-1.97-0.44-9.1z"/> <path class="st10" d="m880.28 653.62c1.4-8.83 2.29-10.07 3.06-10.88 1.84-1.96 4.04-2.63 7.9-3.8 3.88-1.18 4.96-0.62 5.44-0.22 0.65 0.54 0.75 1.25 1.04 3.2 1.12 7.62 1.16 7.85 1.19 8.8 0.1 2.91-0.1 5.07-0.15 5.59-0.39 4.08-0.58 6.12-1.71 7.38-0.43 0.47-0.64 0.53-7.83 2.76-2.02 0.63-2.81 0.87-4.02 0.82-0.45-0.02-3.23-0.17-4.84-1.79-1.03-1.03-1.55-2.6-0.08-11.86z"/> <path class="st12" d="m536.6 368.86c0.19-0.84 0.53-1.94 1.16-3.13 0.73-1.38 1.58-2.39 2.24-3.06 2.25-0.07 4.5-0.15 6.75-0.22-1.22 1.2-2.87 2.6-4.99 3.91-1.9 1.17-3.68 1.96-5.16 2.5z"/> <path class="st10" d="m899.88 638.42c0.33-0.33 0.36-0.3 7.45-3.06 3.47-1.35 4.67-1.83 5.66-1.19 1.07 0.68 1.25 2.25 1.49 4.32 0.19 1.64 0.04 2.55-0.07 4.92-0.14 2.88 0.04 2.59-0.07 5.22-0.14 3.31-0.4 3.21-0.82 8.05-0.33 3.74-0.21 4.21-0.82 4.92-1.12 1.3-2.98 1.39-6.56 1.57-2.66 0.13-3.98 0.19-5.07-0.37-2.72-1.42-3.41-4.95-3.8-6.93-0.13-0.65-0.41-2.28 0-6.56 0.58-6.09 0.87-9.13 2.61-10.89z"/> <path class="st10" d="m913.99 635.63c1.03-1.48 2.51-2.58 2.51-2.58 1.2-0.89 2.32-1.34 2.98-1.57 1.61-0.55 3.19-1.09 4.17-0.45 1 0.66 0.86 2.23 0.6 6.63-0.45 7.48-0.24 6.41-0.52 9.09-0.54 5.15-0.72 3.49-1.27 8.42-0.36 3.22-0.4 4.95-1.71 5.81-1.25 0.82-2.86 0.36-3.35 0.22-3.09-0.88-4.33-4.33-4.55-4.99-0.81-2.42 0.05-3.32 0.37-7.53 0.52-6.81-1.33-10.03 0.77-13.05z"/> <path d="m688.8 544.82c0.15-0.79 0.53-1.53 1.08-2.15 0.54-0.63 1.25-1.1 2.02-1.42 1.56-0.62 3.38-0.45 4.71 0.44-1.57-0.12-3.03-0.04-4.35 0.49-1.33 0.5-2.44 1.43-3.46 2.64z"/> <path d="m696.61 541.69c-1.2 0.22-2.16 0.62-2.85 1.34-0.71 0.71-1.09 1.67-1.29 2.87-0.31-0.54-0.4-1.19-0.3-1.83 0.09-0.64 0.42-1.26 0.88-1.74 0.47-0.47 1.09-0.8 1.73-0.9 0.63-0.11 1.28-0.04 1.83 0.26z"/> <path d="m696.61 541.69c0.43 0.19 0.76 0.54 0.99 0.95 0.23 0.42 0.32 0.9 0.31 1.39-0.06 0.97-0.62 1.88-1.48 2.23 0.26-0.88 0.45-1.57 0.49-2.28 0.03-0.71-0.09-1.4-0.31-2.29z"/> <path d="m742.14 534.64c-0.67 0.03-1.28 0.11-1.86 0.22-0.58 0.14-1.13 0.31-1.61 0.6-0.99 0.55-1.74 1.44-2.37 2.61-0.08-0.67 0.07-1.36 0.41-1.98 0.33-0.62 0.86-1.14 1.47-1.5 1.26-0.7 2.82-0.66 3.96 0.05z"/> <path d="m742.14 534.64c-0.86 0.52-1.5 0.98-2.02 1.6-0.53 0.6-0.9 1.32-1.31 2.23-0.39-0.94-0.13-2.08 0.55-2.88 0.69-0.8 1.8-1.23 2.78-0.95z"/> <path d="m742.14 534.64c0.46-0.02 0.9 0.17 1.25 0.49 0.36 0.32 0.59 0.78 0.67 1.26 0.15 0.97-0.33 1.97-1.17 2.33 0.1-0.44 0.18-0.81 0.21-1.17s0.04-0.69-0.03-1c-0.08-0.64-0.37-1.21-0.93-1.91z"/> <path class="st13" d="m696.61 541.69c8.65-24.15 19.43-47.69 32.07-70.01-4.2 11.96-9.53 24.02-14.79 35.57-5.33 11.53-10.97 23.44-17.28 34.44z"/> <path class="st13" d="m742.14 534.64c3.38-26.98 9.86-53.67 18.29-79.5-1.96 13.28-5.02 26.91-8.11 39.99-3.32 13.2-6.1 26.49-10.18 39.51z"/> <path d="m749.1 462.96c-3.54-10.16 6.48-16.62 15.66-15.32 1.24 0.15 2.46 0.42 3.64 0.78-1.23-0.14-2.45-0.31-3.67-0.29-8.81-0.37-17.67 4.96-15.63 14.83z"/> <path class="st5" d="m312.03 497.92c-0.96 1.36-1 3-1.04 4.77-0.04 1.79-0.09 3.88 1.12 5.74 1.88 2.88 6.09 4.17 9.61 3.06 0.84-0.26 3.58-1.28 4.84-4.02 1.76-3.82-0.29-8.94-4.1-11.03-3.54-1.95-8.51-1.23-10.43 1.48z"/> <path class="st14" d="m507.61 316.88"/> <path class="st11" d="m509.72 370.36c-0.53 0.58-1.32 1.61-1.64 3.06-0.66 2.94 0.98 5.77 2.83 7.3 2.68 2.22 5.95 1.82 7.98 1.57 1.62-0.2 4.31-0.53 6.34-2.76 1.39-1.52 1.84-3.24 2.01-4.17-1.78 0.06-3.91-0.02-6.26-0.45-5.06-0.91-8.88-2.97-11.26-4.55z"/> <path class="st11" d="m511.58 373.72c1.97 2.16 4.47 2.67 6.34 3.06 3.22 0.66 9.27 0.85 11.25-2.31 0.88-1.41 0.35-2.53 1.79-4.32 1.27-1.59 2.51-1.75 2.61-2.68 0.16-1.5-2.83-2.92-4.1-3.58-2.89-1.5-6.81-4.23-10.96-9.61-1.1 0.22-3.77 0.93-6.04 3.28-2.76 2.86-3.12 6.26-3.2 7.6-0.11 1.85-0.34 5.64 2.31 8.56z"/> <path class="st11" d="m520.68 363.51c-0.51-0.55-4.73-5.38-3.06-10.81 1.12-3.65 4.27-5.47 5.7-6.3 3.63-2.1 7.32-2.03 10.32-1.98 2.5 0.05 4.56 0.42 5.96 0.75-0.2 2.97-0.17 6.87 0.67 11.33 0.67 3.57 1.69 6.58 2.68 8.94-2.2-0.49-3.71-0.17-4.7 0.22-1.34 0.54-1.77 1.26-3.35 1.79-1.42 0.48-2.62 0.43-3.58 0.37-2.08-0.1-7.05-0.38-10.64-4.31z"/> <path class="st11" d="m529.63 353.66c-0.09-3.91 1.89-6.65 2.42-7.34 0.18-0.23 2.51-3.21 6.06-4.13 0.22-0.06 0.39-0.09 0.5-0.12 0.54-0.12 0.95-0.16 5.59 0 3.42 0.12 5.14 0.18 6.78 0.3 3.86 0.28 5.98 0.63 8.2 1.64 1.25 0.56 2.07 1.13 2.42 2.05 0.51 1.34-0.23 2.76-0.56 3.35-2.67 4.9-8.57 3.51-10.51 7.49-1.77 3.63 0.68 8.28-0.89 8.94-0.7 0.29-1.35-0.58-3.72-0.81-1-0.1-1.69-0.02-2.32 0.03-2.83 0.21-5.84 0.44-8.16-0.73-2.01-1.01-2.97-2.8-4.02-4.75-0.67-1.24-1.72-3.19-1.79-5.92z"/> <path class="st11" d="m543.09 360.48c0.17 1.74 0.6 6.06 3.88 8.8 0.68 0.57 2.09 1.72 3.95 1.71 2.05-0.01 3.23-1.41 5.07-2.83 5.68-4.4 9.09-2.43 11.48-6.11 1.74-2.68 1.34-5.88 1.27-6.48-0.2-1.65-0.86-2.96-2.16-5.59-1.06-2.13-1.65-3.16-2.46-3.95-3.91-3.83-10.83-2.03-11.18-1.94-3.28 0.9-5.33 2.81-5.81 3.28-4.88 4.7-4.21 11.47-4.04 13.11z"/> <path class="st11" d="m549.2 372.85c-2.55-2.45-0.86-7.95 0.45-10.73 2.23-4.76 6.99-6.43 8.2-6.86 1.93-0.68 4.73-1.66 7.16-0.3 1.96 1.1 2.67 3.16 3.43 5.37 0.76 2.22 1.77 4.95 0.6 7.23-0.19 0.36-0.39 0.66-0.63 0.92-2.19 2.36-5.39 3.16-7.12 3.48-7.29 1.34-10.92 2.02-12.09 0.89z"/> <path class="st11" d="m552.06 376.49c-0.39-0.49-1.3-1.77-1.27-3.5 0.02-0.85 0.26-2.02 1.86-4.02 1.19-1.49 3.71-4.66 8.5-6.11 2.48-0.75 5.27-1.6 7.16-0.07 2.22 1.79 1.59 5.58 1.49 6.19-0.67 4.04-4.02 6.33-5.66 7.45-1.49 1.02-3.65 2.49-6.63 2.39-0.87-0.05-3.68-0.16-5.45-2.33z"/> <path d="m527.43 346.09 23.37-17.1c0.93 0.04 4.29 0.26 6.98 2.54 0.82 0.7 1.41 1.44 1.84 2.16 0.86 1.45 1.06 2.77 1.16 3.48 0.38 2.74-0.42 5-0.92 6.14-10.81 0.94-21.62 1.86-32.43 2.78z"/> <ellipse class="st15" transform="matrix(.9278 -.373 .373 .9278 -85.774 227.98)" cx="546.22" cy="335.63" rx="2.19" ry=".84"/> <circle cx="601.82" cy="322.47" r="9.84"/> <circle class="st10" cx="601.82" cy="319.04" r="1.94"/> <path class="st16" d="m562.17 339.6c6.4 1.13 15.55 1.85 26.14-0.28 5.81-1.17 17.16-3.59 27.58-12.24 5.81-4.82 4.18-5.65 12.63-13.37 13.03-11.92 19.77-12.58 21.6-12.69 6.08-0.38 10.65 1.94 12.07 2.72 6.21 3.43 10.94 9.97 11.85 17.11 1.08 8.44-3.56 14.73-9.08 22.21-4.24 5.75-11.67 15.81-24.81 20.4-12.06 4.21-22.38 1.51-35.23-2.04-10.02-2.78-25.83-8.6-42.75-21.82z"/> <path class="st1" d="m695.43 364.95c4.07 8.26 12.35 12.56 29.07 20.12 12.97 5.87 33.23 14.82 62.16 17.44 9.64 0.87 27.6 2.5 49.64-1.79 11.15-2.17 18.78-4.97 33.32-5.59 10.92-0.47 16.48 0.68 27.5 1.54 10.87 0.85 26.6 1.38 46.28-0.43-13.68-1.16-32.03-3.86-52.77-10.51-21.73-6.96-29.02-12.8-83.42-40.64-41.62-21.3-38.15-18.3-50.16-25.56 0 0-32.07-19.58-53.92-31.03-2.42-1.27-7.44-3.84-14.3-6.36-4.35-1.6-8.06-2.67-10.66-3.36 9.56 11.33 16.58 24.43 18.14 39.42 2.23 21.21-7.91 32.46-0.88 46.75z"/> <ellipse cx="515.79" cy="385.75" rx="2.63" ry=".85"/> <path class="st5" d="m525.12 743.29c0.09-3.43 0.14-5.46 1.71-6.71 1.89-1.5 4.86-0.96 6.71 0.15 2.61 1.56 3.18 4.38 3.35 5.22 0.12 0.61 1.03 5.04-2.09 7.68-2.42 2.05-6.42 2.28-8.42 0.37-1.39-1.34-1.34-3.29-1.26-6.71z"/> <path class="st5" d="m513.8 741.65c0.13-0.62 0.7-3.03 2.98-4.62 2.07-1.45 4.25-1.32 4.92-1.27 3.65 0.28 5.74 3.03 6.04 3.43 2.84 3.86 1.03 8.4 0.89 8.72-0.38 0.9-1.32 3.15-3.65 4.1-3.19 1.29-6.37-0.92-7.08-1.42-2.52-1.75-4.86-5.24-4.1-8.94z"/> <path class="st5" d="m317.99 479.88c-0.2 0.16-2.33 1.92-2.46 4.62-0.16 3.32 2.79 6.02 5.37 7.08 3.65 1.5 7.01-0.07 7.75-0.45 2.83-1.43 5.87-4.72 5.29-7.53-0.93-4.51-11.22-7.49-15.95-3.72z"/> <path class="st5" d="m297.8 508.06c-0.68-0.58-2.47-2.14-2.53-4.4-0.09-3.18 3.3-5.6 5.74-6.48 3.6-1.31 9.38-0.8 11.11 3.13 1.3 2.97-0.26 6.65-2.61 8.57-3.64 2.96-8.94 1.58-11.71-0.82z"/> <path class="st5" d="m505.97 745.97c-0.1-0.79-0.38-3.16 1.12-5.37 1.24-1.84 3.01-2.52 3.65-2.76 2.69-1 6.68-0.82 8.8 1.71 1.32 1.58 1.36 3.43 1.42 5.52 0.06 2.37 0.14 5.74-2.24 7.6-2.48 1.95-5.91 0.92-6.48 0.75-3.44-1.03-5.84-4.19-6.27-7.45z"/> <path class="st5" d="m500.53 752.83c-0.28-0.67-1.25-2.98-0.22-5.29 1.34-3.03 5.24-4.15 8.2-3.65 0.87 0.15 4.34 0.89 5.66 4.1 1.54 3.71-1.29 7.09-1.42 7.23-0.28 0.32-2.34 2.62-5.59 2.53-3.33-0.1-5.68-2.66-6.63-4.92z"/> <path class="st5" d="m497.55 759.09c-0.97-1.94-0.21-3.9-0.07-4.25 0.82-2.13 3.09-4.07 5.81-3.88 3.17 0.22 4.68 3.17 4.77 3.35 1.15 2.35 0.8 5.65-1.27 7.16-1.77 1.29-4.04 0.71-5.07 0.45-1.02-0.26-3.17-0.81-4.17-2.83z"/> <path class="st5" d="m495.46 761.55c-0.49-1.81 1.2-4.52 3.58-4.7 1.49-0.11 2.87 0.8 3.58 2.01 0.82 1.42 0.77 3.36-0.22 4.4-1.77 1.85-6.3 0.69-6.94-1.71z"/> <path class="st5" d="m527.68 769.78c-0.24-0.31-1.16-1.53-1.06-3.19 0.17-2.78 3.06-4.19 3.3-4.3 2.74-1.29 5.32 0.11 5.53 0.22 0.43 0.24 2.71 1.59 3.02 4.3 0.03 0.25 0.25 2.57-1.29 4.14-2.38 2.43-7.43 1.51-9.5-1.17z"/> <path class="st5" d="m522.14 775.32c-0.64-3.62 1.77-6.18 2.07-6.48 2.3-2.36 5.29-2.3 5.98-2.29 0.77 0.01 3.79 0.07 5.87 2.52 0.27 0.31 1.77 2.13 1.68 4.75-0.12 3.48-2.96 5.96-5.42 6.93-0.74 0.29-2.83 1.08-5.25 0.28-2.44-0.82-4.45-2.98-4.93-5.71z"/> <path class="st5" d="m525.94 783.53c-1.07-2.92 0.52-5.68 0.95-6.43 2.18-3.8 7-5.74 11.01-4.86 0.88 0.19 3.17 0.69 4.47 2.68 1.33 2.03 0.8 4.37 0.45 5.93-0.33 1.45-1.34 5.93-5.31 7.49-3.14 1.23-6.12-0.16-7.1-0.61-1.18-0.56-3.54-1.66-4.47-4.2z"/> <path class="st5" d="m531.2 792.87c-2.31-3.27-1.44-7.06-1.23-7.88 0.94-3.6 3.63-5.46 4.7-6.2 2.19-1.52 4.36-1.97 5.59-2.12 1.76-0.22 3.89-0.48 5.59 0.67 3.05 2.06 2.55 7.19 2.4 8.66-0.22 2.27-0.76 7.78-5.42 9.95-3.93 1.82-9.1 0.49-11.63-3.08z"/> <path class="st5" d="m545.58 798.52c-0.68 0.04-5.6 0.25-7.72-3.54-2.59-4.63 1.33-11.06 2.11-12.26 0.38-0.58 4.72-7.14 8.99-5.63 2.46 0.87 3.57 3.96 4.09 5.41 1.41 3.94 1.58 10.11-1.88 13.62-2.12 2.15-4.66 2.34-5.59 2.4z"/> <path class="st5" d="m547.07 784.34c0.93-2.44 1.91-5.03 4.64-6.11 1.8-0.71 4.1-0.67 5.93 0.37 2.48 1.41 3.02 4.06 3.41 6.01 0.27 1.33 1.48 7.3-2.63 10.84-0.46 0.4-3.25 2.81-6.71 2.07-3.45-0.73-4.89-4.03-5.2-4.73-1.41-3.24-0.26-6.28 0.56-8.45z"/> <path class="st5" d="m554.9 783.98c0.35-1.16 1.28-4.23 4.02-5.42 1.9-0.83 3.84-0.4 4.92-0.17 0.88 0.19 2.73 0.59 4.25 2.01 3.46 3.23 2.08 8.86 2.01 9.11-0.24 0.91-1.33 5.08-5.37 6.6-0.28 0.1-3.91 1.4-7.04-0.61-4.04-2.61-3.71-8.46-2.79-11.52z"/> <circle cx="564.07" cy="787.56" r="3.35"/> <path class="st5" d="m457.13 608.95c-0.27-0.13-1.61-0.83-2.01-2.37-0.44-1.66 0.52-3.13 1.01-3.87 0.25-0.38 2.03-3.11 4.86-2.91 0.59 0.04 2.62 0.31 3.56 2.18 0.77 1.54 0.28 3.12 0.21 3.32-0.46 1.39-1.48 2.04-2.43 2.64-0.99 0.64-3.16 2.01-5.2 1.01z"/> <path class="st5" d="m457.91 611.3c-0.3-1.18-0.78-3.09 0.18-4.82 1.32-2.38 4.37-2.71 5.46-2.82 1.26-0.13 2.93-0.31 4.37 0.82 1.86 1.46 1.78 3.87 1.77 4.05-0.11 2.37-1.98 3.79-2.91 4.51-1.79 1.37-5.24 2.91-7.28 1.41-0.98-0.74-1.28-1.91-1.59-3.15z"/> <path class="st5" d="m458.74 615.95c-0.35-3.11 1.47-5.3 1.73-5.6 2.14-2.48 5.13-2.54 5.78-2.55 1.11-0.02 3.65-0.07 5.28 1.91 1.12 1.37 1.44 3.24 1 4.82-0.43 1.54-1.46 2.42-2.46 3.23-0.76 0.62-5.75 4.71-9.06 2.64-1.9-1.18-2.19-3.74-2.27-4.45z"/> <path class="st5" d="m460.07 623.6c-1.52-2.53 0.35-5.78 0.82-6.6 1.86-3.23 5.08-4.18 5.78-4.37 1.29-0.34 3.48-0.93 5.37 0.32 2.01 1.32 2.28 3.78 2.32 4.19 0.37 3.41-2.24 6.27-4.41 7.6-0.56 0.34-3.23 1.97-6.37 1.14-0.76-0.2-2.56-0.68-3.51-2.28z"/> <path class="st5" d="m465.99 628.83c-2.01-1.62-2.87-4.49-2.09-6.78 0.53-1.58 1.69-2.43 2.96-3.37 1.36-1.01 3.6-2.66 5.87-1.96 1.67 0.52 2.52 2.06 2.87 2.68 1.21 2.19 1.93 6.33-0.91 8.96-2.34 2.19-6.18 2.5-8.7 0.47z"/> <path class="st5" d="m475.95 617.64c-2.25-0.14-4.21 2.03-4.78 4.1-0.65 2.35 0.56 4.31 0.82 4.73 0.45 0.73 1.42 2.3 3.37 2.64 1.46 0.25 3.01-0.27 4-1.37 1.39-1.53 1.09-3.54 0.96-4.46-0.28-1.88-1.59-5.47-4.37-5.64z"/> <circle cx="477.12" cy="623.9" r="1.85"/> <path class="st5" d="m297.12 524.98c-0.18-0.06-4.19-1.56-5.44-5.44-1.5-4.67 2.23-9.03 3.06-9.99 0.54-0.63 5.71-6.45 12.82-4.77 3.53 0.83 7.9 3.6 8.42 7.38 0.95 6.91-11.21 15.54-18.86 12.82z"/> <path class="st5" d="m297.5 527.96c-1.79-2.2-1.39-5.1-1.19-6.48 0.78-5.61 5.43-8.6 5.74-8.8 3.24-2.01 6.46-1.87 8.2-1.79 2.26 0.1 5.34 0.24 7.83 2.53 2.24 2.06 3.58 5.48 2.98 8.5-1.32 6.7-11.8 9.47-18.34 8.5-3.51-0.53-4.82-1.97-5.22-2.46z"/> <path class="st5" d="m301.07 531.91c-1.57-2.78-0.33-6.73 1.49-9.09 3.78-4.91 10.53-3.67 11.4-3.5 3.16 0.58 8.25 2.77 8.72 6.63 0.32 2.59-1.59 4.74-2.09 5.29-4.8 5.39-16.59 5.85-19.52 0.67z"/> <path class="st5" d="m305.02 540.48c-1.89-2.4-2.24-6.27-0.45-9.17 2.75-4.44 8.73-3.69 9.5-3.58 0.34 0.05 6.68 1.04 7.83 5.7 0.78 3.19-1.41 5.93-1.68 6.26-3.41 4.16-11.72 5.2-15.2 0.79z"/> <path class="st5" d="m303.25 542.64c-0.93-2.62 0.66-5.78 2.72-7.41 4.09-3.24 11.08-1.22 13.5 2.8 0.22 0.37 1.8 3.07 0.66 5.43-1.23 2.54-4.75 2.88-6.42 3.05-0.52 0.05-8.81 0.76-10.46-3.87z"/> <path class="st5" d="m303.68 546.27c0.09-2.85 3.03-4.8 5.18-5.35 4.18-1.08 9.37 2.07 9.45 5.35 0.07 3.17-4.64 6.63-8.78 5.89-2.64-0.47-5.94-2.82-5.85-5.89z"/> <circle cx="309.94" cy="548.25" r="2.8"/> <path class="st5" d="m257.93 484.41c-1.73-0.21-2.89-1.4-3.27-1.79-2.09-2.15-1.99-5.08-1.95-6.16 0.02-0.45 0.39-7.87 5.61-9.2 2.74-0.7 6.11 0.47 7.72 3.04 2.07 3.33 0.04 7.13-0.78 8.65-0.24 0.45-3.27 5.94-7.33 5.46z"/> <path class="st5" d="m261.24 486.78c-2.55-2.34-2.57-6.69-2.57-7.35 0-0.86 0.07-5.59 3.23-8.19 2.38-1.96 5.1-1.54 7.41-1.18 1.85 0.29 3.46 0.53 4.84 1.94 2.15 2.18 2.73 6.06 1.98 8.87-1.67 6.29-10.69 9.77-14.89 5.91z"/> <path class="st5" d="m266.19 490.99c-0.97-1.12-3.14-3.6-2.88-6.78 0.37-4.6 5.51-6.99 6.32-7.37 0.74-0.34 5.61-2.52 10.45 0.04 4.09 2.16 7.32 7.27 5.93 11.85-1.69 5.54-9.59 7.44-14.66 5.77-2.72-0.89-4.51-2.75-5.16-3.51z"/> <path class="st5" d="m268.07 499.76c-3.16-3.19-2.69-7.74-2.67-7.97 0.75-6.27 7.52-8.73 7.93-8.87 4.57-1.58 9.45-0.16 12.51 2.69 0.66 0.61 4.39 4.08 3.59 8.26-0.49 2.54-2.41 4.07-3.59 4.99-4.52 3.53-13.15 5.57-17.77 0.9z"/> <path class="st5" d="m267.76 505.6c-1.41-3.86-0.26-8.4 2.5-11.18 3.56-3.6 8.45-2.87 10.99-2.49 2.5 0.37 7.63 1.13 10.13 5.83 1.92 3.6 1.65 8.31-0.62 11.54-3.83 5.47-11.74 4.35-15.67 2.82-1.79-0.71-5.78-2.27-7.33-6.52z"/> <path class="st5" d="m268.54 512.15c-0.08-0.5-0.77-5.69 2.92-8.89 4.51-3.9 11.02-0.91 11.46-0.7 5.57 2.66 6.63 8.66 6.78 9.59 0.22 1.36 1.05 6.56-2.22 9.24-3.22 2.63-8.02 0.89-9.82 0.23-1.08-0.39-8.14-2.95-9.12-9.47z"/> <path class="st5" d="m269.32 515.39c0.45-2.59 2.37-5.23 5.53-6.14 4.37-1.25 7.8 1.74 8.03 1.95 2.22 2.01 3.06 5 2.29 7.7-0.15 0.53-1.05 3.45-4.17 4.87-2.99 1.36-6.59 0.69-8.97-1.27-3.39-2.78-2.75-6.92-2.71-7.11z"/> <path class="st5" d="m295.78 496.8c0.54 2.25 2.7 3.44 4.02 4.17 3.29 1.82 6.54 1.36 7.6 1.19 1.47-0.23 4.62-0.72 6.78-3.43 0.49-0.62 2.41-3.01 1.79-5.81-0.74-3.35-4.44-4.7-5.66-5.14-3.45-1.26-7.76-0.81-10.88 1.71-0.51 0.42-4.52 3.66-3.65 7.31z"/> <path class="st5" d="m294.22 484.35c-0.96 4.67 3.38 8.36 3.73 8.65 3.84 3.16 8.52 2.26 9.39 2.09 5.28-1.02 7.87-5.26 8.57-6.41 0.88-1.44 1.94-3.17 1.71-5.44-0.36-3.63-3.71-5.74-4.47-6.19-5.33-3.12-11.66 0.28-12.82 0.89-2.15 1.15-5.39 2.89-6.11 6.41z"/> <path class="st5" d="m290.94 474.29c-0.82 3.99 1.09 8.34 4.36 10.51 3.2 2.12 6.72 1.51 9.61 1.01 2.3-0.4 5.07-0.88 7.38-3.24 2.92-2.99 3-6.83 3.02-7.83 0.02-1.1 0.12-6.01-3.35-8.72-3.97-3.1-9.59-0.97-11.85-0.11-2.65 1-8.07 3.06-9.17 8.38z"/> <path class="st5" d="m285.91 467.47c-0.7 4.63 3.55 9.42 8.16 11.07 5.28 1.89 10.64-0.47 13.64-3.47 0.79-0.79 2.88-2.93 3.47-6.37 0.75-4.38-1.14-9.73-5.25-11.85-5.33-2.74-11.3 1.53-14.31 3.69-2.57 1.83-5.23 3.74-5.71 6.93z"/> <path class="st5" d="m283.22 461.55c0.01 0.29 0.23 6.11 4.7 8.39 4.26 2.17 8.86-0.69 10.62-1.79 1.64-1.02 4.65-2.89 5.59-6.71 0.09-0.35 1.12-4.84-1.68-8.16-3.32-3.95-9.93-3.71-14.09-1.01-0.42 0.27-5.27 3.55-5.14 9.28z"/> <path class="st5" d="m276.85 450.7c-0.73 4.26 1.94 7.67 2.25 8.05 3.24 4.01 8.11 3.93 8.71 3.91 0.79-0.03 4.51-0.24 7.38-3.24 2.94-3.08 3.57-7.61 2.24-11.29-0.24-0.66-1.86-4.94-6.04-6.37-5.91-2.03-13.49 2.8-14.54 8.94z"/> <circle cx="285.91" cy="450.59" r="4.7"/> <path class="st5" d="m317.1 475.34c-1.14 2.74-0.35 6.39 1.79 8.65 3.59 3.8 9.51 2.14 11.03 1.71 1.75-0.49 6.34-1.77 7.53-5.74 0.8-2.69-0.24-5.68-1.94-7.45-4.53-4.72-15.95-3.1-18.41 2.83z"/> <path class="st5" d="m319.78 464.75c-2.22 2.43-2.11 5.56-2.09 5.96 0.21 4.03 3.37 6.36 4.25 7.01 2.88 2.12 7.29 3.16 10.73 1.34 1.54-0.81 2.45-1.97 2.83-2.46 0.42-0.55 2.34-3.02 2.01-6.19-0.41-4.02-4.11-6.2-4.84-6.63-3.74-2.21-9.68-2.53-12.89 0.97z"/> <circle cx="327.62" cy="469.76" r="3.41"/> <path class="st5" d="m316.2 501.94c-0.12-0.91-0.71-5.41 2.53-8.8 0.67-0.7 2.9-2.81 6.11-2.91 4.97-0.15 9.16 4.65 10.21 9.32 0.09 0.39 1.57 7.49-3.13 10.81-4 2.82-9.69 0.93-12.67-2.01-2.48-2.46-2.93-5.51-3.05-6.41z"/> <path class="st5" d="m323.58 498.81c-0.28-0.68-2.24-5.74 0.67-10.66 0.26-0.44 3.45-5.64 8.87-5.66 4.58-0.02 7.5 3.65 9.47 6.11 1.66 2.08 3.41 4.27 3.28 7.3-0.19 4.65-4.62 7.44-5.59 8.05-1 0.63-5 3.16-9.76 1.64-4.79-1.52-6.6-5.95-6.94-6.78z"/> <path class="st5" d="m330.66 492.11c-0.28-0.96-0.95-3.41 0.15-6.11 0.21-0.51 1.55-3.67 4.92-4.77 2.82-0.92 5.25 0.2 6.93 0.97 1.17 0.54 5.55 2.55 6.78 7.23 0.21 0.81 0.89 3.39-0.37 5.96-1.76 3.57-6.28 5.11-9.99 4.55-4.65-0.71-7.49-4.64-8.42-7.83z"/> <path class="st5" d="m340.75 476.42c-0.75 0.72-3.23 3.07-3.24 6.65-0.02 4.45 3.79 7.17 4.47 7.66 1.56 1.11 3.01 1.51 3.86 1.73 0.94 0.25 6.35 1.67 8.78-1.01 1.33-1.46 1.17-3.5 0.95-5.98-0.3-3.35-0.93-10.33-5.7-11.96-4.38-1.49-8.86 2.66-9.12 2.91z"/> <path class="st5" d="m348.63 471.01c-3.53 2.21-3.84 6.25-3.88 7.16-0.11 2.6 0.96 4.5 1.42 5.29 0.55 0.96 2.33 4.02 6.04 4.84 2.66 0.59 5.97-0.06 8.05-2.39 3.34-3.73 1.16-9.17 0.75-10.21-0.45-1.12-1.29-3.22-3.5-4.62-2.47-1.54-6.02-1.86-8.88-0.07z"/> <circle cx="358.07" cy="476.63" r="4.81"/> <path class="st5" d="m402.22 456.93c1.35-1.15 3.52-3.79 2.68-6.19-1.15-3.31-7.01-3.15-7.53-3.13-2.48 0.1-7.41 1.16-7.98 4.4-0.48 2.74 2.42 5.56 5.22 6.48 4.07 1.35 7.46-1.44 7.61-1.56z"/> <path class="st5" d="m401.62 453.2c-7.22 1.52-12.71-0.63-13.57-3.65-0.7-2.49 1.75-5.55 3.95-6.93 4.1-2.57 9.29-0.93 12.22 1.12 1.29 0.9 3.35 2.26 3.35 4.25 0.02 2.13-2.33 4.36-5.95 5.21z"/> <path class="st5" d="m393.64 448.73c-1.77-0.53-5.5-1.63-6.49-4.92-0.94-3.13 1.15-6.44 2.79-8.05 4.39-4.3 12.96-3.76 16.89 1.34 0.63 0.81 2.87 3.99 1.95 7.08-1.42 4.83-9.57 6.2-15.14 4.55z"/> <path class="st0" d="m209.42 710.45c-5.03-6.2-12.03-16.78-13.81-30.96-0.71-5.65 0.71-14.08 3.58-30.71 4.06-23.56 6.16-35.46 9.84-41.44 3.13-5.1 7.21-9.85 10.14-19.08 2.42-7.65 1.08-9 2.98-13.71 5.88-14.59 25.76-19.18 28.02-19.68 11.92-2.59 22.28 0.32 32.8 3.28 9.28 2.61 7.69 3.61 14.01 4.77 12.63 2.32 16.77-2.06 33.69-1.19 3.17 0.16 6.54 0.5 11.33-0.3 6.16-1.02 6.98-2.64 10.43-2.39 5.5 0.41 10.83 5.04 13.12 10.14 2.61 5.81-0.44 8.41 2.09 16.7 0.59 1.94 1.99 4.5 4.77 9.54 5.93 10.77 8.9 16.15 11.33 18.48 4.36 4.19 7.03 4.4 13.12 10.73 3.03 3.16 3.97 4.77 4.47 6.56 1.1 3.89-0.68 5.71 0.89 9.54 0.64 1.56 0.89 1.15 3.58 5.37 1.14 1.78 2.35 3.69 3.28 5.66 1.38 2.93 1.16 3.96 2.39 8.8 1.82 7.2 3.08 7.99 3.58 12.63 0.33 3.12 0.08 5.7-0.16 7.27-68.5 9.99-136.99 19.99-205.47 29.99z"/> <path class="st5" d="m391.53 441.24c-0.37-0.35-3.85-3.8-2.73-7.16 0.86-2.58 3.92-3.54 5.24-3.95 2.04-0.64 3.65-0.46 6.79-0.07 4.74 0.58 7.11 0.87 8.28 2.58 1.4 2.05 0.87 5.05-0.24 6.96-1.5 2.6-4.16 3.34-5.83 3.8-0.88 0.25-7.28 1.92-11.51-2.16z"/> <path class="st5" d="m398.68 437.03c-1.37-0.31-5.42-1.24-6.63-4.62-1.12-3.1 0.77-6.54 2.83-8.27 4.64-3.9 13.5-1.97 16.1 2.98 0.19 0.36 1.38 2.72 0.51 5.13-1.55 4.27-8.07 5.87-12.81 4.78z"/> <path class="st5" d="m399.68 429.2c-1.91-2.14-2.98-5.73-1.64-9.02 1.93-4.74 7.42-5.32 7.9-5.37 4.55-0.41 9.5 2.49 10.66 7.01 0.1 0.4 0.9 3.73-1.04 6.56-3.19 4.63-11.9 5.27-15.88 0.82z"/> <path class="st5" d="m404.16 420.11c-0.02-0.28-0.29-4.8 3.28-7.3 3.92-2.75 8.56-0.32 8.87-0.15 2.53 1.38 4.86 4.27 4.7 7.83-0.19 4.11-3.67 7.73-7.9 7.98-4.96 0.27-8.64-4.19-8.95-8.36z"/> <circle cx="414.95" cy="419.19" r="3.93"/> <path class="st6" d="m202.61 696.78c-2.35-9.63-0.76-17.7-0.45-19.23 1.38-6.63 3.59-8.91 8.05-19.23 2.28-5.27 3.75-9.62 6.71-18.34 7.42-21.9 6.8-26.42 12.97-36.22 2.15-3.42 4.89-7.7 9.84-12.07 2.22-1.96 13.27-11.36 28.62-12.07 11.06-0.52 10.67 4.1 27.73 7.16 17.7 3.17 35.33 1.34 35.33 1.34 11.24-1.17 16.02-3.27 21.47 0 4.98 2.99 4.5 6.87 9.39 16.1 7.32 13.83 18.29 23.84 25.49 30.41 2.91 2.65 7.93 7.01 12.97 13.86 3.54 4.82 5.08 8.15 6.04 11.18 1.14 3.63 0.57 4.08 1.79 7.38 2.28 6.18 5.01 6.53 6.04 10.96 0.78 3.37-0.11 6.1-1.57 10.51-2.04 6.21-5.3 10.39-6.71 12.07-4.31 5.13-8.91 7.71-14.09 10.51-12.69 6.87-22.46 11.66-28.17 14.53-9.05 4.55-15.16 7.62-23.25 12.3-14.61 8.44-15.93 10.71-23.25 12.75-9.63 2.68-9.93-0.52-22.36 2.01-11.31 2.3-12.89 5.32-25.04 7.38-8.11 1.37-12.53 2.12-17.66 0.22-5.72-2.11-7.76-5.83-15.65-15.88-10.62-13.52-9.74-10.38-19.01-22.58-8.95-11.77-13.46-17.8-15.23-25.05z"/> <path d="m68.14 626.07c0.1 0.03 0.09-2.15 1.2-4.17 0.09-0.16 1.86-3.3 4.46-3.43 1.08-0.05 1.7 0.44 3.05 0 0.71-0.23 1.27-0.6 1.63-0.89 0.25 0.41 0.68 1.22 0.87 2.39 0.3 1.8-0.16 3.26-0.33 3.73 0.21-0.71 0.42-1.42 0.63-2.12-0.01-0.82-0.12-1.44-0.22-1.86-0.18-0.78-0.4-1.17-0.3-1.68 0.09-0.46 0.38-0.76 0.6-0.93 0.43-0.29 0.98-0.81 1.2-1.66 0.26-1.05-0.22-1.77-0.04-2.91 0.05-0.31 0.18-0.9 1.35-2.29 1.39-1.67 2.61-3.13 4.41-3.35 0.46-0.06 1.07-0.12 1.75 0.28 0.96 0.57 1.42 1.69 1.71 2.4 0.78 1.89 0.73 3.79 0.69 4.81-0.01 0.3-0.03 0.47-0.24 2.24-0.58 4.7-0.69 5.18-0.57 6.2 0.13 1.13 0.26 2.33 0.94 3.3 0.53 0.75 1.19 1.07 1.51 2.18 0.15 0.51 0.17 0.98 0.16 1.29 0.48 2.55 0.49 4.58 0.41 5.98-0.16 2.71-0.73 4.11-0.98 7.66-0.11 1.63-0.11 2.98-0.08 3.86-0.47 1.84-0.35 3.13-0.14 3.97 0.53 2.14 1.89 2.52 2.18 4.77 0.16 1.27-0.13 2.35-0.24 2.8-0.27 1.01-0.88 2-2.1 3.95-0.57 0.91-0.91 1.4-1.14 2.31-0.2 0.78-0.23 1.49-0.22 1.98 0.09-0.5 0.26-1.21 0.6-1.98 0.17-0.38 0.31-0.7 0.57-1.04 0.64-0.84 1.17-0.77 1.47-1.57 0.14-0.37 0.14-0.75 0.16-0.75 0.03 0.01-0.04 0.54 0 1.17 0 0 0.04 0.7 0.27 1.44 0.32 1.02 0.83 1.19 1.44 2.12 0.39 0.59 0.7 1.45 1.33 3.17 0.75 2.05 0.61 2.07 0.98 2.72 0.79 1.39 1.33 1.11 1.96 2.39 0.4 0.81 0.5 1.56 0.68 3.02 0.04 0.35 0.22 1.81 0.11 3.8-0.05 0.97-0.17 1.8-0.41 3.47-0.29 2.02-0.35 1.93-0.38 2.65-0.1 2.05 0.41 2.13 0.19 3.58-0.19 1.27-0.72 2.14-0.38 2.87 0.08 0.17 0.17 0.27 0.24 0.34-0.04-0.24-0.07-0.61-0.03-1.04 0.08-0.7 0.33-1.16 0.44-1.38 0.25-0.53 0.48-1.44 0.33-3.09 0.23 1.97 0.78 3.09 1.25 3.76 0.5 0.72 0.69 0.59 1.5 1.68 0.92 1.24 1.04 1.89 1.63 2.01 0.31 0.06 0.55-0.05 1.31 0.07 0.22 0.04 0.4 0.08 0.52 0.11-0.07 1.05 0 1.89 0.08 2.46 0.15 1.1 0.37 1.49 0.38 2.42 0.01 0.66-0.1 0.77-0.33 2.09-0.28 1.59-0.18 1.76-0.49 4.36-0.08 0.69-0.16 1.32-0.11 1.9 0.01 0.07 0.02 0.23 0.01 0.46-0.02 0.47-0.15 0.78-0.2 0.96-0.11 0.35-0.09 0.76-0.05 1.57 0.06 1.19 0.27 2.26 0.44 2.94-0.26-1.16-0.3-2.08-0.28-2.7 0.03-1.1 0.16-2.04 0.16-2.04 0.04-0.31 0.12-0.81 0.14-1.51 0.01-0.3 0-0.48 0-0.67-0.01-1.06 0.16-1.51 0.35-3.13 0.12-1.04 0.06-0.99 0.16-1.65 0.15-0.98 0.38-1.15 0.45-1.93 0.04-0.42-0.01-0.86-0.1-1.73-0.13-1.25-0.23-1.32-0.29-2.24-0.02-0.38-0.05-1.01 0.02-1.79 0.06-0.62 0.09-0.94 0.24-1.26 0.25-0.5 0.52-0.47 0.73-0.92 0.13-0.26 0.22-0.66 0.16-1.29-0.04 0.24-0.11 0.57-0.29 0.89-0.24 0.44-0.47 0.51-0.71 0.89-0.15 0.23-0.32 0.61-0.39 1.23-0.24 0.15-0.44 0.19-0.57 0.2-0.36 0.02-0.49-0.15-0.88-0.11-0.3 0.03-0.3 0.15-0.48 0.13-0.3-0.03-0.43-0.35-0.89-1.01-0.42-0.61-0.8-1.04-0.96-1.23-0.28-0.32-0.35-0.38-0.72-0.81-0.33-0.39-0.5-0.58-0.6-0.74-0.34-0.52-0.48-1.04-0.65-1.69-0.1-0.38-0.21-0.88-0.33-1.7-0.12-0.9-0.28-2.03-0.22-3.45 0.04-1.04 0.14-0.79 0.27-2.46 0.13-1.56 0.12-2.7 0.11-3.09-0.02-1.05-0.09-1.83-0.11-2.09-0.17-1.81-0.25-2.72-0.68-3.47-0.41-0.72-0.61-0.45-1.28-1.38-0.44-0.61-0.68-1.2-1.14-2.35-0.45-1.11-0.39-1.15-0.87-2.39-0.49-1.23-0.73-1.85-1.09-2.42-0.39-0.63-0.64-0.83-1.09-1.68-0.4-0.75-0.48-1.13-0.52-1.34-0.13-0.72-0.02-1.34 0.04-1.66 0.04-0.22 0.04-0.12 0.38-1.31 0.22-0.76 0.3-1.09 0.36-1.31 0.09-0.38 0.16-0.7 0.21-0.91 0.05 0.25 0.14 0.62 0.34 0.99 0.28 0.51 0.53 0.58 1.27 1.3 0.7 0.69 0.81 0.95 0.86 1.08 0.19 0.55 0.12 1.14 0.04 1.49 0.15-0.36 0.31-0.89 0.2-1.43-0.07-0.36-0.22-0.51-0.93-1.4-0.76-0.96-0.88-1.15-0.99-1.38-0.26-0.53-0.38-1.02-0.46-1.4-0.28-1.22-0.07-1.57-0.33-2.37-0.16-0.51-0.26-0.42-0.97-1.49-0.71-1.09-1.07-1.64-1.24-2.4-0.12-0.55-0.2-1.35-0.12-2.14 0.03-0.27 0.09-0.71 0.11-1.38 0.01-0.41 0-0.71 0-0.82-0.03-1.06 0.1-2.44 0.15-3.04 0.2-2.28 0.87-3.38 1.4-6.64 0.27-1.63 0.13-1.51 0.51-4.08 0.34-2.25 0.51-3.38 0.71-3.97 0.41-1.16 1.02-2.23 0.9-3.41-0.01-0.14-0.05-0.41 0.02-0.73 0.15-0.65 0.62-0.85 0.98-1.23 0.47-0.51 0.56-1.14 0.84-2.25 0.28-1.15 0.88-3.54 1.96-5.44 0.6-1.05 1.2-1.7 1.63-2.09 0.71-0.64 1.62-1.46 2.5-1.12 0.65 0.25 0.65 0.88 1.52 1.57 0.71 0.56 1.22 0.54 1.9 0.75 0.25 0.07 2.65 0.82 4.14 3.5 0.85 1.52 1.08 3.09 1.14 3.65 0.19 1.55-0.01 2.78-0.05 3.06-0.1 0.57-0.19 0.81-0.44 1.79-0.29 1.13-0.48 2.07-0.6 2.68 0.11-0.76 0.39-2.07 1.2-3.2 0.4-0.56 0.83-1.17 1.47-1.27 0.58-0.09 0.77 0.33 2.34 1.42 1.29 0.89 1.4 0.78 1.74 1.27 0.54 0.78 0.7 1.74 0.9 2.91 0.25 1.47 0.06 1.54 0.24 2.39 0.22 1.01 0.68 1.72 2.39 3.65 1.56 1.75 1.65 1.69 2.39 2.57 0.82 0.97 0.93 1.31 2.94 4.58 0.87 1.41 3.07 4.99 3.21 4.84 0.03-0.03-0.06-0.19-0.16-0.6-0.06-0.24-0.37-1.47-0.05-2.16 0.21-0.47 0.58-0.43 1.36-0.75 0 0 0.48-0.19 1.85-1.12s1.43-1.88 3.48-4.4c1.16-1.42 1.76-2.14 2.5-2.39 0.82-0.27 1.2 0.02 2.61-0.3 1.35-0.3 1.29-0.63 1.85-0.6 1.35 0.09 2.34 2.03 3.86 5.07 1.47 2.94 1.27 3.34 1.96 3.8 0.41 0.28 0.77 0.33 5.17-0.3 0.81-0.12 1.14-0.17 1.59-0.26 1.81-0.36 2.72-0.54 3.36-1.01 1.27-0.94 0.85-2.01 2.39-4.1 0.24-0.33 0.36-0.44 3.16-2.91 2.23-1.96 2.69-2.36 3.16-3.28 0.67-1.31 0.86-2.71 0.93-3.65-0.14 2.65-0.79 3.79-1.35 4.34-0.85 0.83-1.5 0.31-2.89 1.32-0.9 0.66-0.72 0.95-2.07 2.24-1.46 1.4-1.76 1.16-2.45 2.16-0.92 1.34-0.53 2.02-1.31 3.06-0.73 0.97-1.79 1.12-3.92 1.42-1.46 0.2-2.49 0.1-3.54 0-1.03-0.1-1.56-0.16-1.96-0.45-0.84-0.6-0.89-1.42-2.01-3.8-0.82-1.73-1.22-2.59-2.01-3.43-0.46-0.49-1.55-1.64-2.83-1.42-0.71 0.12-0.65 0.52-1.58 0.89-1.49 0.6-2.03-0.28-3.21 0.37-0.5 0.28-0.84 0.73-1.52 1.64-1.05 1.4-0.94 1.83-1.85 3.13-0.75 1.06-1.49 2.11-2.67 2.65-0.75 0.34-1.32 0.31-1.9 1.04-0.4 0.5-0.6 1.1-0.71 1.53-0.33-0.58-0.81-1.41-1.41-2.39-1.17-1.9-2.35-3.8-3.89-5.66-2.49-3.01-2.89-2.22-3.56-3.91-0.3-0.75-0.7-2.45-1.5-5.85-0.18-0.79-0.36-1.54-0.87-2.16-0.56-0.67-0.87-0.4-2.15-1.12-1.23-0.69-1.59-1.29-2.23-1.08-0.41 0.14-0.7 0.53-0.87 0.82 0.06-0.41 0.13-0.99 0.16-1.68 0.04-0.76 0.09-1.74-0.05-2.68-0.26-1.71-1.1-2.8-1.58-3.43-0.4-0.53-0.23-0.16-2.48-2.12-1.12-0.98-1.6-1.45-2.31-1.38-0.37 0.04-0.55 0.2-0.9 0.07-0.56-0.21-1.01-0.95-1.14-1.75-0.19-1.14 0.33-2.09 0.46-2.31 0.63-1.07 1.28-0.62 1.82-1.64 0.47-0.87 0.19-1.58 0.73-2.24 0.07-0.09 0.27-0.32 1.12-0.56 1.71-0.49 2.31 0.03 2.86-0.67 0.36-0.45 0.26-0.86 0.73-1.3 0.46-0.42 0.96-0.41 1.03-0.41 0.73 0.03 0.84 0.7 1.69 1.08 0.46 0.21 0.94 0.15 1.9 0.04 1.13-0.13 1.52-0.44 1.69-0.6 0.29-0.26 0.48-0.56 0.6-0.78-0.28 0.23-0.69 0.52-1.22 0.75-0.85 0.36-1.51 0.33-2.12 0.3-0.95-0.04-1.22-0.28-1.39-0.52-0.14-0.21-0.21-0.43-0.24-0.6 0.44-0.08 0.71-0.3 0.87-0.48 0.21-0.23 0.19-0.35 0.4-0.52 0.18-0.15 0.39-0.21 0.8-0.33 0.15-0.04 0.22-0.07 0.27-0.07 0.56-0.09 0.78 0.29 1.33 0.22 0.09-0.01 0.19-0.02 0.3-0.07 0.6-0.29 0.77-1.45 0.82-1.79-0.32 0.95-0.68 1.27-0.95 1.38-0.21 0.09-0.26 0.01-0.99 0.02-0.63 0.01-0.94 0.01-1.14 0.13-0.22 0.13-0.59 0.44-0.86 0.76-0.03 0.04-0.18 0.22-0.39 0.32-0.08 0.04-0.17 0.08-0.29 0.06-0.19-0.03-0.31-0.21-0.35-0.28 0.13-0.22 0.46-0.79 0.68-1.29 0.04-0.09 0.09-0.2 0.14-0.35 0.04-0.12 0.13-0.4 0.14-0.69 0.02-0.48-0.2-0.61-0.18-0.93 0.02-0.21 0.13-0.49 0.58-0.78-0.57 0.05-0.74 0.23-0.79 0.41-0.05 0.19 0.05 0.34 0.12 0.8 0.03 0.18 0.08 0.52 0.04 0.89-0.04 0.42-0.23 1.23-0.64 1.43-0.09 0.05-0.24 0.09-0.31 0.26-0.06 0.14 0 0.21-0.04 0.34-0.07 0.24-0.35 0.19-0.99 0.43-0.12 0.05-0.21 0.08-0.39 0.15-0.25 0.08-0.35 0.1-0.42 0.13-0.36 0.13-0.46 0.55-0.75 0.9-0.19 0.24-0.52 0.35-1.16 0.58-0.82 0.29-1.24 0.43-1.55 0.17-0.23-0.19-0.45-0.58-0.44-0.97 0.02-0.43 0.31-0.45 0.52-1.1 0.03-0.08 0.04-0.12 0.19-1.21 0.11-0.8 0.12-0.85 0.16-0.97 0.06-0.17 0.18-0.39 0.72-0.89 0.24-0.22 0.57-0.5 0.98-0.78-0.48 0.23-0.85 0.51-1.09 0.73-0.54 0.48-0.91 0.81-1.02 1.4-0.1 0.51 0.1 0.72-0.05 1.21-0.15 0.46-0.35 0.36-0.54 0.86-0.25 0.63-0.17 1.4-0.15 1.58 0.04 0.38 0.1 0.4 0.07 0.58-0.09 0.49-0.58 0.46-1.06 0.96-0.45 0.47-0.28 0.76-0.88 1.76-0.29 0.49-0.58 0.98-1.08 1.29-0.52 0.32-0.99 0.28-1.33 0.25-0.82-0.08-1.4-0.48-1.8-0.75-3.17-2.18-3.44-2.12-3.75-2.93-0.48-1.23-0.37-2.64-0.37-2.71 0.05-0.57 0.13-0.56 0.27-1.4 0.26-1.65-0.03-1.99 0.22-2.99 0.12-0.47 0.43-0.98 1.06-2.01 0.86-1.41 0.99-1.3 1.2-1.93 0.42-1.21 0.03-1.82 0.47-2.63 0.34-0.62 0.86-0.79 1.55-1.01 1.38-0.44 1.84 0.18 2.8-0.43 0.18-0.12 0.73-0.48 1.12-1.3 0.56-1.21 0.36-2.54 0.3-2.87 0.48-2.12 0.96-3.83 1.33-5.07 0.38-1.26 0.58-1.9 0.88-2.57 0.74-1.65 1.24-1.88 1.8-3.35 0.54-1.44 0.19-1.55 0.65-2.74 0.24-0.62 0.49-0.98 2.9-3.63 1.13-1.24 1.55-1.69 1.88-2.63 0.18-0.5 0.13-0.58 0.41-2.18 0.26-1.49 0.49-2.5 0.86-4.08 0.42-1.84 0.64-2.77 0.86-3.07 0.76-1.06 1.41-0.5 2.49-1.73 0.7-0.8 0.67-1.32 1.31-1.79 0.7-0.51 1.46-0.43 2-0.28-1.32-0.63-1.91-0.41-2.2-0.06-0.19 0.23-0.21 0.47-0.56 0.84-0.3 0.32-0.31 0.18-1.02 0.71-0.28 0.21-0.52 0.41-0.71 0.28-0.05-0.04-0.09-0.09-0.11-0.13-0.69-0.85-0.83-1.52-0.82-1.98 0.01-0.45 0.16-0.53 0.18-1.12 0.03-0.83-0.23-1.52-0.37-1.9-0.27-0.73-0.44-0.74-0.49-1.23-0.06-0.52 0.07-0.99 0.16-1.3 0.13-0.44 0.29-0.77 0.41-0.97-0.18 0.17-0.46 0.48-0.65 1.01-0.06 0.17-0.38 1.01-0.16 1.83 0.12 0.44 0.26 0.39 0.46 1.01 0.16 0.48 0.2 0.92 0.22 1.16 0.03 0.46-0.04 0.5-0.05 1.3-0.01 0.56-0.02 0.84 0.03 1.08 0.13 0.72 0.45 0.79 0.44 1.27 0 0.16-0.04 0.25-0.46 1.04-0.45 0.85-0.48 0.88-0.57 1.08-0.19 0.42-0.19 0.6-0.41 1.51-0.19 0.79-0.36 1.47-0.63 2.24-0.25 0.67-0.29 0.61-0.61 1.48-0.24 0.65-0.39 1.05-0.51 1.59-0.24 1.1-0.04 1.29-0.24 1.93-0.25 0.78-0.66 0.84-1.35 1.65-0.77 0.92-0.53 1.18-1.29 2.24-1.14 1.6-2.05 1.49-2.36 2.8-0.15 0.61 0.05 0.65-0.11 1.57-0.14 0.84-0.41 1.4-0.98 2.53-0.66 1.32-0.92 1.78-1.14 2.24-0.78 1.56-1.47 2.94-1.69 4.77-0.17 1.46 0.07 2.17-0.35 3.84-0.19 0.74-0.39 1.18-0.65 1.53-0.16 0.21-0.97 1.21-1.88 0.82-0.06-0.02-0.74-0.33-0.95-1.16-0.17-0.65 0.12-0.96 0.27-2.09 0.18-1.35-0.14-1.51 0.03-3.35 0.09-1.03 0.25-1.53 0.52-1.9 0.23-0.32 0.5-0.48 0.68-0.56-0.71 0.04-1.04 0.48-1.14 0.63-0.31 0.46-0.35 1.05-0.41 2.01-0.06 0.99 0.06 0.91 0 1.64-0.06 0.72-0.18 0.76-0.6 2.61-0.15 0.65-0.16 0.77-0.27 1.16-0.1 0.34-0.27 0.97-0.54 1.53-0.63 1.31-1.26 1.21-1.47 2.16-0.13 0.59 0.11 0.66 0.05 1.42-0.08 1.1-0.62 1.38-1.41 3.02-0.53 1.09-0.82 2.06-0.95 2.5-0.45 1.51-0.31 1.77-0.65 2.61-0.19 0.47-0.39 0.77-1.82 2.27-2.05 2.17-2.38 2.33-2.75 2.42-0.22 0.05-1.47 0.35-2.15-0.6-0.4-0.55-0.28-1.06-0.65-3.02-0.09-0.46-0.05-0.22-0.6-2.5-0.77-3.22-0.74-3.3-0.98-3.88-0.5-1.22-0.81-1.96-1.44-2.57-0.29-0.28-0.73-0.6-1.01-1.34-0.06-0.15-0.2-0.54-0.22-1.04-0.03-0.95 0.41-1.47 0.87-2.53 0.55-1.28 0.27-1.36 0.79-2.68 0.29-0.74 0.54-1.13 1.69-2.87 1.78-2.7 1.72-2.6 1.77-2.68 1.34-2.46 1.08-3.73 2.18-4.58 0.75-0.58 0.94-0.05 1.96-0.73 1.32-0.88 1.97-2.43 2.12-2.8 0.44-1.1 0.55-2.16 0.65-3.07 0.16-1.46 0.02-2.03 0.33-2.96 0.3-0.89 0.79-1.46 1.14-1.79-0.29 0.09-0.73 0.29-1.06 0.81-0.22 0.35-0.29 0.66-0.53 1.96-0.35 1.86-0.34 1.87-0.43 2.24-0.15 0.65-0.32 1.37-0.67 2.24-0.3 0.73-0.6 1.23-0.73 1.45-0.37 0.59-0.61 0.98-1.02 1.26-0.42 0.29-0.6 0.18-1.16 0.39-0.34 0.13-0.82 0.38-1.37 0.92 0-0.49 0.01-1.15 0.08-1.93 0.07-0.79 0.17-1.83 0.55-2.99 0.22-0.69 0.51-1.3 0.84-2.01 0.37-0.8 0.61-1.21 0.63-1.87 0.02-0.52-0.1-0.95-0.2-1.23 0.01 0.28 0.01 0.72-0.08 1.23-0.08 0.45-0.19 0.77-0.78 2.12-0.46 1.08-0.54 1.23-0.67 1.65-0.17 0.54-0.25 0.96-0.35 1.43-0.17 0.86-0.16 1.11-0.39 2.68-0.1 0.71-0.16 1.07-0.24 1.51-0.1 0.51-0.22 1.07-0.43 1.68-0.26 0.73-0.54 1.21-0.86 1.73-0.73 1.2-1.49 1.99-1.73 2.24-0.41 0.41-0.59 0.52-0.96 0.98-0.39 0.48-0.67 0.95-0.85 1.28-0.1-0.31-0.24-0.79-0.33-1.4-0.11-0.79-0.03-0.95-0.12-1.77-0.07-0.62-0.16-1.35-0.52-2.07-0.2-0.41-0.42-0.67-0.78-1.1-0.31-0.37-0.57-0.62-0.79-0.84-1.54-1.47-1.7-1.35-1.92-1.86-0.29-0.68-0.22-1.43-0.14-2.37 0.09-0.96 0.33-1.72 0.48-2.18 0.15-0.47 0.3-0.85 0.42-1.12-0.02-0.68-0.07-1.73-0.26-2.98-0.23-1.56-0.39-1.62-0.41-2.4-0.04-1.72 0.69-3.09 1.31-4.25 0.49-0.92 0.94-1.5 1.67-2.46 1.59-2.07 2.07-2.13 2.29-3.13 0.26-1.2-0.37-1.36-0.41-3.47-0.03-1.73 0.39-2.09 0.41-4.58 0.01-1.48-0.13-1.95-0.24-2.24-0.43-1.06-0.96-0.78-1.47-1.84-0.56-1.17-0.34-2.41-0.94-2.74-0.19-0.11-0.27 0-0.41-0.11-0.31-0.25-0.42-1.19 0.08-3.75-0.07 0.09-1.05 1.41-0.82 3.02 0.05 0.34 0.14 1 0.53 1.45 0.29 0.34 0.52 0.3 0.67 0.67 0.18 0.42-0.04 0.67 0.06 1.23 0.09 0.46 0.37 0.78 0.94 1.43 0.53 0.6 0.63 0.57 0.84 0.95 0.11 0.21 0.35 0.72 0.37 1.4 0.02 0.78-0.26 0.91-0.37 2.01-0.05 0.55 0.02 0.48-0.02 1.29-0.06 1.1-0.2 1.24-0.2 2.01-0.01 0.85 0.16 0.84 0.18 1.68 0.01 0.36 0.03 1.38-0.37 2.26-0.37 0.83-0.75 0.7-1.47 1.65-0.28 0.36-0.31 0.5-1.02 1.93-1.27 2.56-1.28 2.38-1.49 3.02-0.2 0.61-0.57 1.77-0.51 3.24 0.03 0.77 0.15 0.85 0.33 2.63 0.12 1.2 0.11 1.62 0.04 2.07-0.08 0.52-0.2 1.33-0.71 1.79-0.04 0.03-0.47 0.41-1 0.31-0.31-0.06-0.33-0.22-0.73-0.31-0.35-0.08-0.37 0.03-0.8-0.03-0.47-0.07-0.63-0.22-0.73-0.08-0.12 0.16 0.06 0.43-0.02 0.87-0.07 0.4-0.28 0.49-0.63 1.01-0.23 0.34-0.12 0.27-0.57 1.12-0.36 0.66-0.5 0.85-0.76 1.43-0.14 0.33-0.13 0.35-0.22 0.56-0.43 0.97-0.87 0.89-1.39 1.73-0.12 0.2-0.62 1-0.61 2.04 0 0.49 0.11 0.54 0.08 1.01-0.05 0.66-0.32 1.14-0.63 1.68-0.34 0.59-0.47 0.62-0.78 1.12-0.35 0.58-0.56 1.15-0.67 1.57 0.09-0.05 0.22-0.13 0.37-0.25 0.56-0.47 0.76-1.04 1.14-1.79 0.8-1.58 1.22-1.62 1.2-2.32-0.02-0.62-0.36-0.78-0.31-1.37 0.04-0.45 0.27-0.65 0.82-1.34 0.8-1 1.19-1.51 1.43-2.07 0.31-0.74 0.27-1.13 0.69-1.71 0.09-0.12 0.05-0.05 0.63-0.7 0.62-0.69 0.8-0.92 0.82-1.26s-0.13-0.49-0.06-0.61c0.13-0.22 0.55 0.32 1.33 0.36 0.18 0.01 0.46-0.01 0.8 0.2 0.12 0.07 0.18 0.11 0.22 0.17 0.29 0.37 0 1.1 0.04 2.04 0 0.08 0.05 0.89 0.37 1.54 0.37 0.73 0.78 0.61 1.75 1.31 0.6 0.43 1.51 1.09 1.92 2.35 0.13 0.4 0.03 0.29 0.24 1.62 0.28 1.68 0.46 1.93 0.59 3.16 0.1 0.93 0.15 1.39 0.06 1.93-0.18 1.06-0.57 1.01-0.96 2.46-0.14 0.53-0.27 1.22-0.27 2.04 0 0.31 0 0.46 0.04 0.67 0.12 0.69 0.46 1 1.15 1.84 0.62 0.75 0.93 1.13 1.22 1.66 0.3 0.54 0.47 1.01 0.64 1.47 0.22 0.61 0.38 1.23 0.68 2.46 0.25 1.03 0.39 1.56 0.53 2.33 0.13 0.68 0.17 1.05 0.27 1.76 0.19 1.48 0.13 1.75 0.02 1.93-0.12 0.19-0.38 0.26-0.92 0.42-0.38 0.11-0.7 0.17-0.9 0.2-0.84 0.13-0.96 0.02-1.31 0.17-0.39 0.17-0.61 0.47-0.9 0.81-0.83 0.98-0.87 0.67-2.2 2.01-0.84 0.84-1.26 1.27-1.69 2.04-0.34 0.6-0.67 1.2-0.76 2.07-0.06 0.59 0.04 0.75-0.04 1.54-0.08 0.69-0.13 1.23-0.43 1.65-0.26 0.37-0.59 0.47-1.24 0.67-0.49 0.15-0.63 0.11-1.16 0.22-0.87 0.18-0.77 0.34-1.53 0.5-1.17 0.25-1.37-0.14-2 0.14-0.09 0.04-0.32 0.15-0.49 0-0.13-0.11-0.13-0.29-0.2-0.5-0.1-0.3-0.26-0.41-0.88-0.89-0.53-0.41-0.79-0.62-0.84-0.67-0.2-0.25-0.44-0.69-0.53-1.54-0.07 0.78 0.07 1.2 0.21 1.43 0.18 0.3 0.31 0.22 0.64 0.65 0.29 0.39 0.27 0.56 0.57 0.91 0.29 0.34 0.43 0.32 0.45 0.48 0.03 0.3-0.41 0.54-1.14 1.17-0.61 0.53-0.37 0.42-1.48 1.47-0.32 0.3-0.58 0.54-0.86 0.99-0.08 0.13-0.25 0.42-0.42 0.86-0.6 1.28-1 3.93-0.89 3.96z"/> <path d="m106.22 716.1c1.05 0.55 1.94 0.76 2.54 0.84 1.09 0.16 2.6 0.11 4.05 0.07 0.64-0.02 0.93-0.04 1.32 0.11 0.96 0.35 1.49 1.28 1.77 1.95-0.18-0.18-0.43-0.42-0.77-0.67-0.51-0.38-1.02-0.76-1.7-0.87-0.66-0.11-0.84 0.14-1.82 0.18-0.65 0.02-1.18-0.07-1.51-0.14 0.05 0.39 0.17 0.97 0.45 1.62 0.39 0.88 0.82 1.27 1.29 1.93 0.53 0.74 0.57 1.06 1.35 2.94 0 0 0.74 1.76 1.54 3.42 0.92 1.91 1.83 3.78 3.57 5.67 1.17 1.28 2.34 2.15 3.06 2.64 1.24 0.84 1.78 0.97 4.05 2.28 1.72 0.99 2.58 1.48 2.97 1.82 1.85 1.61 1.8 2.81 3.99 4.57 0.52 0.42 0.73 0.51 1.02 0.9 0.91 1.23 0.45 2.43 0.61 4.04 0.12 1.2 0.92 2.56 2.53 5.3 1.17 1.98 1.75 2.97 2.38 3.5 1.15 0.95 2.28 1.26 3.01 2.68 0.24 0.46 0.15 0.48 0.47 1.44 0.68 2.01 1.12 3.3 2.17 4.12 0.98 0.76 1.87 0.62 3.35 1.54 0.26 0.16 0.68 0.44 1.1 0.9 0.3 0.32 0.5 0.62 0.63 0.84-0.82-0.8-1.62-1.28-2.29-1.58-0.95-0.42-1.31-0.34-2.18-0.8-0.41-0.22-1.4-0.74-2.08-1.77-0.74-1.11-0.34-1.64-1.23-3.36-0.37-0.72-0.75-1.21-0.85-1.35-0.73-0.95-1.32-1.29-2-1.91-0.64-0.58-1.09-1.25-1.99-2.59-1.04-1.55-1.65-2.77-2.42-4.33-1.59-3.21-1.67-4.11-1.4-4.73 0.07-0.16 0.23-0.46 0.17-0.83-0.09-0.57-0.59-0.83-1.24-1.38-0.38-0.32-0.78-0.82-1.59-1.8-0.9-1.1-0.82-1.21-1.43-1.91-0.96-1.13-1.96-1.77-2.41-2.05-1.43-0.91-1.89-0.7-3.42-1.46-1.27-0.62-2.03-1.28-3.51-2.58-0.96-0.84-2.24-1.96-3.55-3.71-1.67-2.22-2.56-4.35-2.99-5.39-0.79-1.91-0.66-2.24-1.41-3.48-0.64-1.06-1.26-1.69-1.9-3.11-0.33-0.74-0.53-1.38-0.64-1.81-0.39-0.11-0.86-0.27-1.36-0.52-0.76-0.37-1.32-0.81-1.7-1.17z"/> <path d="m280.54 810.37c2.47-2.24 4.67-2.99 6.26-3.24 1.77-0.28 2.58 0.08 5.59-0.45 2.46-0.43 3.54-0.95 4.36-1.57 0.72-0.54 0.71-0.74 1.68-1.45 1.3-0.96 1.92-1.01 3.13-1.79 1.14-0.73 0.86-0.85 2.46-2.12 1.17-0.93 2.56-2.02 4.58-2.68 0.21-0.07 0.93-0.3 1.9-0.45 2.6-0.4 3.73 0.28 7.27 0.56 2.13 0.17 3.19 0.26 4.36-0.11 1.76-0.55 1.6-1.27 3.91-2.68 1.63-1 3.66-1.56 7.71-2.68 0.35-0.1 0.82-0.22 1.45-0.22 1.56 0 2.49 0.78 3.58 1.34 2.05 1.06 2.09 0.01 5.7 1.12 1.29 0.4 1.86 0.7 4.58 1.57 0.61 0.19 1.12 0.35 1.45 0.45-1.45-1.16-2.78-1.78-3.69-2.12-1.22-0.46-1.17-0.22-3.75-0.95-0.42-0.12-1.21-0.35-2.29-0.39-0.6-0.02-0.54 0.04-0.84 0-1.27-0.17-1.42-1.17-2.74-1.62-0.49-0.17-0.96-0.17-1.9-0.17-0.16 0-1.01 0-1.96 0.17-1.44 0.25-1.96 0.69-3.63 1.34-2.92 1.13-3.75 0.74-4.92 1.9-0.65 0.65-0.53 0.91-1.23 1.45-1.19 0.92-2.58 0.98-3.41 1.01-0.55 0.02-0.85-0.03-3.86-0.61-2.67-0.52-2.6-0.52-2.91-0.56-0.91-0.1-2.11-0.07-4.47 0-2 0.06-2.17 0.1-2.4 0.22-1.15 0.6-0.94 1.54-2.4 2.85-0.57 0.51-1.12 0.82-2.12 1.4-1.14 0.65-1.28 0.59-2.12 1.12-1.13 0.72-1.15 1-2.18 1.68-0.8 0.53-1.11 0.56-2.57 1.23-2.05 0.94-2.18 1.2-3.19 1.62-2.11 0.88-3.33 0.46-5.03 0.73-1.6 0.21-3.85 1.1-6.36 4.1z"/> <path d="m196.58 584.53c0.71-0.78 1.15-1.51 1.42-2.01 0.92-1.73 1.14-3.41 1.27-4.4 0.09-0.75 0.07-1.01 0.22-2.01 0.08-0.53 0.18-1.06 0.44-2.23 0.43-1.94 0.47-1.87 0.61-2.62 0.38-1.99 0.06-2.19 0.45-4.17s0.85-2.49 1.04-2.68c0.64-0.63 1.04-0.41 1.86-1.04 0.8-0.61 0.83-1.12 1.79-2.76 0.95-1.62 1.43-2.43 2.09-2.83 1.28-0.78 2.02 0.01 3.65-0.6 1.09-0.41 1.79-1.25 3.13-2.91 2-2.47 1.79-3.15 3.13-4.32 0.6-0.52 1.09-0.78 4.17-1.94 6.24-2.34 5.77-1.85 6.71-2.46 1.53-1 2.94-2.41 5.66-3.8 0.09-0.05 0.25-0.13 0.47-0.23 2.17-1.05 4-1.49 4.97-1.71 3.15-0.69 5.92-0.85 9.17-1.42 5.07-0.88 4.65-1.6 9.24-2.24 4.55-0.63 7.25-0.23 8.2-0.07 2.25 0.38 4.06 1.03 5.29 1.57-1.36-0.88-3.61-2.09-6.56-2.53-2.8-0.42-5.16 0.06-9.76 1.04-4.72 1.01-4.69 1.45-8.05 1.94-4.51 0.66-4.5-0.15-7.68 0.67-3.81 0.98-7.16 2.99-7.75 3.35-1.01 0.62-1.29 0.87-2.61 1.64-0.84 0.49-2.78 1.61-5.29 2.61-4.3 1.72-5.21 1.06-6.86 2.61-0.49 0.46-1.1 1.35-2.31 3.13-1.79 2.63-1.77 3.09-2.68 3.65-1.14 0.7-1.49 0.16-4.1 1.12-1.8 0.66-2.25 1.14-2.46 1.42-0.54 0.69-0.33 1.01-1.04 2.31-0.25 0.46-0.7 1.26-1.49 2.01-0.86 0.81-1.31 0.78-1.86 1.27-0.94 0.81-0.85 1.91-1.12 4.62-0.33 3.29-0.58 2.72-0.97 6.63-0.26 2.58-0.14 2.72-0.37 3.95-0.46 2.39-1.34 4.24-2.02 5.44z"/> <path class="st4" d="m261.99 509.47c3.13 0.8 5.32 2 6.74 2.93 2.92 1.92 3.3 3.22 7.47 6.55 1.22 0.97 2.58 1.9 5.29 3.74 4.12 2.81 6.22 4.22 7.98 4.87 1.62 0.59 4.22 1.27 7.78 1.05-1.64 2.93-3.55 3.99-4.57 4.41-4.15 1.73-8.83-0.62-13.06-2.75-4.09-2.05-3.8-2.84-7.17-4.1-4.6-1.73-5.81-0.52-8.89-2.22-2.6-1.44-6.47-4.91-5.85-8.98 0.5-3.21 3.52-5.06 4.28-5.5z"/> <path class="st4" d="m259.81 462.84c-1.78 2.46-2.49 4.61-2.81 6.15-0.3 1.46-0.15 1.87-0.57 4.36-0.43 2.59-0.8 3.35-1.19 5.34-0.29 1.47-0.59 3.66-0.52 6.45-1.53-0.23-3.06-0.46-4.6-0.68-1.17-2.34-2.81-6.58-2.19-11.74 0.32-2.67 0.7-5.88 3.39-8.1 3.34-2.77 7.74-1.94 8.49-1.78z"/> <path class="st4" d="m385.63 438.66c1.68 1.99 3.28 3.45 4.48 4.44 2.31 1.92 3.47 2.88 5.14 3.35 2.71 0.77 3.66-0.36 5.37 0.78 0.4 0.27 0.18 0.22 3.09 3.28 0.44 0.47 1.27 1.31 2.42 1.35 0.21 0.01 0.39-0.01 0.51-0.03 0.22 0.92 0.97 4.47-1.06 7.55-1.97 2.99-5.31 3.63-7.75 4.1-1.7 0.33-10.11 1.94-14.09-2.98-3.03-3.75-1.8-9.21-0.6-14.61 0.69-3.07 1.68-5.53 2.49-7.23z"/> <path class="st10" d="m457.15 408.7c0.1-1.25 1.26-2.03 2.39-2.83 5.34-3.78 8.29-6.72 11.11-6.93 1.24-0.09 2.24 0.22 2.24 0.22 0.44 0.14 0.91 0.42 1.86 0.97 1.41 0.82 1.66 1.1 1.79 1.27 0.38 0.49 0.52 0.97 0.67 1.49 0.06 0.21 0.43 1.51 0.22 2.61-0.32 1.73-1.98 2.73-3.5 3.65-1.26 0.76-2.64 1.21-5.37 2.09-3.89 1.25-4.89 1.33-5.59 1.34-1.32 0.02-2.91 0.03-4.25-1.04-0.21-0.17-1.69-1.35-1.57-2.84z"/> <path class="st10" d="m462.07 419.66c0.02-0.79 0.46-1.47 1.34-2.83 0.48-0.74 1.41-2.06 3.5-3.95 1.35-1.22 2.55-2.31 4.42-3.37 2.46-1.41 4.67-2.67 7.04-2.07 0.65 0.16 1.72 1 3.86 2.68 2.62 2.06 3.17 2.9 3.41 3.8 0.09 0.35 0.12 1 0.17 2.29 0.08 2.09-0.09 2.76 0.45 3.47 0.45 0.59 0.91 0.57 1.06 1.12 0.2 0.72-0.41 1.47-0.67 1.79-1.03 1.24-2.44 1.76-4.47 2.35-2.25 0.65-3.73 1.08-6.15 1.45-2.64 0.41-4 0.6-5.59 0.28-1.82-0.37-3.08-1.14-3.86-1.62-1.48-0.93-4.59-2.87-4.51-5.39z"/> <path class="st10" d="m459.62 524.97c0.32-1.28 0.99-1.49 3.86-4.42 2.39-2.44 2.2-2.59 3.41-3.52 0.45-0.35 2.18-1.64 4.86-2.52 2.45-0.8 4.67-1.53 6.65-0.45 1.23 0.67 1.86 1.76 2.24 2.4 0.77 1.33 0.42 1.7 1.34 5.53 0.37 1.55 0.55 2.02 0.5 2.96-0.06 1.17-0.43 2.06-0.78 2.91-0.44 1.05-0.93 2.21-1.73 3.02-1.25 1.25-2.39 0.78-6.26 1.45-4.24 0.74-4.81 1.65-7.21 1.23-2.07-0.36-3.43-1.34-3.8-1.62-0.5-0.38-1.64-1.26-2.4-2.85-0.32-0.63-1.13-2.32-0.68-4.12z"/> <path class="st10" d="m468.37 453.55c0.35-2.43 1.58-4.04 2.18-4.81 1.3-1.66 2.73-2.51 3.8-3.13 1.78-1.03 3.49-1.45 6.85-2.24 4.61-1.09 5.76-0.84 6.62-0.44 0.51 0.24 1.87 0.87 2.24 2.12 0.42 1.44-0.89 2.19-0.78 4.42 0.08 1.52 0.7 1.47 0.61 2.74-0.07 1.07-0.53 1.22-1.9 4.08-0.75 1.57-0.88 2.07-0.95 2.46-0.15 0.86-0.13 1.7-0.11 2.52 0.04 1.5 0.21 1.84-0.06 2.4-0.1 0.22-0.43 0.8-1.57 1.29-2.19 0.94-4.62 0.36-6.48-0.11-0.77-0.19-3.17-0.84-5.93-2.52-1.54-0.94-2.32-1.41-3.02-2.29-2.06-2.61-1.59-5.89-1.5-6.49z"/> <path class="st10" d="m465.12 489.22c0.61-1.68 1.77-2.61 2.52-3.19 1.22-0.95 1.87-0.97 4.53-2.01 3.8-1.48 4.06-2.05 6.6-2.68 2-0.5 3.03-0.74 4.3-0.32 1.43 0.47 3.13 1.74 3.64 3.51 0.29 1.03-0.01 1.56 0.56 2.46 0.62 0.97 1.31 0.9 1.68 1.73 0.32 0.74-0.09 1.1-0.34 2.74-0.11 0.73-0.35 2.35 0.11 4.08 0.4 1.52 1.01 1.87 0.78 2.46-0.36 0.93-2.24 1.01-4.14 1.06-6.02 0.17-9.03 0.26-9.78 0.17-4.01-0.5-6.45-0.8-8.5-2.74-0.46-0.43-1.5-1.45-2.01-3.13-0.15-0.49-0.65-2.2 0.05-4.14z"/> <path class="st10" d="m464.29 506.71c0.55-2.28 1.95-3.66 2.74-4.42 2.38-2.28 5.13-2.83 7.18-3.25 2.87-0.58 4.92-0.29 7.69 0.1 2.79 0.39 3.67 0.92 3.97 1.63 0.34 0.79-0.3 1.14-0.28 2.57 0.03 2.05 1.36 2.62 1.23 4.36-0.05 0.62-0.24 0.91-1.01 2.29-2.6 4.7-2.3 4.96-3.24 5.76-1.64 1.39-3.62 1.53-4.81 1.62-1.96 0.14-3.4-0.35-6.2-1.34-3.61-1.28-5.42-1.92-6.43-3.41-1.56-2.29-1.05-5.05-0.84-5.91z"/> </svg>