<?xml version='1.0' encoding='utf-8'?>
<svg xmlns:xlink="http://www.w3.org/1999/xlink" xmlns="http://www.w3.org/2000/svg" viewBox="0 0 318.9 337.89"> <defs> <linearGradient id="d"> <stop stop-color="#707070" offset="0"/> <stop offset="1"/> </linearGradient> <linearGradient id="a"> <stop stop-color="#efc9c6" offset="0"/> <stop stop-color="#d2837d" offset="1"/> </linearGradient> <linearGradient id="e"> <stop stop-color="#b87018" stop-opacity=".44706" offset="0"/> <stop stop-color="#e9bd42" stop-opacity=".22353" offset="1"/> </linearGradient> <linearGradient id="b"> <stop stop-color="#b8a718" stop-opacity=".44706" offset="0"/> <stop stop-color="#e9e742" stop-opacity=".22449" offset="1"/> </linearGradient> <linearGradient id="f"> <stop stop-color="#070001" offset="0"/> <stop stop-color="#620916" offset="1"/> </linearGradient> <linearGradient id="c"> <stop stop-color="#fefefe" offset="0"/> <stop stop-color="#fefefe" stop-opacity="0" offset="1"/> </linearGradient> <linearGradient id="ad" x1="89.084" x2="82.966" y1="139.21" y2="60.823" gradientUnits="userSpaceOnUse"> <stop stop-color="#7f1c21" offset="0"/> <stop stop-color="#b0161d" offset="1"/> </linearGradient> <linearGradient id="ag" x1="94.185" x2="115.11" y1="117.24" y2="103.72" gradientUnits="userSpaceOnUse"> <stop stop-color="#e1e899" offset="0"/> <stop stop-color="#f7fadb" offset="1"/> </linearGradient> <linearGradient id="af" x1="123.14" x2="133.85" y1="101.62" y2="103.38" gradientUnits="userSpaceOnUse"> <stop stop-color="#e2e99a" stop-opacity=".61224" offset="0"/> <stop stop-color="#e8e99a" offset=".5"/> <stop stop-color="#e5ef8b" offset="1"/> </linearGradient> <linearGradient id="ae" x1="350.63" x2="365.2" y1="233.37" y2="208.45" gradientUnits="userSpaceOnUse"> <stop stop-color="#e0bc6e" offset="0"/> <stop stop-color="#f9fbea" offset=".5"/> <stop stop-color="#e5c973" offset="1"/> </linearGradient> <linearGradient id="ah" x1="80.452" x2="83.511" y1="40.503" y2="42.511" gradientUnits="userSpaceOnUse" xlink:href="#f"/> <radialGradient id="j" cx="40.423" cy="140.84" r="18.795" gradientTransform="matrix(1.9749 -.75203 .66429 1.7445 -132.96 -72.548)" gradientUnits="userSpaceOnUse"> <stop stop-color="#c04958" offset="0"/> <stop stop-color="#be4656" stop-opacity=".7449" offset=".5"/> <stop stop-color="#bd4253" stop-opacity="0" offset="1"/> </radialGradient> <radialGradient id="h" cx="61.331" cy="96.75" r="28.271" gradientTransform="matrix(2.2848 .32065 -.13429 .9569 -65.807 -15.182)" gradientUnits="userSpaceOnUse"> <stop stop-color="#420202" offset="0"/> <stop stop-color="#420202" stop-opacity="0" offset="1"/> </radialGradient> <radialGradient id="g" cx="86.174" cy="177.76" r="34.793" gradientTransform="matrix(2.1118 -.098919 .018495 .39486 -99.084 102.66)" gradientUnits="userSpaceOnUse"> <stop offset="0"/> <stop stop-color="#380c0e" stop-opacity="0" offset="1"/> </radialGradient> <radialGradient id="k" cx="48.504" cy="65.671" r="42.887" gradientTransform="matrix(.39686 .070602 -.027778 .15614 35.796 52.887)" gradientUnits="userSpaceOnUse" xlink:href="#c"/> <radialGradient id="i" cx="62.485" cy="67.063" r="42.887" gradientTransform="matrix(1.8643 -.11188 .021426 .35702 -50.589 48.781)" gradientUnits="userSpaceOnUse" xlink:href="#c"/> <radialGradient id="ac" cx="86.065" cy="33.996" r="2.728" gradientTransform="matrix(-1.6333 -1.0613 .90885 -1.3987 195.74 172.89)" gradientUnits="userSpaceOnUse" xlink:href="#f"/> <radialGradient id="ab" cx="256.11" cy="103.76" r="8.1621" gradientTransform="matrix(.36717 .48335 -1.2258 .93119 130 -127.21)" gradientUnits="userSpaceOnUse" xlink:href="#b"/> <radialGradient id="aa" cx="259.35" cy="121.61" r="8.1621" gradientTransform="matrix(1.5839 .7224 -.31099 .8278 -272.89 -158.83)" gradientUnits="userSpaceOnUse" xlink:href="#b"/> <radialGradient id="z" cx="288.29" cy="114.64" r="8.1621" gradientTransform="matrix(1.161 0 0 2.2794 -202.87 -145.63)" gradientUnits="userSpaceOnUse" xlink:href="#b"/> <radialGradient id="y" cx="280.54" cy="120.57" r="8.1621" gradientTransform="matrix(.37261 .438 -.24567 .209 46.364 -21.875)" gradientUnits="userSpaceOnUse" xlink:href="#b"/> <radialGradient id="x" cx="294.09" cy="96.092" r="8.1621" gradientTransform="matrix(-.37705 -.35871 1.0252 -1.0777 149.55 288.6)" gradientUnits="userSpaceOnUse" xlink:href="#e"/> <radialGradient id="w" cx="251.51" cy="79.892" r="8.1621" gradientTransform="matrix(-.14894 -.58201 1.809 -.46293 29.576 296.72)" gradientUnits="userSpaceOnUse" xlink:href="#e"/> <radialGradient id="v" cx="343.6" cy="201.26" r="12.061" gradientTransform="matrix(.63016 .44623 -.57396 .81054 255.74 -100.05)" gradientUnits="userSpaceOnUse" xlink:href="#a"/> <radialGradient id="u" cx="343.6" cy="201.26" r="12.061" gradientTransform="matrix(.71592 .28928 -.37209 .92085 191.5 -63.887)" gradientUnits="userSpaceOnUse" xlink:href="#a"/> <radialGradient id="t" cx="343.6" cy="201.26" r="12.061" gradientTransform="matrix(.76138 .12856 -.16537 .97932 142.05 -17.797)" gradientUnits="userSpaceOnUse" xlink:href="#a"/> <radialGradient id="s" cx="343.6" cy="201.26" r="12.061" gradientTransform="matrix(.76869 .073054 -.093966 .98873 134.18 .36025)" gradientUnits="userSpaceOnUse" xlink:href="#a"/> <radialGradient id="r" cx="343.6" cy="201.26" r="12.061" gradientTransform="matrix(.77216 0 0 .99318 123.9 23.995)" gradientUnits="userSpaceOnUse" xlink:href="#a"/> <radialGradient id="q" cx="357.25" cy="199.25" r="12.769" gradientTransform="matrix(.77216 0 0 .94107 123.1 34.749)" gradientUnits="userSpaceOnUse" xlink:href="#a"/> <radialGradient id="p" cx="371.53" cy="194.62" r="13.558" gradientTransform="matrix(.77216 0 0 .88433 122.42 46.931)" gradientUnits="userSpaceOnUse" xlink:href="#a"/> <radialGradient id="o" cx="382.89" cy="188.12" r="13.986" gradientTransform="matrix(.76646 -.093596 .1033 .84588 104.38 89.724)" gradientUnits="userSpaceOnUse" xlink:href="#a"/> <radialGradient id="n" cx="382.89" cy="188.12" r="13.986" gradientTransform="matrix(.72195 -.27389 .30227 .79675 90.551 160.73)" gradientUnits="userSpaceOnUse" xlink:href="#a"/> <radialGradient id="m" cx="408.6" cy="160.31" r="9.7429" gradientTransform="matrix(.89052 3.4587e-7 -2.2702e-7 .5845 65.604 104.4)" gradientUnits="userSpaceOnUse" xlink:href="#d"/> <radialGradient id="l" cx="400.71" cy="167.39" r="2.2466" gradientTransform="matrix(1 0 0 .7234 1.8704e-14 46.482)" gradientUnits="userSpaceOnUse" xlink:href="#d"/> </defs> <g transform="matrix(2.277 0 0 2.277 -37.877 -62.623)" fill-rule="evenodd"> <path d="m136.55 70.28c-3.4396-4.5742-6.1547-10.645-11.394-13.245-4.9551-2.4588-9.2944-6.6803-15.267-6.7885-5.5973-0.10138-10.514 2.191-15.519 4.0325-5.3326 1.9621-10.93 2.5974-16.638 2.7936-6.4567 0.22201-12.909 0.57175-19.327 0.22815-5.8927-0.31548-11.631 1.265-16.765 4.056-4.2382 2.3043-6.7973 6.4189-9.2318 10.315-2.5422 4.0688-5.0707 8.4196-6.1607 13.106-1.2765 5.4882-3.0665 11.085-2.4504 16.826 0.65629 6.1162 1.6698 12.2 4.2987 17.863 2.1403 4.6102 12.647 25.433 16.808 30.277 3.4074 3.9671 6.1212 8.108 10.048 11.633 4.4496 3.994 10.713 3.5379 16.236 2.8593 4.879 1.6028 9.1644 4.519 14.528 5.0094 6.1784 0.56486 10.7-3.8384 16.544-3.7876 5.6436 1.222 11.011-0.14676 15.148-3.89 3.6278-3.2824 6.4272-7.5628 9.1404-11.619 2.8435-4.2506 5.5253-8.7574 7.8496-13.467 2.1634-4.3839 5.8094-8.4164 5.6682-13.744-0.23344-8.8065 1.7397-17.623 2.1632-26.499 0.28575-5.9898-1.5125-11.633-2.4838-17.376-0.5229-3.0923-1.2477-5.9925-3.1946-8.5817z" fill="url(#ad)"/> <path d="m83.268 142.23c-40.92-3.6662-32.242 15.625-28.316 19.149 4.4496 3.994 10.713 3.5379 16.236 2.8593 4.879 1.6028 9.1644 4.519 14.528 5.0094 6.1784 0.56486 10.7-3.8384 16.544-3.7876 5.6436 1.222 11.011-0.14676 15.148-3.89 3.6278-3.2824 14.309-20.918-34.139-19.34z" fill="url(#g)"/> <path d="m64.658 122.37c-6.9744-16.773-33.167-15.596-36.561-2.903-2.6289-5.6626-3.6424-11.746-4.2987-17.863-0.61602-5.741 1.1739-11.338 2.4504-16.826 1.09-4.6863 3.6185-9.037 6.1607-13.106 5.0809-1.2562 8.8592-1.1508 12.219 0.30565 5.0197 2.1761 13.184 6.5585 17.356 6.8828 3.3111 0.03752 10.127-3.0587 12.573-3.2608 2.6434-0.2185 11.148-0.49444 18.233-0.20264 5.2033 2.6968 9.0665 7.2701 12.465 11.927 6.7203 7.1362 7.3636 18.68 2.3329 26.926-3.8872 7.6829-15.497 11.126-42.93 8.1197z" fill="url(#h)"/> <path d="m99.063 54.139c4.0732-1.3335 8.4941-1.703 12.747-1.2913 4.1974 0.30265 6.644 3.8686 9.8623 5.9881 4.2784 1.9843 2.0228 6.9109-1.7779 7.7497-3.3091 1.2088-4.6649 4.6855-7.501 6.5521-2.522 2.088-6.3024 3.2282-9.2706 1.3767-4.1421-1.4197-8.2606 1.2638-12.482 0.66071-4.7817-0.0555-9.5875-0.23169-14.344 0.38023-4.2057-1.1982-7.3776 3.0345-11.481 3.0579-4.7568 0.72047-9.4651-1.0385-13.411-3.5606-3.7969-1.3623-7.3723-4.8147-11.6-4.0643-4.028 1.2904 0.8096-3.1413 1.4067-4.5933 2.332-3.2957 5.8032-6.2942 10.096-6.0979 10.669-0.47102 21.324-1.5631 32.004-1.6178 0.76448-0.00391 10.357-1.4396 15.751-4.5404z" fill="url(#i)"/> <path d="m84.093 31.073c1.751 0.49253 2.9494 1.945 4.2994 3.0641 0.9539 1.0869-0.07931 2.5738-1.1595 3.0909-1.1802 0.84373-1.9249 2.1258-2.5415 3.4048-0.76964 1.0962-1.578 2.1739-2.0897 3.4216-0.66479 1.2147-1.2235 2.5114-1.3282 3.9076-0.25341 1.5015-0.37309 2.8872-0.90619 4.2948-0.30707 1.3282-0.48726 3.8165-0.92309 5.118-0.90044 0.52409-2.4029 0.7821-3.123-0.16434-0.08032-2.3559 1.2086-6.5931 1.8216-8.8642 0.48697-1.9924 0.96931-4.011 1.9743-5.8186 0.94737-1.8339 1.9238-3.6952 2.2774-5.7519 0.38732-1.445 0.72602-2.9069 1.0012-4.3736 0.17481-0.47113 0.44695-0.89627 0.69728-1.3292z" fill="url(#ah)"/> <path d="m28.097 119.47c2.1403 4.6102 12.647 25.433 16.808 30.277 3.4074 3.9671 6.1212 8.108 10.048 11.633 10.128-6.5515 11.684-31.727 9.9812-36.777-8.7085-25.834-39.466-10.795-36.837-5.1325z" fill="url(#j)" opacity=".63731"/> <path d="m62.707 62.977c-4.5071-0.90235-9.1291-0.90798-13.663-1.6156-2.3528 0.0097-4.9133 1.0237-6.0537 3.1965-0.86731 2.1074 0.54135 4.5908 2.5764 5.3821 1.9568 1.1136 4.077 1.908 6.0216 3.0447 4.0154 1.6834 9.2988 0.25408 11.48-3.6323 1.0428-1.9906 0.75333-4.4798-0.36039-6.3754z" fill="url(#k)"/> <path d="m88.71658,34.60711c-.65245-1.02975-1.60241-1.81801-2.53903-2.57808-.46001-.55391-1.1693-.95988-1.9038-.92672-.45315.01652-.81277.40039-.88177.83501-.102.79173-.06271,1.60936.13052,2.38533 .21547.88422.78353,1.70563 1.62416,2.09342 .89882.46459 1.98508.63182 2.95722.30442 .49836-.56119.85227-1.36171.61271-2.11338z" fill="url(#ac)"/> <path d="m136.41 71.783c-2.8829-3.1349-8.2874-5.2943-11.279-2.2682-2.3906-3.8002-10.444-3.2896-13.611 0.43032-4.1364 2.1832 1.1631 9.1483-5.1844 7.6191-4.3338 1.4466-7.8604 5.1264-7.9499 9.6874-5.2821-0.52202-9.8795 6.5167-6.1604 10.706 1.7679 1.4277 0.72812 1.7792-0.70196 2.7581-2.1406 2.2573-3.9974 11.009 0.59942 14.012-2.2631 3.1807-3.2686 9.9662 1.6844 12.472-2.1038 4.4378 1.4772 10.339 6.9259 8.833 3.4572-2.2579 4.1605 5.6578 8.6364 4.1612 4.5539 1.182 9.8874-0.69742 11.669-5.0117 5.468 0.29488 10.675-0.72372 14.56-4.7226 3.1663-4.3942 4.0574-10.143 1.3268-14.996 0.01766-4.4622 3.8526-8.3941 2.5699-13.349 2.9096-5.3446 0.57823-11.138 0.15917-16.676 0.0391-4.6917-0.05886-9.8929-3.2448-13.655z" fill="url(#ag)"/> <path d="m105.36 86.111c-3.4517-2.4306-6.3652 4.5491-10.282 4.9101-3.8957 3.4466 1.7341 9.9814 4.9285 4.6498 3.4513-1.4733 9.3651-4.8346 5.6811-9.24l-0.32751-0.31996h1e-5z" fill="url(#ab)"/> <path d="m93.693 125.54c-0.11705-6.0936 7.8073 0.42989 8.2537-5.6385 3.7126-4.244 0.86942 5.8416 5.1303 3.7425 5.7167-0.04671-1.3621 8.6979 5.0617 8.7932 4.3212-2.5897 10.071 4.234 4.3183 6.8078-4.1019 0.32544-9.1457 2.5878-12.917-3.8815-3.1294-3.2209-5.5433 4.3148-8.8579-1.7454-0.94885-2.6341 0.42119-5.568-0.98883-8.078z" fill="url(#aa)"/> <path d="m113.02 93.969c-4.0402 0.02947-11.465 3.062-11.003 8.7563 1.5935 2.849 3.7864 11.51 8.082 7.4284 0.96778-2.7701 4.925-5.8084 3.8092-0.42347-1.7209 3.7683-6.7964 10.022 0.34073 11.378 6.3142 1.5019 6.973-8.4032 6.7629-12.932-0.53423-5.4245-2.2131-12.182-7.9916-14.207z" fill="url(#z)" opacity=".83938"/> <path d="m125.62 130.47c-3.5787-2.3972-3.9977-7.6553-6.3798-10.154-6.5649 2.5674 2.8755 7.1148 2.9382 11.11 0.91036 1.0438 3.6166 0.93423 3.4416-0.95601z" fill="url(#y)" opacity=".74093"/> <path d="m137.76 75.298c-10.184 5.7882-11.205 13.625-12.09 16.119-1.6815 4.7401-6.3676 18.857-5.5565 24.35 0.38827 2.6293 10.494 11.567 17.082 10.002 1.6791-3.8534 1.1062-5.3182-0.27235-10.306 0.01766-4.4622 3.8526-8.3941 2.5699-13.349 2.9096-5.3446 0.57823-11.138 0.15917-16.676 0.0391-4.6917 1.2931-6.3777-1.8928-10.14z" fill="url(#af)" opacity=".90674"/> <path d="m136.95 76.644c-5.1614 1.7386-8.7571 5.4377-8.2889 11.11-1.9059 3.4604 1.4758 4.2054 1.9793 0.36181 1.7105-4.5538 7.4286-5.1155 9.4736-8.7784-0.16655-1.4706-1.6232-2.9106-3.164-2.6935z" fill="url(#x)"/> <path d="m120.12 115.77c0.66149 2.6678 8.9179 4.549 15.506 2.9837 1.6791-3.8534 2.6822 1.7002 1.3036-3.2877 0.01766-4.4622 3.8526-8.3941 2.5699-13.349 1.4548-2.6723-1.0997 3.7422-6.5151 7.161s-13.533 3.7976-12.865 6.4923z" fill="url(#w)"/> </g> <g transform="translate(-129.16 -40.064)" fill-rule="evenodd"> <path d="m357.77 204.99c-4.3437 2.3049-6.5143 6.7132-8.7779 10.935-3.5266 6.5779-1.4597 14.304 3.843 19.672 3.9267 3.975 9.4943 3.1346 13.211-0.20051 5.4527-4.8924 8.0235-12.389 7.8579-19.28-0.09317-3.8776-1.4381-9.3808-5.3899-11.292-2.6352-1.2746-7.9898-1.2967-10.745 0.16508z" fill="url(#ae)"/> <path d="m356.18 207.59c-3.4701 1.8413-5.2042 5.3631-7.0125 8.736-2.8174 5.255-1.1662 11.427 3.0702 15.716 3.137 3.1756 7.5849 2.5042 10.554-0.16018 4.3561-3.9085 6.4099-9.8975 6.2776-15.402-0.07444-3.0978-1.1489-7.4942-4.3059-9.0212-2.1052-1.0183-6.3829-1.0359-8.5837 0.13189z" fill="#6c4343"/> <path d="m348.9 216.85c-0.89357 1.8489-2.264 6.2561 0.54765 11.438 2.2356 1.5432 5.7132 2.9513 8.5738 2.16 1.8775-0.71188-0.14917-7.4624 1.2654-10.29 1.6003-3.1987 3.6058-4.5584 7.0686-5.9662 1.6306-1.4894-2.207-5.8929-5.5131-6.6671-2.1075-1.0733-3.3765-0.24493-4.2798-0.0868-3.4044 1.2735-5.9024 5.8652-7.6626 9.4117z" fill="url(#v)"/> <path d="m352.42 222.32c-0.44719 2.8739 0.04407 9.4397 5.2164 11.458 2.5306 0.9875 6.8334 1.8687 9.4352 0.44055 1.6634-1.1247-1.862-7.2279-1.1358-10.305 0.82146-3.481 2.4604-5.2657 5.5064-7.4324 1.2442-1.8246-3.5036-5.2271-6.8991-5.2199-5.8565 0.01235-10.991 3.7801-12.123 11.059z" fill="url(#u)"/> <path d="m360.76 227.11c0.18127 2.9028 2.0729 9.2094 7.5583 10.068 2.6838 0.42022 7.0754 0.35551 9.3092-1.5987 1.3826-1.4561-3.3727-6.6584-3.3253-9.8197 0.05369-3.5762 1.2705-5.6716 3.7794-8.4426 0.82276-2.0495-4.5456-4.3514-7.8602-3.6142-5.7168 1.2714-9.9206 6.055-9.4615 13.407z" fill="url(#t)"/> <path d="m370.06 228.77c0.39114 2.882 2.7348 9.035 8.268 9.4941 2.7072 0.22464 7.0826-0.15813 9.1689-2.2691 1.2734-1.5525-3.8464-6.3965-4.0281-9.5529-0.2056-3.5707 0.85618-5.7488 3.1576-8.6943 0.67208-2.1038-4.849-4.0106-8.1014-3.0351-5.6097 1.6824-9.4557 6.758-8.4651 14.057z" fill="url(#s)"/> <path d="m380.33 229.07c0.66205 2.8321 3.5774 8.7357 9.1292 8.6693 2.7163-0.0325 7.0359-0.82751 8.9131-3.1264 1.1209-1.666-4.4343-6.0039-4.9138-9.129-0.54251-3.5352 0.30845-5.804 2.3209-8.954 0.47002-2.1579-5.2067-3.5338-8.3522-2.255-5.4253 2.2056-8.7739 7.6223-7.0972 14.795z" fill="url(#r)"/> <path d="m390.11 228.46c1.0256 2.7216 4.6858 8.1948 10.182 7.4051 2.6889-0.38635 6.8679-1.7377 8.4294-4.2617 0.89409-1.7979-5.1792-5.3746-6.0621-8.4104-0.99877-3.4343-0.45086-5.7947 1.1337-9.1802 0.18468-2.2008-5.623-2.8248-8.5749-1.1469-5.0915 2.8941-7.7053 8.7011-5.1077 15.594z" fill="url(#q)"/> <path d="m400.85 226.08c1.454 2.5189 5.9545 7.325 11.249 5.6532 2.5904-0.81793 6.4945-2.8301 7.6254-5.5742 0.59021-1.9192-5.9833-4.462-7.3475-7.3142-1.5433-3.2265-1.386-5.6445-0.37229-9.2424-0.1752-2.2015-6.0071-1.8741-8.6474 0.261-4.5539 3.6826-6.1898 9.837-2.5072 16.217z" fill="url(#p)"/> <path d="m410.35 222.23c1.9789 2.1315 7.4373 5.8135 12.226 3.0036 2.3429-1.3747 5.7003-4.2065 6.1911-7.1336 0.14758-2.0025-6.8274-3.0161-8.793-5.4925-2.2236-2.8014-2.6093-5.1936-2.423-8.927-0.6615-2.1071-6.2737-0.48798-8.3716 2.1819-3.6185 4.6049-3.8415 10.969 1.1704 16.368z" fill="url(#o)"/> <path d="m433.14 205.97c1.6768-1.324 3.3618-2.7121 5.3926-3.4581 1.1451-0.5753 2.2731-1.2495 3.569-1.416 1.0174-0.21163 2.9703-0.56842 3.1031-0.26262 0.09993 0.23021-1.6389 0.49938-2.4249 0.84305-1.0926 0.23362-2.0383 0.81341-2.9918 1.3637-1.0714 0.53999-1.8197 1.5014-2.7178 2.2673-0.52781 0.84589-1.5249 1.3099-2.5159 1.1741-0.50312-0.05867-1.045-0.1298-1.4143-0.51133z" fill="#271515"/> <path d="m434.91603,201.4972c.18561-.85081.85247-1.42936 1.44177-2.04461 .85704-.89483 1.54228-.89901 2.48335-1.60357 .53773-.4026 2.13186-.70835 1.39555-.12664-.80588.51953-1.8512,1.11657-2.44652,1.94335-.64995.90263-1.01396,2.0881-2.05033,2.64639-.47496.15826-1.28782-.26425-.82382-.81492z" fill="#271515"/> <path d="m419.31 216.35c2.4306 1.5973 8.6102 3.8697 12.59-0.00226 1.947-1.8944 6.4102-6.9073 3.6825-10.702-0.33479-1.9798-6.7237 0.99785-9.2236-0.93756-2.8282-2.1895-2.3123-4.4204-3.0228-8.0903-3.0246-1.8882-7.6703 1.024-9.0701 4.1175-2.4144 5.3357-1.1114 11.569 5.0444 15.615z" fill="url(#n)"/> <path d="m421.46 195.96c-1.6187 1.3669 0.03923 4.4222 1.5895 6.3168 1.7637 2.1554 3.4937 4.8237 6.4347 5.2067 2.4675 0.32128 6.3982 2.2061 7.8188-0.73339 1.2424-2.5707 0.8383-4.1295 0.51423-6.6999-0.23605-1.8722-2.5004-5.4832-5.1699-4.7284-3.6811 1.0408-8.6134-1.5354-11.187 0.63822z" fill="url(#m)"/> <path transform="matrix(1.1533 0 0 1.1533 -34.162 4.2904)" d="m402.95 168.05a2.2466 1.6252 0 1 1-4.4932 0 2.2466 1.6252 0 1 1 4.4932 0z" fill="url(#l)" opacity=".63731"/> <path d="m428.16553,196.83856c-.09284-.04216-.36949-.07796-.58471-.07796-.19627,0-.40428.0426-.54572.07796-.15853.03963-.33241.12722-.46777.19491s-.27015.11422-.38981.23387c-.14202.14203-.1912.21909-.23388.38981-.04982.19926.24199.27692.3898.35083l.46778.23388c.12103.06052.19694-.15796.27286-.23388 .12628-.12628.22352-.18973.3898-.27287 .15957-.07978.22362-.20926.35083-.27286 .14174-.07087.30766-.07692.46776-.11695 .21174-.05293.2795-.08458.38981-.1949 .07217-.07217-.43788-.2843-.50675-.31184z" fill="#9f9f9f"/> <path d="m432.97 207.78c1.6768-1.324 3.3618-2.712 5.3926-3.4581 1.1451-0.5753 2.2731-1.2495 3.569-1.416 1.0174-0.21164 3.1248-0.4999 3.1031-0.26263-0.02308 0.25251-1.5464 0.59187-2.3324 0.93553-1.0926 0.23362-2.1308 0.90591-3.0843 1.4562-1.0714 0.53999-1.8197 1.3164-2.7178 2.0823-0.52782 0.84587-1.5248 1.3099-2.5159 1.1741-0.50313-0.05865-1.045-0.12979-1.4143-0.51133z" fill="#271515"/> <path d="m435.06 201.13c0.38684-0.78018 1.1743-1.1793 1.8955-1.6328 1.0488-0.65967 1.7146-0.49716 2.7987-0.95184 0.61946-0.25981 2.2401-0.16893 1.3845 0.21637-0.90801 0.30807-2.0671 0.6331-2.8455 1.2904-0.84987 0.71758-1.4911 1.779-2.6321 2.0687-0.49921 0.03807-1.185-0.56936-0.60104-0.99072z" fill="#271515"/> <path d="m356.18 207.59c-3.4701 1.8413-5.2042 5.3631-7.0125 8.736-2.8174 5.255-1.1662 11.427 3.0702 15.716 3.137 3.1756-0.24916-0.47069-1.8736-5.8962-1.7096-5.71 2.2897-12.946 6.7556-16.167 5.6615-3.6714 12.044 1.1098 7.644-2.5204-2.1052-1.0183-6.3829-1.0359-8.5837 0.13189z" fill="#6e4545" opacity=".60104"/> </g> </svg>