<?xml version='1.0' encoding='utf-8'?>
<svg xmlns:xlink="http://www.w3.org/1999/xlink" xmlns="http://www.w3.org/2000/svg" enable-background="new 0 0 20.05 22.3" version="1.1" viewBox="0 0 20.05 22.3"> <symbol id="id" viewBox="0 -10.6 14.5 10.6"> <path d="m14.5-0.85-3.6-0.85 2.5-1.1c-1.433-0.534-2.883-0.817-4.35-0.85-1.3-0.033-2.867-0.367-4.7-1-0.733-0.267 0.167-0.633 2.7-1.1-2.133-0.833-3.683-1.3-4.65-1.4-0.933-0.133-1.733-1.283-2.4-3.45 0.5 2.667 0.783 4.517 0.85 5.55 0.067 1.067 0.317 2.75 0.75 5.05 1.433 0 2.85-0.033 4.25-0.1l8.65-0.75z" clip-rule="evenodd" fill="#fff" fill-rule="evenodd"/> </symbol> <symbol id="b" viewBox="-0.02 -14.362 3.07 14.362"> <path d="m1.55 0 1.5-0.15c-0.667-8.067-1.05-12.233-1.15-12.5-1-1.667-1.617-2.117-1.85-1.35-0.267 0.733 0.233 5.4 1.5 14z" clip-rule="evenodd" fill="#4A4A4A" fill-rule="evenodd"/> </symbol> <symbol id="ai" viewBox="-0.007 -12.261 15.414 12.252"> <g clip-rule="evenodd" fill-rule="evenodd"> <radialGradient id="hp" cx="-2816.6" cy="-11711" r="14.01" gradientTransform="matrix(.1717 -.3343 -.3343 -.1717 -3424.6 -2955.1)" gradientUnits="userSpaceOnUse"> <stop stop-color="#523729" offset="0"/> <stop stop-color="#473125" offset="1"/> </radialGradient> <path d="m9.074-1.841c0.201-0.113 0.276-0.269 0.226-0.47-0.05-0.251-0.056-0.407-0.019-0.469 0.087-0.113 0.363-0.238 0.827-0.376 0.539-0.15 0.827-0.238 0.864-0.263 0.113-0.063 0.326-0.37 0.639-0.92 0.313-0.526 0.489-0.789 0.526-0.789 0.15 0 0.307-0.082 0.47-0.244 0.213-0.213 0.27-0.495 0.169-0.846-0.088-0.351-0.332-0.52-0.733-0.507l-0.583 0.112c-0.15 0.05-0.313 0.075-0.488 0.075-0.363 0.012-0.626-0.088-0.789-0.301-0.175-0.238-0.57-0.357-1.183-0.357-0.539 0-0.958 0.075-1.259 0.226-0.188 0.087-0.432 0.069-0.733-0.057-0.351-0.138-0.633-0.194-0.846-0.169-0.125 0.013-0.463 0.144-1.014 0.395-0.426 0.188-0.802 0.225-1.127 0.113-0.339-0.113-0.765-0.069-1.278 0.131-0.451 0.238-0.701 0.37-0.751 0.395-0.076 0.025-0.182 0.138-0.32 0.338s-0.194 0.326-0.169 0.376c0.012 0.025 0.25 0.2 0.714 0.526 0.338 0.25 0.871 0.514 1.597 0.789 0.15 0.063 0.426 0.163 0.827 0.301 0.363 0.15 0.613 0.294 0.751 0.432 1.115 0.989 1.747 1.647 1.898 1.972 0.551 0.088 1.146-0.05 1.784-0.413z" fill="url(#hp)"/> <radialGradient id="ia" cx="-2577.4" cy="-11691" r="2.84" gradientTransform="matrix(.172 -.3341 -.3655 -.1571 -3820.7 -2699.3)" gradientUnits="userSpaceOnUse"> <stop stop-color="#7D4E35" offset="0"/> <stop stop-color="#593826" offset="1"/> </radialGradient> <path d="m9.056-0.808c0.401 0.05 0.708-0.106 0.92-0.47 0.213-0.363 0.194-0.689-0.056-0.977-0.188-0.212-0.482-0.294-0.883-0.244-0.375 0.038-0.62 0.163-0.732 0.375-0.164 0.289-0.182 0.565-0.057 0.828 0.138 0.263 0.407 0.425 0.808 0.488z" fill="url(#ia)"/> <radialGradient id="im" cx="-2577" cy="-11700" r="2.84" gradientTransform="matrix(.172 -.3341 -.3655 -.1571 -3827.3 -2702.1)" gradientUnits="userSpaceOnUse"> <stop stop-color="#7D4E35" offset="0"/> <stop stop-color="#593826" offset="1"/> </radialGradient> <path d="m5.88-2.349c0.414 0.05 0.727-0.1 0.939-0.451 0.213-0.363 0.194-0.689-0.056-0.977-0.187-0.212-0.482-0.3-0.883-0.263-0.375 0.05-0.62 0.176-0.732 0.376-0.163 0.301-0.182 0.577-0.057 0.827 0.138 0.275 0.401 0.439 0.789 0.488z" fill="url(#im)"/> <radialGradient id="i" cx="-2576.8" cy="-11710" r="2.8416" gradientTransform="matrix(.172 -.3341 -.3655 -.1571 -3834.3 -2705.2)" gradientUnits="userSpaceOnUse"> <stop stop-color="#7D4E35" offset="0"/> <stop stop-color="#593826" offset="1"/> </radialGradient> <path d="m2.518-3.889c0.413 0.05 0.726-0.106 0.939-0.47 0.213-0.35 0.194-0.676-0.057-0.977-0.188-0.213-0.482-0.294-0.882-0.244-0.376 0.038-0.62 0.163-0.733 0.376-0.163 0.288-0.182 0.563-0.056 0.827 0.137 0.262 0.4 0.425 0.789 0.488z" fill="url(#i)"/> <radialGradient id="w" cx="-2572.4" cy="-11703" r="2.84" gradientTransform="matrix(.172 -.3341 -.3655 -.1571 -3829.8 -2703.2)" gradientUnits="userSpaceOnUse"> <stop stop-color="#7D4E35" offset="0"/> <stop stop-color="#593826" offset="1"/> </radialGradient> <path d="m5.467-4.415c0.413 0.05 0.727-0.1 0.939-0.451 0.214-0.363 0.195-0.689-0.056-0.977-0.188-0.213-0.482-0.301-0.883-0.263-0.376 0.05-0.62 0.175-0.733 0.375-0.162 0.301-0.181 0.577-0.056 0.828 0.138 0.275 0.401 0.438 0.789 0.488z" fill="url(#w)"/> <radialGradient id="l" cx="-2567.1" cy="-11701" r="2.84" gradientTransform="matrix(.172 -.3341 -.3655 -.1571 -3828.4 -2702.6)" gradientUnits="userSpaceOnUse"> <stop stop-color="#7D4E35" offset="0"/> <stop stop-color="#593826" offset="1"/> </radialGradient> <path d="m7.083-5.862c0.414 0.05 0.727-0.106 0.939-0.47 0.213-0.35 0.188-0.669-0.075-0.958-0.188-0.212-0.482-0.3-0.883-0.263-0.375 0.05-0.62 0.175-0.732 0.376-0.15 0.3-0.163 0.576-0.038 0.827 0.138 0.275 0.401 0.438 0.789 0.488z" fill="url(#l)"/> <radialGradient id="eq" cx="-2573.8" cy="-11695" r="2.84" gradientTransform="matrix(.172 -.3341 -.3655 -.1571 -3824.1 -2700.7)" gradientUnits="userSpaceOnUse"> <stop stop-color="#7D4E35" offset="0"/> <stop stop-color="#593826" offset="1"/> </radialGradient> <path d="m8.003-2.724c0.414 0.05 0.727-0.106 0.939-0.47 0.213-0.351 0.194-0.67-0.056-0.958-0.187-0.213-0.482-0.301-0.883-0.263-0.375 0.038-0.62 0.163-0.732 0.375-0.163 0.289-0.182 0.564-0.057 0.828 0.139 0.262 0.401 0.425 0.789 0.488z" fill="url(#eq)"/> <radialGradient id="fb" cx="-2568.6" cy="-11694" r="2.84" gradientTransform="matrix(.172 -.3341 -.3655 -.1571 -3822.9 -2700.3)" gradientUnits="userSpaceOnUse"> <stop stop-color="#7D4E35" offset="0"/> <stop stop-color="#593826" offset="1"/> </radialGradient> <path d="m9.469-4.265c0.4 0.05 0.708-0.101 0.92-0.451 0.213-0.363 0.194-0.689-0.056-0.977-0.188-0.213-0.482-0.3-0.883-0.263-0.376 0.05-0.62 0.176-0.732 0.376-0.163 0.301-0.182 0.576-0.057 0.827 0.138 0.275 0.407 0.438 0.808 0.488z" fill="url(#fb)"/> <radialGradient id="hc" cx="-2566.2" cy="-11689" r="2.84" gradientTransform="matrix(.172 -.3341 -.3655 -.1571 -3819.5 -2698.8)" gradientUnits="userSpaceOnUse"> <stop stop-color="#7D4E35" offset="0"/> <stop stop-color="#593826" offset="1"/> </radialGradient> <path d="m11.555-4.34c0.413 0.05 0.726-0.101 0.939-0.451 0.213-0.363 0.194-0.689-0.057-0.977-0.188-0.212-0.482-0.3-0.883-0.263-0.376 0.05-0.62 0.175-0.733 0.375-0.163 0.301-0.182 0.576-0.056 0.827 0.138 0.276 0.402 0.439 0.79 0.489z" fill="url(#hc)"/> <radialGradient id="fv" cx="-2562" cy="-11686" r="2.84" gradientTransform="matrix(.172 -.3341 -.3655 -.1571 -3817.3 -2697.8)" gradientUnits="userSpaceOnUse"> <stop stop-color="#7D4E35" offset="0"/> <stop stop-color="#593826" offset="1"/> </radialGradient> <path d="m13.321-5.279c0.413 0.05 0.726-0.1 0.939-0.451 0.213-0.363 0.194-0.689-0.057-0.977-0.188-0.212-0.482-0.3-0.883-0.263-0.376 0.05-0.62 0.175-0.733 0.376-0.163 0.3-0.182 0.576-0.056 0.826 0.138 0.276 0.401 0.438 0.79 0.489z" fill="url(#fv)"/> <radialGradient id="gh" cx="-2571" cy="-11688" r="2.84" gradientTransform="matrix(.172 -.3341 -.3655 -.1571 -3818.8 -2698.5)" gradientUnits="userSpaceOnUse"> <stop stop-color="#7D4E35" offset="0"/> <stop stop-color="#593826" offset="1"/> </radialGradient> <path d="m11.047-2.611c0.401 0.063 0.708-0.088 0.92-0.451s0.194-0.689-0.056-0.977c-0.188-0.213-0.482-0.294-0.883-0.244-0.375 0.038-0.62 0.163-0.732 0.376-0.163 0.287-0.182 0.556-0.057 0.807 0.138 0.276 0.407 0.438 0.808 0.489z" fill="url(#gh)"/> <radialGradient id="gs" cx="-2581.8" cy="-11712" r="2.7673" gradientTransform="matrix(.1714 -.3344 -.3666 -.1579 -3843.8 -2712.6)" gradientUnits="userSpaceOnUse"> <stop stop-color="#8D5739" offset="0"/> <stop stop-color="#5E3B29" offset="1"/> </radialGradient> <path d="m7.571-0.019c0.401 0.05 0.702-0.101 0.902-0.451 0.213-0.338 0.194-0.651-0.056-0.939-0.175-0.213-0.458-0.294-0.846-0.244-0.363 0.037-0.601 0.156-0.714 0.357-0.162 0.288-0.181 0.557-0.056 0.808 0.125 0.262 0.382 0.419 0.77 0.469z" fill="url(#gs)"/> <radialGradient id="he" cx="-2638.6" cy="-11994" r="2.9128" gradientTransform="matrix(.1629 -.3386 -.3483 -.158 -3741.4 -2790.9)" gradientUnits="userSpaceOnUse"> <stop stop-color="#8D5739" offset="0"/> <stop stop-color="#5E3B29" offset="1"/> </radialGradient> <path d="m6.651-1.259c0.388 0.05 0.689-0.106 0.902-0.47 0.213-0.375 0.194-0.714-0.056-1.014-0.188-0.213-0.477-0.295-0.865-0.244-0.363 0.037-0.601 0.163-0.714 0.376-0.163 0.313-0.182 0.601-0.056 0.864 0.138 0.275 0.401 0.438 0.789 0.488z" fill="url(#he)"/> <radialGradient id="hj" cx="-2620.8" cy="-11928" r="2.8791" gradientTransform="matrix(.1648 -.3377 -.3524 -.1582 -3762.3 -2775.4)" gradientUnits="userSpaceOnUse"> <stop stop-color="#8D5739" offset="0"/> <stop stop-color="#5E3B29" offset="1"/> </radialGradient> <path d="m9.188-2.161c0.388 0.05 0.688-0.106 0.901-0.47s0.194-0.695-0.056-0.996c-0.188-0.212-0.476-0.293-0.865-0.243-0.363 0.037-0.601 0.162-0.713 0.375-0.163 0.301-0.182 0.583-0.057 0.846 0.138 0.275 0.401 0.439 0.79 0.488z" fill="url(#hj)"/> <radialGradient id="hk" cx="-2577.2" cy="-11724" r="2.7673" gradientTransform="matrix(.1714 -.3344 -.3666 -.1579 -3852.6 -2716.4)" gradientUnits="userSpaceOnUse"> <stop stop-color="#8D5739" offset="0"/> <stop stop-color="#5E3B29" offset="1"/> </radialGradient> <path d="m4.058-3.4c0.388 0.05 0.689-0.101 0.902-0.451 0.213-0.338 0.194-0.651-0.057-0.939-0.188-0.214-0.475-0.295-0.864-0.245-0.363 0.037-0.601 0.157-0.714 0.357-0.15 0.288-0.162 0.557-0.037 0.808 0.137 0.263 0.394 0.419 0.77 0.47z" fill="url(#hk)"/> <radialGradient id="hl" cx="-2569.9" cy="-11718" r="2.7673" gradientTransform="matrix(.1714 -.3344 -.3666 -.1579 -3848.1 -2714.5)" gradientUnits="userSpaceOnUse"> <stop stop-color="#8D5739" offset="0"/> <stop stop-color="#5E3B29" offset="1"/> </radialGradient> <path d="m7.515-4.885c0.401 0.05 0.708-0.1 0.92-0.451 0.201-0.338 0.176-0.651-0.075-0.939-0.175-0.213-0.457-0.294-0.845-0.245-0.363 0.038-0.601 0.157-0.714 0.358-0.15 0.288-0.169 0.557-0.057 0.808 0.139 0.263 0.395 0.419 0.771 0.469z" fill="url(#hl)"/> <radialGradient id="hm" cx="-2565" cy="-11711" r="2.7673" gradientTransform="matrix(.1714 -.3344 -.3666 -.1579 -3843.4 -2712.5)" gradientUnits="userSpaceOnUse"> <stop stop-color="#8D5739" offset="0"/> <stop stop-color="#5E3B29" offset="1"/> </radialGradient> <path d="m10.653-5.561c0.4 0.05 0.701-0.101 0.902-0.451 0.213-0.338 0.194-0.651-0.057-0.939-0.175-0.2-0.457-0.282-0.845-0.244-0.376 0.05-0.614 0.169-0.714 0.357-0.163 0.287-0.182 0.557-0.057 0.807 0.126 0.263 0.383 0.42 0.771 0.47z" fill="url(#hm)"/> <radialGradient id="hn" cx="-2572.1" cy="-11726" r="2.7656" gradientTransform="matrix(.1714 -.3344 -.3666 -.1579 -3853.5 -2716.8)" gradientUnits="userSpaceOnUse"> <stop stop-color="#8D5739" offset="0"/> <stop stop-color="#5E3B29" offset="1"/> </radialGradient> <path d="m4.49-5.298c0.401 0.05 0.702-0.1 0.902-0.451 0.213-0.338 0.194-0.651-0.056-0.939-0.176-0.213-0.458-0.295-0.846-0.245-0.376 0.038-0.614 0.157-0.714 0.357-0.163 0.288-0.181 0.557-0.056 0.808 0.125 0.263 0.382 0.42 0.77 0.47z" fill="url(#hn)"/> <radialGradient id="ho" cx="-2577.2" cy="-11733" r="2.7673" gradientTransform="matrix(.1714 -.3344 -.3666 -.1579 -3859.2 -2719.3)" gradientUnits="userSpaceOnUse"> <stop stop-color="#8D5739" offset="0"/> <stop stop-color="#5E3B29" offset="1"/> </radialGradient> <path d="m0.883-4.81c0.388 0.05 0.689-0.101 0.902-0.451 0.213-0.338 0.194-0.651-0.056-0.939-0.176-0.213-0.458-0.294-0.846-0.244-0.376 0.037-0.62 0.156-0.733 0.357-0.15 0.288-0.163 0.557-0.038 0.808 0.138 0.263 0.395 0.419 0.771 0.469z" fill="url(#ho)"/> <radialGradient id="hq" cx="-2580.5" cy="-11721" r="2.7673" gradientTransform="matrix(.1714 -.3344 -.3666 -.1579 -3850.1 -2715.4)" gradientUnits="userSpaceOnUse"> <stop stop-color="#8D5739" offset="0"/> <stop stop-color="#5E3B29" offset="1"/> </radialGradient> <path d="m4.697-1.785c0.401 0.05 0.702-0.1 0.902-0.451 0.213-0.338 0.194-0.651-0.056-0.939-0.176-0.213-0.458-0.294-0.846-0.244-0.364 0.037-0.601 0.156-0.714 0.356-0.163 0.289-0.182 0.558-0.056 0.809 0.125 0.263 0.382 0.419 0.77 0.469z" fill="url(#hq)"/> <radialGradient id="hr" cx="-2569.3" cy="-11706" r="2.7673" gradientTransform="matrix(.1714 -.3344 -.3666 -.1579 -3839.6 -2710.9)" gradientUnits="userSpaceOnUse"> <stop stop-color="#8D5739" offset="0"/> <stop stop-color="#5E3B29" offset="1"/> </radialGradient> <path d="m11.724-3.363c0.388 0.05 0.689-0.101 0.902-0.451 0.213-0.338 0.194-0.651-0.056-0.939-0.188-0.2-0.476-0.282-0.865-0.244-0.363 0.05-0.601 0.169-0.714 0.357-0.163 0.301-0.182 0.57-0.056 0.808 0.137 0.262 0.4 0.419 0.789 0.469z" fill="url(#hr)"/> <radialGradient id="hs" cx="-2611.3" cy="-11934" r="2.8791" gradientTransform="matrix(.1648 -.3377 -.3524 -.1582 -3766.7 -2777.4)" gradientUnits="userSpaceOnUse"> <stop stop-color="#8D5739" offset="0"/> <stop stop-color="#5E3B29" offset="1"/> </radialGradient> <path d="m8.548-6.388c0.401 0.05 0.702-0.106 0.902-0.47 0.213-0.363 0.194-0.689-0.056-0.977-0.176-0.225-0.457-0.312-0.846-0.263-0.363 0.038-0.601 0.163-0.714 0.376-0.163 0.3-0.182 0.583-0.056 0.845 0.125 0.276 0.382 0.439 0.77 0.489z" fill="url(#hs)"/> <radialGradient id="ht" cx="-2572.3" cy="-11729" r="2.9909" gradientTransform="matrix(.1712 -.3345 -.3659 -.157 -3846.1 -2705.9)" gradientUnits="userSpaceOnUse"> <stop stop-color="#A66B49" offset="0"/> <stop stop-color="#865236" offset=".7412"/> <stop stop-color="#663D29" offset="1"/> </radialGradient> <path d="m5.392-2.875c0.426 0.063 0.751-0.094 0.977-0.47 0.225-0.375 0.207-0.72-0.057-1.033-0.2-0.226-0.507-0.313-0.92-0.263-0.401 0.051-0.664 0.182-0.789 0.395-0.163 0.313-0.182 0.601-0.057 0.864 0.151 0.288 0.433 0.458 0.846 0.507z" fill="url(#ht)"/> <radialGradient id="hu" cx="-2568.8" cy="-11739" r="2.9909" gradientTransform="matrix(.1712 -.3345 -.3659 -.157 -3853.5 -2709.1)" gradientUnits="userSpaceOnUse"> <stop stop-color="#A66B49" offset="0"/> <stop stop-color="#865236" offset=".7412"/> <stop stop-color="#663D29" offset="1"/> </radialGradient> <path d="m2.405-5.561c0.426 0.05 0.751-0.113 0.977-0.489 0.226-0.375 0.207-0.72-0.057-1.033-0.2-0.226-0.507-0.313-0.92-0.263-0.401 0.05-0.664 0.182-0.789 0.395-0.176 0.313-0.195 0.601-0.057 0.864 0.15 0.288 0.432 0.463 0.846 0.526z" fill="url(#hu)"/> <radialGradient id="hv" cx="-2568.1" cy="-11723" r="2.9909" gradientTransform="matrix(.1712 -.3345 -.3659 -.157 -3842.2 -2704.2)" gradientUnits="userSpaceOnUse"> <stop stop-color="#A66B49" offset="0"/> <stop stop-color="#865236" offset=".7412"/> <stop stop-color="#663D29" offset="1"/> </radialGradient> <path d="m8.003-3.476c0.426 0.063 0.752-0.094 0.977-0.469 0.226-0.376 0.2-0.72-0.075-1.033-0.2-0.226-0.507-0.313-0.92-0.263-0.388 0.049-0.645 0.181-0.771 0.394-0.175 0.313-0.194 0.601-0.056 0.864 0.151 0.288 0.432 0.457 0.845 0.507z" fill="url(#hv)"/> <radialGradient id="hw" cx="-2574.5" cy="-11721" r="2.9909" gradientTransform="matrix(.1712 -.3345 -.3659 -.157 -3840.9 -2703.7)" gradientUnits="userSpaceOnUse"> <stop stop-color="#A66B49" offset="0"/> <stop stop-color="#865236" offset=".7412"/> <stop stop-color="#663D29" offset="1"/> </radialGradient> <path d="m7.571-1.071c0.426 0.063 0.751-0.094 0.977-0.47s0.201-0.72-0.075-1.033c-0.188-0.225-0.488-0.313-0.902-0.263-0.4 0.05-0.664 0.182-0.789 0.395-0.175 0.313-0.194 0.601-0.056 0.864 0.15 0.288 0.432 0.457 0.845 0.507z" fill="url(#hw)"/> <radialGradient id="hx" cx="-2564.4" cy="-11732" r="2.9909" gradientTransform="matrix(.1712 -.3345 -.3659 -.157 -3848.6 -2707)" gradientUnits="userSpaceOnUse"> <stop stop-color="#A66B49" offset="0"/> <stop stop-color="#865236" offset=".7412"/> <stop stop-color="#663D29" offset="1"/> </radialGradient> <path d="m5.523-6.068c0.426 0.049 0.752-0.113 0.977-0.489 0.226-0.375 0.207-0.714-0.056-1.014-0.2-0.226-0.507-0.314-0.921-0.263-0.401 0.038-0.657 0.163-0.77 0.375-0.175 0.313-0.194 0.602-0.056 0.865 0.137 0.288 0.413 0.463 0.826 0.526z" fill="url(#hx)"/> <radialGradient id="hy" cx="-2673.1" cy="-12135" r="1.5715" gradientTransform="matrix(.1584 -.3407 -.3407 -.1584 -3704 -2834.6)" gradientUnits="userSpaceOnUse"> <stop stop-color="#A66B49" offset="0"/> <stop stop-color="#804E33" offset="1"/> </radialGradient> <path d="m7.29-1.259c0.213 0.075 0.388 0.094 0.526 0.056 0.125-0.037 0.187-0.118 0.187-0.244 0-0.15-0.056-0.275-0.169-0.375-0.15-0.15-0.363-0.219-0.639-0.207-0.275 0.012-0.369 0.132-0.281 0.357 0.075 0.2 0.2 0.338 0.376 0.413z" fill="url(#hy)"/> <radialGradient id="hz" cx="-2667.8" cy="-12153" r="1.3366" gradientTransform="matrix(.1581 -.3409 -.3409 -.1581 -3716 -2834.8)" gradientUnits="userSpaceOnUse"> <stop stop-color="#A66B49" offset="0"/> <stop stop-color="#804E33" offset="1"/> </radialGradient> <path d="m4.791-3.4c0.075-0.138 0.119-0.282 0.131-0.433 0.013-0.188-0.025-0.313-0.112-0.375-0.113-0.076-0.22-0.032-0.32 0.131-0.113 0.138-0.169 0.294-0.169 0.47 0 0.15 0.063 0.251 0.188 0.301 0.125 0.062 0.219 0.031 0.282-0.094z" fill="url(#hz)"/> <radialGradient id="ib" cx="-2685.6" cy="-12086" r="1.644" gradientTransform="matrix(.16 -.34 -.34 -.16 -3671.8 -2850.6)" gradientUnits="userSpaceOnUse"> <stop stop-color="#A66B49" offset="0"/> <stop stop-color="#804E33" offset="1"/> </radialGradient> <path d="m7.44-3.513c0.476 0.213 0.758 0.175 0.845-0.113 0.075-0.301-0.1-0.526-0.526-0.676-0.35-0.126-0.532-0.044-0.545 0.244s0.063 0.47 0.226 0.545z" fill="url(#ib)"/> <radialGradient id="ic" cx="-2665.3" cy="-12110" r="1.4763" gradientTransform="matrix(.1591 -.3404 -.3404 -.1591 -3687.6 -2840)" gradientUnits="userSpaceOnUse"> <stop stop-color="#A66B49" offset="0"/> <stop stop-color="#804E33" offset="1"/> </radialGradient> <path d="m11.047-5.88c0.175-0.013 0.313-0.082 0.413-0.207 0.088-0.125 0.12-0.263 0.095-0.413-0.1-0.351-0.326-0.426-0.676-0.226-0.188 0.1-0.245 0.27-0.169 0.507 0.074 0.226 0.187 0.339 0.337 0.339z" fill="url(#ic)"/> <radialGradient id="ie" cx="-2658.1" cy="-12120" r="1.3925" gradientTransform="matrix(.1585 -.3407 -.3407 -.1585 -3694.1 -2832.4)" gradientUnits="userSpaceOnUse"> <stop stop-color="#A66B49" offset="0"/> <stop stop-color="#804E33" offset="1"/> </radialGradient> <path d="m13.452-5.11c0.238-0.012 0.438-0.094 0.601-0.244 0.15-0.15 0.188-0.27 0.113-0.357-0.138-0.15-0.401-0.119-0.789 0.094-0.175 0.101-0.238 0.213-0.188 0.338 0.05 0.112 0.138 0.169 0.263 0.169z" fill="url(#ie)"/> <radialGradient id="if" cx="-2693.2" cy="-12094" r="1.2022" gradientTransform="matrix(.1602 -.3399 -.3399 -.1602 -3677.2 -2856.8)" gradientUnits="userSpaceOnUse"> <stop stop-color="#A66B49" offset="0"/> <stop stop-color="#804E33" offset="1"/> </radialGradient> <path d="m2.085-3.983c0.238 0.125 0.395 0.163 0.47 0.113 0.063-0.05 0.063-0.138 0-0.263-0.037-0.1-0.131-0.188-0.282-0.263-0.138-0.075-0.263-0.119-0.376-0.132s-0.144 0.057-0.094 0.207c0.051 0.15 0.144 0.263 0.282 0.338z" fill="url(#if)"/> <radialGradient id="ig" cx="-2671.5" cy="-12158" r="1.3646" gradientTransform="matrix(.1583 -.3408 -.3408 -.1583 -3719.6 -2840.4)" gradientUnits="userSpaceOnUse"> <stop stop-color="#A66B49" offset="0"/> <stop stop-color="#804E33" offset="1"/> </radialGradient> <path d="m0.507-4.772c0.188 0.025 0.332 0 0.432-0.075 0.112-0.075 0.15-0.188 0.112-0.338-0.037-0.125-0.163-0.2-0.375-0.225h-0.545c-0.163-0.026-0.181 0.068-0.056 0.281s0.269 0.332 0.432 0.357z" fill="url(#ig)"/> <radialGradient id="ih" cx="-2673.8" cy="-12131" r="1.682" gradientTransform="matrix(.1591 -.3404 -.3404 -.1591 -3702 -2846.3)" gradientUnits="userSpaceOnUse"> <stop stop-color="#A66B49" offset="0"/> <stop stop-color="#804E33" offset="1"/> </radialGradient> <path d="m2.687-6.144c0.401 0.075 0.595-0.088 0.583-0.488-0.026-0.401-0.227-0.583-0.602-0.545-0.338 0.05-0.489 0.225-0.451 0.526s0.194 0.47 0.47 0.507z" fill="url(#ih)"/> <radialGradient id="ii" cx="-2683.4" cy="-12063" r="1.5488" gradientTransform="matrix(.1607 -.3397 -.3397 -.1607 -3656.7 -2857.7)" gradientUnits="userSpaceOnUse"> <stop stop-color="#A66B49" offset="0"/> <stop stop-color="#804E33" offset="1"/> </radialGradient> <path d="m9.356-7.027c0.188 0.025 0.301 0.013 0.338-0.037 0.038-0.063 0.031-0.213-0.019-0.451-0.062-0.238-0.162-0.401-0.3-0.488-0.138-0.088-0.269-0.07-0.395 0.056-0.112 0.125-0.125 0.301-0.037 0.526 0.088 0.238 0.225 0.369 0.413 0.394z" fill="url(#ii)"/> <radialGradient id="ij" cx="-2678" cy="-12101" r="1.5322" gradientTransform="matrix(.1594 -.3403 -.3403 -.1594 -3681.4 -2843.5)" gradientUnits="userSpaceOnUse"> <stop stop-color="#A66B49" offset="0"/> <stop stop-color="#804E33" offset="1"/> </radialGradient> <path d="m9.168-3.025c0.489 0.075 0.708-0.062 0.658-0.413-0.05-0.376-0.245-0.533-0.583-0.47-0.275 0.05-0.413 0.207-0.413 0.47 0 0.25 0.113 0.388 0.338 0.413z" fill="url(#ij)"/> <radialGradient id="ik" cx="-2675.9" cy="-12127" r="1.0066" gradientTransform="matrix(.1586 -.3406 -.3406 -.1586 -3699 -2836.9)" gradientUnits="userSpaceOnUse"> <stop stop-color="#804E33" offset="0"/> <stop stop-color="#704630" offset="1"/> </radialGradient> <path d="m7.29-1.353c0.376 0.1 0.551 0.082 0.526-0.057-0.012-0.075-0.063-0.15-0.15-0.225-0.113-0.088-0.25-0.132-0.414-0.132-0.175 0-0.244 0.057-0.207 0.169 0.038 0.126 0.12 0.208 0.245 0.245z" fill="url(#ik)"/> <radialGradient id="il" cx="-2654.8" cy="-12188" r=".688" gradientTransform="matrix(.157 -.3414 -.3414 -.157 -3739.3 -2823.9)" gradientUnits="userSpaceOnUse"> <stop stop-color="#804E33" offset="0"/> <stop stop-color="#704630" offset="1"/> </radialGradient> <path d="m4.434-3.588c-0.025 0.1-6e-3 0.119 0.057 0.056 0.063-0.075 0.094-0.182 0.094-0.319 0-0.163-0.012-0.231-0.038-0.207-0.038 0.037-0.076 0.194-0.113 0.47z" fill="url(#il)"/> <radialGradient id="in" cx="-2694.6" cy="-12090" r=".7325" gradientTransform="matrix(.1603 -.3399 -.3399 -.1603 -3674.8 -2858)" gradientUnits="userSpaceOnUse"> <stop stop-color="#804E33" offset="0"/> <stop stop-color="#704630" offset="1"/> </radialGradient> <path d="m2.273-3.964c0.125 0.012 0.15-0.044 0.075-0.169-0.087-0.113-0.213-0.182-0.375-0.207-0.176-0.013-0.201 0.044-0.076 0.169 0.125 0.138 0.251 0.207 0.376 0.207z" fill="url(#in)"/> <radialGradient id="io" cx="-2678.2" cy="-12140" r=".8276" gradientTransform="matrix(.1589 -.3405 -.3405 -.1589 -3707.7 -2846)" gradientUnits="userSpaceOnUse"> <stop stop-color="#804E33" offset="0"/> <stop stop-color="#704630" offset="1"/> </radialGradient> <path d="m0.526-4.847c0.163 0 0.25-0.056 0.263-0.169 0.012-0.088-0.038-0.15-0.15-0.188-0.126-0.038-0.257-0.025-0.395 0.037-0.125 0.063-0.138 0.132-0.037 0.207 0.087 0.075 0.194 0.113 0.319 0.113z" fill="url(#io)"/> <radialGradient id="ip" cx="-2689.7" cy="-12086" r=".9953" gradientTransform="matrix(.1605 -.3398 -.3398 -.1605 -3672.5 -2859.8)" gradientUnits="userSpaceOnUse"> <stop stop-color="#A66B49" offset="0"/> <stop stop-color="#865236" offset=".7412"/> <stop stop-color="#663D29" offset="1"/> </radialGradient> <path d="m2.855-6.313c0.139-0.012 0.22-0.056 0.245-0.131 0.012-0.025 0.012-0.106 0-0.244-0.013-0.113-0.076-0.195-0.188-0.245-0.125-0.05-0.244-0.031-0.357 0.056-0.1 0.075-0.106 0.194-0.019 0.357 0.1 0.151 0.207 0.22 0.319 0.207z" fill="url(#ip)"/> <radialGradient id="iq" cx="-2681.4" cy="-12067" r=".7604" gradientTransform="matrix(.1606 -.3397 -.3397 -.1606 -3659.4 -2856.3)" gradientUnits="userSpaceOnUse"> <stop stop-color="#804E33" offset="0"/> <stop stop-color="#704630" offset="1"/> </radialGradient> <path d="m9.601-7.327c-0.025-0.201-0.094-0.357-0.207-0.47-0.1-0.113-0.15-0.088-0.15 0.075 0 0.125 0.063 0.238 0.188 0.338 0.112 0.088 0.169 0.107 0.169 0.057z" fill="url(#iq)"/> <radialGradient id="ir" cx="-2672.8" cy="-12088" r=".9115" gradientTransform="matrix(.1598 -.3401 -.3401 -.1598 -3673.3 -2846.4)" gradientUnits="userSpaceOnUse"> <stop stop-color="#804E33" offset="0"/> <stop stop-color="#704630" offset="1"/> </radialGradient> <path d="m11.197-6.031c0.176-0.075 0.238-0.201 0.188-0.376-0.025-0.113-0.075-0.188-0.15-0.225-0.1-0.025-0.188 0.031-0.263 0.169s-0.082 0.257-0.019 0.357c0.063 0.087 0.144 0.113 0.244 0.075z" fill="url(#ir)"/> <radialGradient id="is" cx="-2675.1" cy="-12073" r=".7046" gradientTransform="matrix(.16 -.34 -.34 -.16 -3663.2 -2846.5)" gradientUnits="userSpaceOnUse"> <stop stop-color="#804E33" offset="0"/> <stop stop-color="#704630" offset="1"/> </radialGradient> <path d="m13.734-5.204c0.201-0.113 0.282-0.201 0.245-0.263-0.05-0.038-0.213 0.019-0.489 0.169-0.088 0.05-0.094 0.094-0.019 0.132 0.088 0.024 0.175 0.012 0.263-0.038z" fill="url(#is)"/> <radialGradient id="it" cx="-2675.5" cy="-12107" r=".8556" gradientTransform="matrix(.1592 -.3404 -.3404 -.1592 -3685.6 -2841.5)" gradientUnits="userSpaceOnUse"> <stop stop-color="#804E33" offset="0"/> <stop stop-color="#704630" offset="1"/> </radialGradient> <path d="m9.337-3.212c0.151-0.038 0.245-0.07 0.283-0.095 0.038-0.038 0.031-0.1-0.019-0.188-0.163-0.237-0.313-0.281-0.451-0.131-0.088 0.1-0.101 0.2-0.038 0.301 0.063 0.1 0.138 0.137 0.225 0.113z" fill="url(#it)"/> <radialGradient id="iu" cx="-2690.9" cy="-12072" r=".9953" gradientTransform="matrix(.1605 -.3398 -.3398 -.1605 -3662.3 -2854.9)" gradientUnits="userSpaceOnUse"> <stop stop-color="#804E33" offset="0"/> <stop stop-color="#704630" offset="1"/> </radialGradient> <path d="m7.741-3.513c0.163-0.013 0.256-0.038 0.282-0.075 0.025-0.025 6e-3 -0.088-0.056-0.188-0.064-0.113-0.183-0.195-0.358-0.245-0.175-0.063-0.263-0.05-0.263 0.038-0.012 0.1 0.025 0.2 0.113 0.301 0.1 0.112 0.194 0.169 0.282 0.169z" fill="url(#iu)"/> <radialGradient id="iv" cx="-2816.6" cy="-11711" r="14.01" gradientTransform="matrix(.1717 -.3343 -.3343 -.1717 -3424.6 -2959.3)" gradientUnits="userSpaceOnUse"> <stop stop-color="#523729" offset="0"/> <stop stop-color="#473125" offset="1"/> </radialGradient> <path d="m9.074-5.991c0.201-0.113 0.276-0.269 0.226-0.469-0.05-0.251-0.056-0.408-0.019-0.47 0.087-0.113 0.363-0.238 0.827-0.376 0.539-0.15 0.827-0.238 0.864-0.263 0.113-0.063 0.326-0.37 0.639-0.92 0.313-0.526 0.489-0.789 0.526-0.789 0.15 0 0.307-0.082 0.47-0.244 0.213-0.213 0.27-0.495 0.169-0.846-0.088-0.351-0.332-0.52-0.733-0.507l-0.583 0.113c-0.15 0.05-0.313 0.075-0.488 0.075-0.363 0.012-0.626-0.088-0.789-0.301-0.175-0.238-0.57-0.357-1.184-0.357-0.539 0-0.958 0.075-1.259 0.226-0.188 0.087-0.432 0.069-0.733-0.057-0.351-0.138-0.632-0.194-0.846-0.169-0.125 0.013-0.463 0.144-1.014 0.395-0.426 0.188-0.802 0.226-1.127 0.113-0.338-0.113-0.764-0.069-1.278 0.131-0.451 0.238-0.701 0.37-0.751 0.395-0.075 0.025-0.181 0.138-0.319 0.338s-0.194 0.326-0.169 0.376c0.012 0.025 0.25 0.2 0.714 0.526 0.338 0.25 0.871 0.514 1.597 0.789 0.15 0.063 0.426 0.163 0.827 0.301 0.363 0.15 0.614 0.294 0.751 0.432 1.115 0.988 1.747 1.646 1.898 1.971 0.551 0.088 1.146-0.05 1.784-0.413z" fill="url(#iv)"/> <radialGradient id="iw" cx="-2577.4" cy="-11691" r="2.84" gradientTransform="matrix(.172 -.3341 -.3655 -.1571 -3820.7 -2703.4)" gradientUnits="userSpaceOnUse"> <stop stop-color="#7D4E35" offset="0"/> <stop stop-color="#593826" offset="1"/> </radialGradient> <path d="m9.056-4.958c0.401 0.05 0.708-0.106 0.92-0.47 0.213-0.363 0.194-0.689-0.056-0.977-0.188-0.212-0.482-0.294-0.883-0.243-0.375 0.038-0.62 0.163-0.732 0.375-0.164 0.288-0.182 0.564-0.057 0.827 0.138 0.263 0.407 0.425 0.808 0.488z" fill="url(#iw)"/> <radialGradient id="h" cx="-2577" cy="-11700" r="2.84" gradientTransform="matrix(.172 -.3341 -.3655 -.1571 -3827.3 -2706.3)" gradientUnits="userSpaceOnUse"> <stop stop-color="#7D4E35" offset="0"/> <stop stop-color="#593826" offset="1"/> </radialGradient> <path d="m5.88-6.499c0.414 0.05 0.727-0.1 0.939-0.451 0.213-0.363 0.194-0.689-0.056-0.977-0.187-0.212-0.482-0.3-0.883-0.262-0.375 0.05-0.62 0.176-0.732 0.376-0.163 0.3-0.182 0.576-0.057 0.826 0.138 0.276 0.401 0.439 0.789 0.488z" fill="url(#h)"/> <radialGradient id="g" cx="-2576.8" cy="-11710" r="2.8416" gradientTransform="matrix(.172 -.3341 -.3655 -.1571 -3834.3 -2709.3)" gradientUnits="userSpaceOnUse"> <stop stop-color="#7D4E35" offset="0"/> <stop stop-color="#593826" offset="1"/> </radialGradient> <path d="m2.518-8.039c0.413 0.05 0.726-0.106 0.939-0.47 0.213-0.35 0.194-0.676-0.057-0.977-0.188-0.213-0.482-0.294-0.882-0.244-0.376 0.038-0.62 0.163-0.733 0.376-0.163 0.288-0.182 0.563-0.056 0.827 0.137 0.262 0.4 0.425 0.789 0.488z" fill="url(#g)"/> <radialGradient id="f" cx="-2572.4" cy="-11703" r="2.84" gradientTransform="matrix(.172 -.3341 -.3655 -.1571 -3829.8 -2707.4)" gradientUnits="userSpaceOnUse"> <stop stop-color="#7D4E35" offset="0"/> <stop stop-color="#593826" offset="1"/> </radialGradient> <path d="m5.467-8.565c0.413 0.05 0.727-0.1 0.939-0.451 0.214-0.363 0.195-0.689-0.056-0.977-0.188-0.213-0.482-0.301-0.883-0.263-0.376 0.05-0.62 0.175-0.733 0.375-0.162 0.301-0.181 0.577-0.056 0.828 0.138 0.275 0.401 0.438 0.789 0.488z" fill="url(#f)"/> <radialGradient id="e" cx="-2567.1" cy="-11701" r="2.84" gradientTransform="matrix(.172 -.3341 -.3655 -.1571 -3828.4 -2706.7)" gradientUnits="userSpaceOnUse"> <stop stop-color="#7D4E35" offset="0"/> <stop stop-color="#593826" offset="1"/> </radialGradient> <path d="m7.083-10.012c0.414 0.05 0.727-0.106 0.939-0.47 0.213-0.351 0.188-0.67-0.075-0.958-0.188-0.213-0.482-0.301-0.883-0.263-0.375 0.05-0.62 0.175-0.732 0.376-0.15 0.3-0.163 0.576-0.038 0.827 0.138 0.275 0.401 0.438 0.789 0.488z" fill="url(#e)"/> <radialGradient id="d" cx="-2573.8" cy="-11695" r="2.84" gradientTransform="matrix(.172 -.3341 -.3655 -.1571 -3824.1 -2704.9)" gradientUnits="userSpaceOnUse"> <stop stop-color="#7D4E35" offset="0"/> <stop stop-color="#593826" offset="1"/> </radialGradient> <path d="m8.003-6.874c0.414 0.05 0.727-0.106 0.939-0.47 0.213-0.351 0.194-0.67-0.056-0.958-0.187-0.213-0.482-0.301-0.883-0.263-0.375 0.038-0.62 0.163-0.732 0.375-0.163 0.289-0.182 0.565-0.057 0.828 0.139 0.262 0.401 0.425 0.789 0.488z" fill="url(#d)"/> <radialGradient id="c" cx="-2568.6" cy="-11694" r="2.84" gradientTransform="matrix(.172 -.3341 -.3655 -.1571 -3822.9 -2704.4)" gradientUnits="userSpaceOnUse"> <stop stop-color="#7D4E35" offset="0"/> <stop stop-color="#593826" offset="1"/> </radialGradient> <path d="m9.469-8.415c0.4 0.05 0.708-0.101 0.92-0.451 0.213-0.363 0.194-0.689-0.056-0.977-0.188-0.213-0.482-0.3-0.883-0.263-0.376 0.05-0.62 0.176-0.732 0.376-0.163 0.301-0.182 0.576-0.057 0.827 0.138 0.276 0.407 0.438 0.808 0.488z" fill="url(#c)"/> <radialGradient id="a" cx="-2566.2" cy="-11689" r="2.84" gradientTransform="matrix(.172 -.3341 -.3655 -.1571 -3819.5 -2702.9)" gradientUnits="userSpaceOnUse"> <stop stop-color="#7D4E35" offset="0"/> <stop stop-color="#593826" offset="1"/> </radialGradient> <path d="m11.555-8.49c0.413 0.05 0.726-0.101 0.939-0.451 0.213-0.363 0.194-0.689-0.057-0.977-0.188-0.212-0.482-0.3-0.883-0.263-0.376 0.05-0.62 0.175-0.733 0.375-0.163 0.301-0.182 0.576-0.056 0.827 0.138 0.276 0.402 0.439 0.79 0.489z" fill="url(#a)"/> <radialGradient id="z" cx="-2562" cy="-11686" r="2.84" gradientTransform="matrix(.172 -.3341 -.3655 -.1571 -3817.3 -2702)" gradientUnits="userSpaceOnUse"> <stop stop-color="#7D4E35" offset="0"/> <stop stop-color="#593826" offset="1"/> </radialGradient> <path d="m13.321-9.429c0.413 0.05 0.726-0.1 0.939-0.451 0.213-0.363 0.194-0.689-0.057-0.977-0.188-0.212-0.482-0.3-0.883-0.263-0.376 0.05-0.62 0.175-0.733 0.376-0.163 0.3-0.182 0.576-0.056 0.826 0.138 0.276 0.401 0.439 0.79 0.489z" fill="url(#z)"/> <radialGradient id="y" cx="-2571" cy="-11688" r="2.84" gradientTransform="matrix(.172 -.3341 -.3655 -.1571 -3818.8 -2702.6)" gradientUnits="userSpaceOnUse"> <stop stop-color="#7D4E35" offset="0"/> <stop stop-color="#593826" offset="1"/> </radialGradient> <path d="m11.047-6.761c0.401 0.063 0.708-0.088 0.92-0.451s0.194-0.689-0.056-0.977c-0.188-0.213-0.482-0.294-0.883-0.244-0.375 0.038-0.62 0.163-0.732 0.376-0.163 0.287-0.182 0.557-0.057 0.807 0.138 0.276 0.407 0.438 0.808 0.489z" fill="url(#y)"/> <radialGradient id="x" cx="-2581.8" cy="-11712" r="2.7673" gradientTransform="matrix(.1714 -.3344 -.3666 -.1579 -3843.8 -2716.8)" gradientUnits="userSpaceOnUse"> <stop stop-color="#8D5739" offset="0"/> <stop stop-color="#5E3B29" offset="1"/> </radialGradient> <path d="m7.571-4.168c0.401 0.05 0.702-0.101 0.902-0.451 0.213-0.338 0.194-0.651-0.056-0.939-0.175-0.214-0.458-0.295-0.846-0.245-0.363 0.037-0.601 0.157-0.714 0.357-0.162 0.288-0.181 0.557-0.056 0.808 0.125 0.263 0.382 0.419 0.77 0.47z" fill="url(#x)"/> <radialGradient id="v" cx="-2638.6" cy="-11994" r="2.9128" gradientTransform="matrix(.1629 -.3386 -.3483 -.158 -3741.4 -2795)" gradientUnits="userSpaceOnUse"> <stop stop-color="#8D5739" offset="0"/> <stop stop-color="#5E3B29" offset="1"/> </radialGradient> <path d="m6.651-5.409c0.388 0.05 0.689-0.106 0.902-0.47 0.213-0.375 0.194-0.714-0.056-1.014-0.188-0.213-0.477-0.295-0.865-0.244-0.363 0.037-0.601 0.163-0.714 0.376-0.163 0.313-0.182 0.601-0.056 0.864 0.138 0.275 0.401 0.439 0.789 0.488z" fill="url(#v)"/> <radialGradient id="u" cx="-2620.8" cy="-11928" r="2.8791" gradientTransform="matrix(.1648 -.3377 -.3524 -.1582 -3762.3 -2779.5)" gradientUnits="userSpaceOnUse"> <stop stop-color="#8D5739" offset="0"/> <stop stop-color="#5E3B29" offset="1"/> </radialGradient> <path d="m9.188-6.311c0.388 0.05 0.688-0.106 0.901-0.47s0.194-0.695-0.056-0.996c-0.188-0.212-0.476-0.293-0.865-0.243-0.363 0.038-0.601 0.163-0.713 0.375-0.163 0.301-0.182 0.583-0.057 0.846 0.138 0.276 0.401 0.439 0.79 0.488z" fill="url(#u)"/> <radialGradient id="t" cx="-2577.2" cy="-11724" r="2.7673" gradientTransform="matrix(.1714 -.3344 -.3666 -.1579 -3852.6 -2720.6)" gradientUnits="userSpaceOnUse"> <stop stop-color="#8D5739" offset="0"/> <stop stop-color="#5E3B29" offset="1"/> </radialGradient> <path d="m4.058-7.55c0.388 0.05 0.689-0.101 0.902-0.451 0.213-0.338 0.194-0.651-0.057-0.939-0.188-0.214-0.475-0.295-0.864-0.245-0.363 0.038-0.601 0.157-0.714 0.357-0.15 0.288-0.162 0.557-0.037 0.808 0.137 0.263 0.394 0.419 0.77 0.47z" fill="url(#t)"/> <radialGradient id="s" cx="-2569.9" cy="-11718" r="2.7673" gradientTransform="matrix(.1714 -.3344 -.3666 -.1579 -3848.1 -2718.6)" gradientUnits="userSpaceOnUse"> <stop stop-color="#8D5739" offset="0"/> <stop stop-color="#5E3B29" offset="1"/> </radialGradient> <path d="m7.515-9.035c0.401 0.05 0.708-0.1 0.92-0.451 0.201-0.338 0.175-0.651-0.075-0.939-0.175-0.212-0.457-0.294-0.845-0.244-0.363 0.038-0.602 0.157-0.714 0.357-0.15 0.288-0.169 0.557-0.057 0.808 0.139 0.263 0.395 0.419 0.771 0.469z" fill="url(#s)"/> <radialGradient id="r" cx="-2565" cy="-11711" r="2.7673" gradientTransform="matrix(.1714 -.3344 -.3666 -.1579 -3843.4 -2716.6)" gradientUnits="userSpaceOnUse"> <stop stop-color="#8D5739" offset="0"/> <stop stop-color="#5E3B29" offset="1"/> </radialGradient> <path d="m10.653-9.711c0.4 0.05 0.701-0.101 0.902-0.451 0.213-0.338 0.194-0.651-0.057-0.939-0.175-0.2-0.457-0.282-0.845-0.244-0.376 0.05-0.614 0.169-0.714 0.357-0.163 0.288-0.182 0.558-0.057 0.808 0.126 0.262 0.383 0.419 0.771 0.469z" fill="url(#r)"/> <radialGradient id="q" cx="-2572.1" cy="-11726" r="2.7656" gradientTransform="matrix(.1714 -.3344 -.3666 -.1579 -3853.5 -2721)" gradientUnits="userSpaceOnUse"> <stop stop-color="#8D5739" offset="0"/> <stop stop-color="#5E3B29" offset="1"/> </radialGradient> <path d="m4.49-9.448c0.401 0.05 0.702-0.1 0.902-0.451 0.213-0.338 0.194-0.651-0.056-0.939-0.176-0.213-0.458-0.294-0.846-0.244-0.376 0.038-0.614 0.157-0.714 0.357-0.163 0.288-0.182 0.557-0.057 0.808 0.126 0.262 0.383 0.419 0.771 0.469z" fill="url(#q)"/> <radialGradient id="p" cx="-2577.2" cy="-11733" r="2.7673" gradientTransform="matrix(.1714 -.3344 -.3666 -.1579 -3859.2 -2723.4)" gradientUnits="userSpaceOnUse"> <stop stop-color="#8D5739" offset="0"/> <stop stop-color="#5E3B29" offset="1"/> </radialGradient> <path d="m0.883-8.959c0.388 0.05 0.689-0.101 0.902-0.451 0.213-0.338 0.194-0.651-0.056-0.939-0.176-0.213-0.458-0.294-0.846-0.244-0.375 0.038-0.62 0.157-0.733 0.357-0.15 0.287-0.163 0.556-0.038 0.807 0.138 0.263 0.395 0.419 0.771 0.47z" fill="url(#p)"/> <radialGradient id="o" cx="-2580.5" cy="-11721" r="2.7673" gradientTransform="matrix(.1714 -.3344 -.3666 -.1579 -3850.1 -2719.5)" gradientUnits="userSpaceOnUse"> <stop stop-color="#8D5739" offset="0"/> <stop stop-color="#5E3B29" offset="1"/> </radialGradient> <path d="m4.697-5.935c0.401 0.05 0.702-0.1 0.902-0.451 0.213-0.338 0.194-0.651-0.056-0.939-0.176-0.213-0.458-0.294-0.846-0.244-0.364 0.037-0.601 0.156-0.714 0.357-0.163 0.288-0.182 0.557-0.056 0.808 0.125 0.263 0.382 0.419 0.77 0.469z" fill="url(#o)"/> <radialGradient id="n" cx="-2569.3" cy="-11706" r="2.7673" gradientTransform="matrix(.1714 -.3344 -.3666 -.1579 -3839.6 -2715)" gradientUnits="userSpaceOnUse"> <stop stop-color="#8D5739" offset="0"/> <stop stop-color="#5E3B29" offset="1"/> </radialGradient> <path d="m11.724-7.513c0.388 0.05 0.689-0.101 0.902-0.451 0.213-0.338 0.194-0.651-0.056-0.939-0.188-0.2-0.476-0.282-0.865-0.244-0.363 0.05-0.601 0.169-0.714 0.357-0.163 0.301-0.182 0.57-0.056 0.808 0.137 0.262 0.4 0.419 0.789 0.469z" fill="url(#n)"/> <radialGradient id="m" cx="-2611.3" cy="-11934" r="2.8791" gradientTransform="matrix(.1648 -.3377 -.3524 -.1582 -3766.7 -2781.5)" gradientUnits="userSpaceOnUse"> <stop stop-color="#8D5739" offset="0"/> <stop stop-color="#5E3B29" offset="1"/> </radialGradient> <path d="m8.548-10.538c0.401 0.05 0.702-0.106 0.902-0.47 0.213-0.363 0.194-0.689-0.056-0.977-0.176-0.226-0.458-0.313-0.846-0.263-0.363 0.038-0.601 0.163-0.714 0.376-0.163 0.3-0.182 0.583-0.056 0.845 0.125 0.276 0.382 0.439 0.77 0.489z" fill="url(#m)"/> <radialGradient id="k" cx="-2572.3" cy="-11729" r="2.9909" gradientTransform="matrix(.1712 -.3345 -.3659 -.157 -3846.1 -2710.1)" gradientUnits="userSpaceOnUse"> <stop stop-color="#A66B49" offset="0"/> <stop stop-color="#865236" offset=".7412"/> <stop stop-color="#663D29" offset="1"/> </radialGradient> <path d="m5.392-7.024c0.426 0.063 0.751-0.094 0.977-0.47 0.225-0.375 0.207-0.72-0.057-1.033-0.2-0.226-0.507-0.313-0.92-0.263-0.401 0.05-0.664 0.181-0.789 0.394-0.163 0.313-0.182 0.601-0.057 0.864 0.151 0.288 0.433 0.458 0.846 0.508z" fill="url(#k)"/> <radialGradient id="j" cx="-2568.8" cy="-11739" r="2.9909" gradientTransform="matrix(.1712 -.3345 -.3659 -.157 -3853.5 -2713.2)" gradientUnits="userSpaceOnUse"> <stop stop-color="#A66B49" offset="0"/> <stop stop-color="#865236" offset=".7412"/> <stop stop-color="#663D29" offset="1"/> </radialGradient> <path d="m2.405-9.711c0.426 0.05 0.751-0.113 0.977-0.489 0.226-0.375 0.207-0.72-0.057-1.033-0.2-0.226-0.507-0.313-0.92-0.263-0.401 0.05-0.664 0.182-0.789 0.395-0.176 0.313-0.195 0.601-0.057 0.864 0.15 0.288 0.432 0.463 0.846 0.526z" fill="url(#j)"/> <radialGradient id="aa" cx="-2568.1" cy="-11723" r="2.9909" gradientTransform="matrix(.1712 -.3345 -.3659 -.157 -3842.2 -2708.4)" gradientUnits="userSpaceOnUse"> <stop stop-color="#A66B49" offset="0"/> <stop stop-color="#865236" offset=".7412"/> <stop stop-color="#663D29" offset="1"/> </radialGradient> <path d="m8.003-7.625c0.426 0.062 0.752-0.095 0.977-0.47 0.226-0.376 0.2-0.72-0.075-1.033-0.2-0.226-0.507-0.313-0.92-0.263-0.388 0.049-0.645 0.181-0.771 0.394-0.175 0.313-0.194 0.601-0.056 0.864 0.151 0.288 0.432 0.457 0.845 0.508z" fill="url(#aa)"/> <radialGradient id="ab" cx="-2574.5" cy="-11721" r="2.9909" gradientTransform="matrix(.1712 -.3345 -.3659 -.157 -3840.9 -2707.8)" gradientUnits="userSpaceOnUse"> <stop stop-color="#A66B49" offset="0"/> <stop stop-color="#865236" offset=".7412"/> <stop stop-color="#663D29" offset="1"/> </radialGradient> <path d="m7.571-5.221c0.426 0.063 0.751-0.094 0.977-0.47s0.201-0.72-0.075-1.033c-0.188-0.225-0.488-0.313-0.902-0.263-0.4 0.05-0.664 0.182-0.789 0.395-0.175 0.313-0.194 0.601-0.056 0.864 0.15 0.288 0.432 0.457 0.845 0.507z" fill="url(#ab)"/> <radialGradient id="ac" cx="-2564.4" cy="-11732" r="2.9909" gradientTransform="matrix(.1712 -.3345 -.3659 -.157 -3848.6 -2711.1)" gradientUnits="userSpaceOnUse"> <stop stop-color="#A66B49" offset="0"/> <stop stop-color="#865236" offset=".7412"/> <stop stop-color="#663D29" offset="1"/> </radialGradient> <path d="m5.523-10.218c0.426 0.05 0.751-0.113 0.977-0.489 0.226-0.375 0.207-0.714-0.056-1.014-0.201-0.226-0.507-0.313-0.921-0.263-0.401 0.038-0.657 0.163-0.77 0.375-0.176 0.313-0.194 0.602-0.057 0.865 0.138 0.288 0.414 0.463 0.827 0.526z" fill="url(#ac)"/> <radialGradient id="ad" cx="-2673.1" cy="-12135" r="1.5715" gradientTransform="matrix(.1584 -.3407 -.3407 -.1584 -3704 -2838.8)" gradientUnits="userSpaceOnUse"> <stop stop-color="#A66B49" offset="0"/> <stop stop-color="#804E33" offset="1"/> </radialGradient> <path d="m7.29-5.409c0.213 0.075 0.388 0.094 0.526 0.056 0.125-0.037 0.187-0.118 0.187-0.244 0-0.15-0.056-0.275-0.169-0.375-0.15-0.15-0.363-0.219-0.639-0.207-0.275 0.012-0.369 0.132-0.281 0.357 0.075 0.2 0.2 0.338 0.376 0.413z" fill="url(#ad)"/> <radialGradient id="ae" cx="-2667.8" cy="-12153" r="1.3366" gradientTransform="matrix(.1581 -.3409 -.3409 -.1581 -3716 -2838.9)" gradientUnits="userSpaceOnUse"> <stop stop-color="#A66B49" offset="0"/> <stop stop-color="#804E33" offset="1"/> </radialGradient> <path d="m4.791-7.55c0.075-0.138 0.119-0.282 0.131-0.432 0.013-0.188-0.025-0.313-0.112-0.376-0.113-0.076-0.22-0.032-0.32 0.131-0.113 0.138-0.169 0.294-0.169 0.47 0 0.15 0.063 0.251 0.188 0.301 0.125 0.062 0.219 0.031 0.282-0.094z" fill="url(#ae)"/> <radialGradient id="af" cx="-2685.6" cy="-12086" r="1.644" gradientTransform="matrix(.16 -.34 -.34 -.16 -3671.8 -2854.7)" gradientUnits="userSpaceOnUse"> <stop stop-color="#A66B49" offset="0"/> <stop stop-color="#804E33" offset="1"/> </radialGradient> <path d="m7.44-7.663c0.476 0.213 0.758 0.175 0.845-0.113 0.075-0.301-0.1-0.526-0.526-0.676-0.35-0.126-0.532-0.044-0.545 0.244s0.063 0.47 0.226 0.545z" fill="url(#af)"/> <radialGradient id="ag" cx="-2665.3" cy="-12110" r="1.4763" gradientTransform="matrix(.1591 -.3404 -.3404 -.1591 -3687.6 -2844.1)" gradientUnits="userSpaceOnUse"> <stop stop-color="#A66B49" offset="0"/> <stop stop-color="#804E33" offset="1"/> </radialGradient> <path d="m11.047-10.03c0.175-0.013 0.313-0.082 0.413-0.207 0.088-0.125 0.119-0.263 0.094-0.413-0.1-0.351-0.326-0.426-0.676-0.226-0.188 0.1-0.245 0.27-0.169 0.507 0.075 0.226 0.188 0.339 0.338 0.339z" fill="url(#ag)"/> <radialGradient id="ah" cx="-2658.1" cy="-12120" r="1.3925" gradientTransform="matrix(.1585 -.3407 -.3407 -.1585 -3694.1 -2836.6)" gradientUnits="userSpaceOnUse"> <stop stop-color="#A66B49" offset="0"/> <stop stop-color="#804E33" offset="1"/> </radialGradient> <path d="m13.452-9.26c0.238-0.012 0.438-0.094 0.601-0.244 0.15-0.15 0.188-0.27 0.113-0.357-0.138-0.15-0.401-0.119-0.789 0.094-0.175 0.101-0.238 0.213-0.188 0.338 0.05 0.113 0.138 0.169 0.263 0.169z" fill="url(#ah)"/> <radialGradient id="er" cx="-2693.2" cy="-12094" r="1.2022" gradientTransform="matrix(.1602 -.3399 -.3399 -.1602 -3677.2 -2860.9)" gradientUnits="userSpaceOnUse"> <stop stop-color="#A66B49" offset="0"/> <stop stop-color="#804E33" offset="1"/> </radialGradient> <path d="m2.085-8.133c0.238 0.125 0.395 0.163 0.47 0.113 0.063-0.05 0.063-0.138 0-0.263-0.037-0.1-0.131-0.188-0.282-0.263-0.138-0.075-0.263-0.119-0.376-0.132s-0.144 0.057-0.094 0.207c0.051 0.15 0.144 0.263 0.282 0.338z" fill="url(#er)"/> <radialGradient id="es" cx="-2671.5" cy="-12158" r="1.3646" gradientTransform="matrix(.1583 -.3408 -.3408 -.1583 -3719.6 -2844.6)" gradientUnits="userSpaceOnUse"> <stop stop-color="#A66B49" offset="0"/> <stop stop-color="#804E33" offset="1"/> </radialGradient> <path d="m0.507-8.922c0.188 0.025 0.332 0 0.432-0.075 0.112-0.075 0.15-0.188 0.112-0.338-0.037-0.125-0.163-0.2-0.375-0.225h-0.545c-0.163-0.026-0.181 0.068-0.056 0.281s0.269 0.332 0.432 0.357z" fill="url(#es)"/> <radialGradient id="et" cx="-2673.8" cy="-12131" r="1.682" gradientTransform="matrix(.1591 -.3404 -.3404 -.1591 -3702 -2850.4)" gradientUnits="userSpaceOnUse"> <stop stop-color="#A66B49" offset="0"/> <stop stop-color="#804E33" offset="1"/> </radialGradient> <path d="m2.687-10.293c0.401 0.075 0.595-0.088 0.583-0.488-0.025-0.401-0.226-0.583-0.601-0.545-0.338 0.05-0.489 0.225-0.451 0.526s0.193 0.469 0.469 0.507z" fill="url(#et)"/> <radialGradient id="eu" cx="-2683.4" cy="-12063" r="1.5488" gradientTransform="matrix(.1607 -.3397 -.3397 -.1607 -3656.7 -2861.8)" gradientUnits="userSpaceOnUse"> <stop stop-color="#A66B49" offset="0"/> <stop stop-color="#804E33" offset="1"/> </radialGradient> <path d="m9.356-11.177c0.188 0.025 0.301 0.013 0.338-0.037 0.038-0.063 0.031-0.213-0.019-0.451-0.063-0.238-0.163-0.401-0.301-0.488-0.138-0.088-0.269-0.069-0.395 0.056-0.113 0.125-0.125 0.301-0.038 0.526 0.09 0.238 0.227 0.369 0.415 0.394z" fill="url(#eu)"/> <radialGradient id="ev" cx="-2678" cy="-12101" r="1.5322" gradientTransform="matrix(.1594 -.3403 -.3403 -.1594 -3681.4 -2847.7)" gradientUnits="userSpaceOnUse"> <stop stop-color="#A66B49" offset="0"/> <stop stop-color="#804E33" offset="1"/> </radialGradient> <path d="m9.168-7.175c0.489 0.075 0.708-0.062 0.658-0.413-0.05-0.376-0.245-0.533-0.583-0.47-0.275 0.05-0.413 0.207-0.413 0.47 0 0.251 0.113 0.388 0.338 0.413z" fill="url(#ev)"/> <radialGradient id="ew" cx="-2675.9" cy="-12127" r="1.0066" gradientTransform="matrix(.1586 -.3406 -.3406 -.1586 -3699 -2841.1)" gradientUnits="userSpaceOnUse"> <stop stop-color="#804E33" offset="0"/> <stop stop-color="#704630" offset="1"/> </radialGradient> <path d="m7.29-5.502c0.376 0.1 0.551 0.082 0.526-0.057-0.012-0.075-0.063-0.15-0.15-0.225-0.113-0.088-0.25-0.132-0.414-0.132-0.175 0-0.244 0.057-0.207 0.169 0.038 0.125 0.12 0.207 0.245 0.245z" fill="url(#ew)"/> <radialGradient id="ex" cx="-2654.8" cy="-12188" r=".688" gradientTransform="matrix(.157 -.3414 -.3414 -.157 -3739.3 -2828.1)" gradientUnits="userSpaceOnUse"> <stop stop-color="#804E33" offset="0"/> <stop stop-color="#704630" offset="1"/> </radialGradient> <path d="m4.434-7.738c-0.025 0.1-6e-3 0.119 0.057 0.056 0.063-0.075 0.094-0.182 0.094-0.319 0-0.163-0.012-0.231-0.038-0.207-0.038 0.038-0.076 0.194-0.113 0.47z" fill="url(#ex)"/> <radialGradient id="ey" cx="-2694.6" cy="-12090" r=".7325" gradientTransform="matrix(.1603 -.3399 -.3399 -.1603 -3674.8 -2862.1)" gradientUnits="userSpaceOnUse"> <stop stop-color="#804E33" offset="0"/> <stop stop-color="#704630" offset="1"/> </radialGradient> <path d="m2.273-8.114c0.125 0.012 0.15-0.044 0.075-0.169-0.087-0.113-0.213-0.182-0.375-0.207-0.176-0.012-0.201 0.044-0.076 0.169 0.125 0.138 0.251 0.207 0.376 0.207z" fill="url(#ey)"/> <radialGradient id="ez" cx="-2678.2" cy="-12140" r=".8276" gradientTransform="matrix(.1589 -.3405 -.3405 -.1589 -3707.7 -2850.1)" gradientUnits="userSpaceOnUse"> <stop stop-color="#804E33" offset="0"/> <stop stop-color="#704630" offset="1"/> </radialGradient> <path d="m0.526-8.997c0.163 0 0.25-0.056 0.263-0.169 0.012-0.088-0.038-0.15-0.15-0.188-0.126-0.038-0.257-0.025-0.395 0.038-0.125 0.062-0.138 0.131-0.037 0.206 0.087 0.075 0.194 0.113 0.319 0.113z" fill="url(#ez)"/> <radialGradient id="fa" cx="-2689.7" cy="-12086" r=".9953" gradientTransform="matrix(.1605 -.3398 -.3398 -.1605 -3672.5 -2863.9)" gradientUnits="userSpaceOnUse"> <stop stop-color="#A66B49" offset="0"/> <stop stop-color="#865236" offset=".7412"/> <stop stop-color="#663D29" offset="1"/> </radialGradient> <path d="m2.855-10.462c0.138-0.013 0.219-0.057 0.245-0.132 0.012-0.025 0.012-0.106 0-0.244-0.013-0.113-0.076-0.194-0.188-0.244-0.125-0.05-0.244-0.031-0.357 0.056-0.1 0.075-0.106 0.194-0.019 0.357 0.1 0.15 0.207 0.219 0.319 0.207z" fill="url(#fa)"/> <radialGradient id="fc" cx="-2681.4" cy="-12067" r=".7604" gradientTransform="matrix(.1606 -.3397 -.3397 -.1606 -3659.4 -2860.5)" gradientUnits="userSpaceOnUse"> <stop stop-color="#804E33" offset="0"/> <stop stop-color="#704630" offset="1"/> </radialGradient> <path d="m9.601-11.477c-0.025-0.201-0.094-0.357-0.207-0.47-0.1-0.113-0.15-0.088-0.15 0.075 0 0.125 0.063 0.238 0.188 0.338 0.112 0.088 0.169 0.107 0.169 0.057z" fill="url(#fc)"/> <radialGradient id="fd" cx="-2672.8" cy="-12088" r=".9115" gradientTransform="matrix(.1598 -.3401 -.3401 -.1598 -3673.3 -2850.6)" gradientUnits="userSpaceOnUse"> <stop stop-color="#804E33" offset="0"/> <stop stop-color="#704630" offset="1"/> </radialGradient> <path d="m11.197-10.181c0.176-0.075 0.238-0.201 0.188-0.376-0.025-0.113-0.075-0.188-0.15-0.225-0.1-0.025-0.188 0.031-0.263 0.169s-0.082 0.257-0.019 0.357c0.063 0.088 0.144 0.113 0.244 0.075z" fill="url(#fd)"/> <radialGradient id="fe" cx="-2675.1" cy="-12073" r=".7046" gradientTransform="matrix(.16 -.34 -.34 -.16 -3663.2 -2850.7)" gradientUnits="userSpaceOnUse"> <stop stop-color="#804E33" offset="0"/> <stop stop-color="#704630" offset="1"/> </radialGradient> <path d="m13.734-9.354c0.201-0.113 0.282-0.201 0.245-0.263-0.05-0.038-0.213 0.019-0.489 0.169-0.088 0.05-0.094 0.094-0.019 0.132 0.088 0.024 0.175 0.012 0.263-0.038z" fill="url(#fe)"/> <radialGradient id="ff" cx="-2675.5" cy="-12107" r=".8556" gradientTransform="matrix(.1592 -.3404 -.3404 -.1592 -3685.6 -2845.7)" gradientUnits="userSpaceOnUse"> <stop stop-color="#804E33" offset="0"/> <stop stop-color="#704630" offset="1"/> </radialGradient> <path d="m9.337-7.362c0.151-0.038 0.245-0.07 0.283-0.095 0.038-0.038 0.031-0.1-0.019-0.188-0.163-0.237-0.313-0.281-0.451-0.131-0.088 0.1-0.101 0.2-0.038 0.301 0.063 0.1 0.138 0.138 0.225 0.113z" fill="url(#ff)"/> <radialGradient id="fg" cx="-2690.9" cy="-12072" r=".9953" gradientTransform="matrix(.1605 -.3398 -.3398 -.1605 -3662.3 -2859.1)" gradientUnits="userSpaceOnUse"> <stop stop-color="#804E33" offset="0"/> <stop stop-color="#704630" offset="1"/> </radialGradient> <path d="m7.741-7.663c0.163-0.013 0.256-0.038 0.282-0.075 0.025-0.025 6e-3 -0.088-0.056-0.188-0.064-0.113-0.183-0.195-0.358-0.244-0.175-0.063-0.263-0.05-0.263 0.038-0.012 0.1 0.025 0.2 0.113 0.301 0.1 0.111 0.194 0.168 0.282 0.168z" fill="url(#fg)"/> <radialGradient id="fh" cx="-2816.6" cy="-11711" r="14.01" gradientTransform="matrix(.1717 -.3343 -.3343 -.1717 -3423.6 -2957.6)" gradientUnits="userSpaceOnUse"> <stop stop-color="#523729" offset="0"/> <stop stop-color="#473125" offset="1"/> </radialGradient> <path d="m10.074-4.341c0.201-0.113 0.276-0.269 0.226-0.47-0.05-0.251-0.056-0.407-0.019-0.47 0.087-0.113 0.363-0.238 0.827-0.376 0.539-0.15 0.827-0.238 0.864-0.263 0.113-0.063 0.326-0.37 0.639-0.92 0.313-0.526 0.489-0.789 0.526-0.789 0.15 0 0.307-0.082 0.47-0.244 0.213-0.213 0.27-0.495 0.169-0.846-0.088-0.351-0.332-0.52-0.733-0.507l-0.583 0.113c-0.15 0.05-0.313 0.075-0.488 0.075-0.363 0.012-0.626-0.088-0.789-0.301-0.175-0.238-0.57-0.357-1.183-0.357-0.539 0-0.958 0.075-1.259 0.226-0.188 0.087-0.432 0.069-0.733-0.057-0.351-0.138-0.633-0.194-0.846-0.169-0.125 0.013-0.463 0.144-1.014 0.395-0.426 0.188-0.802 0.225-1.127 0.113-0.339-0.113-0.765-0.069-1.278 0.131-0.451 0.238-0.701 0.37-0.751 0.395-0.076 0.025-0.182 0.138-0.32 0.338s-0.194 0.326-0.169 0.376c0.012 0.025 0.25 0.2 0.714 0.526 0.338 0.25 0.871 0.514 1.597 0.789 0.15 0.063 0.426 0.163 0.827 0.301 0.363 0.15 0.613 0.294 0.751 0.432 1.115 0.989 1.747 1.647 1.898 1.972 0.551 0.088 1.146-0.05 1.784-0.413z" fill="url(#fh)"/> <radialGradient id="fi" cx="-2577.4" cy="-11691" r="2.84" gradientTransform="matrix(.172 -.3341 -.3655 -.1571 -3819.7 -2701.8)" gradientUnits="userSpaceOnUse"> <stop stop-color="#7D4E35" offset="0"/> <stop stop-color="#593826" offset="1"/> </radialGradient> <path d="m10.056-3.308c0.401 0.05 0.708-0.106 0.92-0.47 0.213-0.363 0.194-0.689-0.056-0.977-0.188-0.213-0.482-0.294-0.883-0.244-0.375 0.038-0.62 0.163-0.732 0.375-0.164 0.289-0.182 0.565-0.057 0.828 0.138 0.263 0.407 0.425 0.808 0.488z" fill="url(#fi)"/> <radialGradient id="fj" cx="-2577" cy="-11700" r="2.84" gradientTransform="matrix(.172 -.3341 -.3655 -.1571 -3826.3 -2704.6)" gradientUnits="userSpaceOnUse"> <stop stop-color="#7D4E35" offset="0"/> <stop stop-color="#593826" offset="1"/> </radialGradient> <path d="m6.88-4.849c0.414 0.05 0.727-0.1 0.939-0.451 0.213-0.363 0.194-0.689-0.056-0.977-0.187-0.212-0.482-0.3-0.883-0.263-0.375 0.05-0.62 0.176-0.732 0.376-0.163 0.301-0.182 0.577-0.057 0.827 0.138 0.275 0.401 0.439 0.789 0.488z" fill="url(#fj)"/> <radialGradient id="fk" cx="-2576.8" cy="-11710" r="2.8416" gradientTransform="matrix(.172 -.3341 -.3655 -.1571 -3833.3 -2707.7)" gradientUnits="userSpaceOnUse"> <stop stop-color="#7D4E35" offset="0"/> <stop stop-color="#593826" offset="1"/> </radialGradient> <path d="m3.518-6.389c0.413 0.05 0.726-0.106 0.939-0.47 0.213-0.35 0.194-0.676-0.057-0.977-0.188-0.213-0.482-0.294-0.882-0.244-0.376 0.038-0.62 0.163-0.733 0.376-0.163 0.288-0.182 0.563-0.056 0.827 0.137 0.262 0.4 0.425 0.789 0.488z" fill="url(#fk)"/> <radialGradient id="gb" cx="-2572.4" cy="-11703" r="2.84" gradientTransform="matrix(.172 -.3341 -.3655 -.1571 -3828.8 -2705.7)" gradientUnits="userSpaceOnUse"> <stop stop-color="#7D4E35" offset="0"/> <stop stop-color="#593826" offset="1"/> </radialGradient> <path d="m6.467-6.915c0.413 0.05 0.727-0.1 0.939-0.451 0.214-0.363 0.195-0.689-0.056-0.977-0.188-0.213-0.482-0.301-0.883-0.263-0.376 0.05-0.62 0.175-0.733 0.375-0.162 0.301-0.181 0.577-0.056 0.828 0.138 0.275 0.401 0.438 0.789 0.488z" fill="url(#gb)"/> <radialGradient id="fl" cx="-2567.1" cy="-11701" r="2.84" gradientTransform="matrix(.172 -.3341 -.3655 -.1571 -3827.4 -2705.1)" gradientUnits="userSpaceOnUse"> <stop stop-color="#7D4E35" offset="0"/> <stop stop-color="#593826" offset="1"/> </radialGradient> <path d="m8.083-8.362c0.414 0.05 0.727-0.106 0.939-0.47 0.213-0.35 0.188-0.669-0.075-0.958-0.188-0.213-0.482-0.301-0.883-0.263-0.375 0.05-0.62 0.175-0.732 0.376-0.15 0.3-0.163 0.576-0.038 0.827 0.138 0.275 0.401 0.438 0.789 0.488z" fill="url(#fl)"/> <radialGradient id="fm" cx="-2573.8" cy="-11695" r="2.84" gradientTransform="matrix(.172 -.3341 -.3655 -.1571 -3823.1 -2703.2)" gradientUnits="userSpaceOnUse"> <stop stop-color="#7D4E35" offset="0"/> <stop stop-color="#593826" offset="1"/> </radialGradient> <path d="m9.003-5.224c0.414 0.05 0.727-0.106 0.939-0.47 0.213-0.351 0.194-0.67-0.056-0.958-0.187-0.213-0.482-0.301-0.883-0.263-0.375 0.038-0.62 0.163-0.732 0.375-0.163 0.289-0.182 0.564-0.057 0.828 0.139 0.262 0.401 0.425 0.789 0.488z" fill="url(#fm)"/> <radialGradient id="fn" cx="-2568.6" cy="-11694" r="2.84" gradientTransform="matrix(.172 -.3341 -.3655 -.1571 -3821.9 -2702.8)" gradientUnits="userSpaceOnUse"> <stop stop-color="#7D4E35" offset="0"/> <stop stop-color="#593826" offset="1"/> </radialGradient> <path d="m10.469-6.765c0.4 0.05 0.708-0.101 0.92-0.451 0.213-0.363 0.194-0.689-0.056-0.977-0.188-0.213-0.482-0.3-0.883-0.263-0.376 0.05-0.62 0.176-0.732 0.376-0.163 0.301-0.182 0.576-0.057 0.827 0.138 0.275 0.407 0.438 0.808 0.488z" fill="url(#fn)"/> <radialGradient id="fo" cx="-2566.2" cy="-11689" r="2.84" gradientTransform="matrix(.172 -.3341 -.3655 -.1571 -3818.5 -2701.3)" gradientUnits="userSpaceOnUse"> <stop stop-color="#7D4E35" offset="0"/> <stop stop-color="#593826" offset="1"/> </radialGradient> <path d="m12.555-6.84c0.413 0.05 0.726-0.101 0.939-0.451 0.213-0.363 0.194-0.689-0.057-0.977-0.188-0.212-0.482-0.3-0.883-0.263-0.376 0.05-0.62 0.175-0.733 0.375-0.163 0.301-0.182 0.576-0.056 0.827 0.138 0.276 0.402 0.439 0.79 0.489z" fill="url(#fo)"/> <radialGradient id="fp" cx="-2562" cy="-11686" r="2.84" gradientTransform="matrix(.172 -.3341 -.3655 -.1571 -3816.3 -2700.3)" gradientUnits="userSpaceOnUse"> <stop stop-color="#7D4E35" offset="0"/> <stop stop-color="#593826" offset="1"/> </radialGradient> <path d="m14.321-7.779c0.413 0.05 0.726-0.1 0.939-0.451 0.213-0.363 0.194-0.689-0.057-0.977-0.188-0.212-0.482-0.3-0.883-0.263-0.376 0.05-0.62 0.175-0.733 0.376-0.163 0.3-0.182 0.576-0.056 0.826 0.138 0.276 0.401 0.438 0.79 0.489z" fill="url(#fp)"/> <radialGradient id="fq" cx="-2571" cy="-11688" r="2.84" gradientTransform="matrix(.172 -.3341 -.3655 -.1571 -3817.8 -2701)" gradientUnits="userSpaceOnUse"> <stop stop-color="#7D4E35" offset="0"/> <stop stop-color="#593826" offset="1"/> </radialGradient> <path d="m12.047-5.111c0.401 0.063 0.708-0.088 0.92-0.451s0.194-0.689-0.056-0.977c-0.188-0.213-0.482-0.294-0.883-0.244-0.375 0.038-0.62 0.163-0.732 0.376-0.163 0.287-0.182 0.556-0.057 0.807 0.138 0.276 0.407 0.438 0.808 0.489z" fill="url(#fq)"/> <radialGradient id="fr" cx="-2581.8" cy="-11712" r="2.7673" gradientTransform="matrix(.1714 -.3344 -.3666 -.1579 -3842.8 -2715.1)" gradientUnits="userSpaceOnUse"> <stop stop-color="#8D5739" offset="0"/> <stop stop-color="#5E3B29" offset="1"/> </radialGradient> <path d="m8.571-2.519c0.401 0.05 0.702-0.101 0.902-0.451 0.213-0.338 0.194-0.651-0.056-0.939-0.175-0.213-0.458-0.294-0.846-0.244-0.363 0.037-0.601 0.156-0.714 0.357-0.162 0.288-0.181 0.557-0.056 0.808 0.125 0.262 0.382 0.419 0.77 0.469z" fill="url(#fr)"/> <radialGradient id="fs" cx="-2638.6" cy="-11994" r="2.9128" gradientTransform="matrix(.1629 -.3386 -.3483 -.158 -3740.4 -2793.4)" gradientUnits="userSpaceOnUse"> <stop stop-color="#8D5739" offset="0"/> <stop stop-color="#5E3B29" offset="1"/> </radialGradient> <path d="m7.651-3.759c0.388 0.05 0.689-0.106 0.902-0.47 0.213-0.375 0.194-0.714-0.056-1.014-0.188-0.213-0.477-0.295-0.865-0.244-0.363 0.037-0.601 0.163-0.714 0.376-0.163 0.313-0.182 0.601-0.056 0.864 0.138 0.275 0.401 0.438 0.789 0.488z" fill="url(#fs)"/> <radialGradient id="ft" cx="-2620.8" cy="-11928" r="2.8791" gradientTransform="matrix(.1648 -.3377 -.3524 -.1582 -3761.3 -2777.9)" gradientUnits="userSpaceOnUse"> <stop stop-color="#8D5739" offset="0"/> <stop stop-color="#5E3B29" offset="1"/> </radialGradient> <path d="m10.188-4.661c0.388 0.05 0.688-0.106 0.901-0.47s0.194-0.695-0.056-0.996c-0.188-0.213-0.476-0.294-0.864-0.244-0.364 0.038-0.602 0.163-0.714 0.376-0.163 0.301-0.182 0.583-0.057 0.846 0.138 0.275 0.401 0.439 0.79 0.488z" fill="url(#ft)"/> <radialGradient id="fu" cx="-2577.2" cy="-11724" r="2.7673" gradientTransform="matrix(.1714 -.3344 -.3666 -.1579 -3851.6 -2718.9)" gradientUnits="userSpaceOnUse"> <stop stop-color="#8D5739" offset="0"/> <stop stop-color="#5E3B29" offset="1"/> </radialGradient> <path d="m5.058-5.9c0.388 0.05 0.689-0.101 0.902-0.451 0.213-0.338 0.194-0.651-0.057-0.939-0.188-0.214-0.475-0.295-0.864-0.245-0.363 0.037-0.601 0.157-0.714 0.357-0.15 0.288-0.162 0.557-0.037 0.808 0.137 0.263 0.394 0.419 0.77 0.47z" fill="url(#fu)"/> <radialGradient id="fw" cx="-2569.9" cy="-11718" r="2.7673" gradientTransform="matrix(.1714 -.3344 -.3666 -.1579 -3847.1 -2717)" gradientUnits="userSpaceOnUse"> <stop stop-color="#8D5739" offset="0"/> <stop stop-color="#5E3B29" offset="1"/> </radialGradient> <path d="m8.515-7.385c0.401 0.05 0.708-0.1 0.92-0.451 0.201-0.338 0.176-0.651-0.075-0.939-0.175-0.213-0.457-0.294-0.845-0.245-0.363 0.038-0.601 0.157-0.714 0.358-0.15 0.288-0.169 0.557-0.057 0.808 0.139 0.263 0.395 0.419 0.771 0.469z" fill="url(#fw)"/> <radialGradient id="fx" cx="-2565" cy="-11711" r="2.7673" gradientTransform="matrix(.1714 -.3344 -.3666 -.1579 -3842.4 -2715)" gradientUnits="userSpaceOnUse"> <stop stop-color="#8D5739" offset="0"/> <stop stop-color="#5E3B29" offset="1"/> </radialGradient> <path d="m11.653-8.061c0.4 0.05 0.701-0.101 0.902-0.451 0.213-0.338 0.194-0.651-0.057-0.939-0.175-0.2-0.457-0.282-0.845-0.244-0.376 0.05-0.614 0.169-0.714 0.357-0.163 0.288-0.182 0.558-0.057 0.808 0.126 0.262 0.383 0.419 0.771 0.469z" fill="url(#fx)"/> <radialGradient id="fy" cx="-2572.1" cy="-11726" r="2.7656" gradientTransform="matrix(.1714 -.3344 -.3666 -.1579 -3852.5 -2719.3)" gradientUnits="userSpaceOnUse"> <stop stop-color="#8D5739" offset="0"/> <stop stop-color="#5E3B29" offset="1"/> </radialGradient> <path d="m5.49-7.798c0.401 0.05 0.702-0.1 0.902-0.451 0.213-0.338 0.194-0.651-0.056-0.939-0.176-0.213-0.458-0.295-0.846-0.245-0.376 0.038-0.614 0.157-0.714 0.357-0.163 0.288-0.181 0.557-0.056 0.808 0.125 0.263 0.382 0.42 0.77 0.47z" fill="url(#fy)"/> <radialGradient id="fz" cx="-2577.2" cy="-11733" r="2.7673" gradientTransform="matrix(.1714 -.3344 -.3666 -.1579 -3858.2 -2721.8)" gradientUnits="userSpaceOnUse"> <stop stop-color="#8D5739" offset="0"/> <stop stop-color="#5E3B29" offset="1"/> </radialGradient> <path d="m1.883-7.31c0.388 0.05 0.689-0.101 0.902-0.451 0.213-0.338 0.194-0.651-0.056-0.939-0.176-0.213-0.458-0.294-0.846-0.244-0.376 0.037-0.62 0.156-0.733 0.357-0.15 0.288-0.163 0.557-0.038 0.808 0.138 0.263 0.395 0.419 0.771 0.469z" fill="url(#fz)"/> <radialGradient id="ga" cx="-2580.5" cy="-11721" r="2.7673" gradientTransform="matrix(.1714 -.3344 -.3666 -.1579 -3849.1 -2717.9)" gradientUnits="userSpaceOnUse"> <stop stop-color="#8D5739" offset="0"/> <stop stop-color="#5E3B29" offset="1"/> </radialGradient> <path d="m5.697-4.285c0.401 0.05 0.702-0.1 0.902-0.451 0.213-0.338 0.194-0.651-0.056-0.939-0.176-0.213-0.458-0.294-0.846-0.244-0.364 0.037-0.601 0.156-0.714 0.356-0.163 0.289-0.182 0.558-0.056 0.809 0.125 0.263 0.382 0.419 0.77 0.469z" fill="url(#ga)"/> <radialGradient id="gc" cx="-2569.3" cy="-11706" r="2.7673" gradientTransform="matrix(.1714 -.3344 -.3666 -.1579 -3838.6 -2713.4)" gradientUnits="userSpaceOnUse"> <stop stop-color="#8D5739" offset="0"/> <stop stop-color="#5E3B29" offset="1"/> </radialGradient> <path d="m12.724-5.863c0.388 0.05 0.689-0.101 0.902-0.451 0.213-0.338 0.194-0.651-0.056-0.939-0.188-0.2-0.476-0.282-0.865-0.244-0.363 0.05-0.601 0.169-0.714 0.357-0.163 0.301-0.182 0.57-0.056 0.808 0.137 0.262 0.4 0.419 0.789 0.469z" fill="url(#gc)"/> <radialGradient id="gd" cx="-2611.3" cy="-11934" r="2.8791" gradientTransform="matrix(.1648 -.3377 -.3524 -.1582 -3765.7 -2779.9)" gradientUnits="userSpaceOnUse"> <stop stop-color="#8D5739" offset="0"/> <stop stop-color="#5E3B29" offset="1"/> </radialGradient> <path d="m9.548-8.888c0.401 0.05 0.702-0.106 0.902-0.47 0.213-0.363 0.194-0.689-0.056-0.977-0.176-0.226-0.458-0.313-0.846-0.263-0.363 0.038-0.601 0.163-0.714 0.376-0.163 0.3-0.182 0.583-0.056 0.845 0.125 0.276 0.382 0.439 0.77 0.489z" fill="url(#gd)"/> <radialGradient id="ge" cx="-2572.3" cy="-11729" r="2.9909" gradientTransform="matrix(.1712 -.3345 -.3659 -.157 -3845.1 -2708.4)" gradientUnits="userSpaceOnUse"> <stop stop-color="#A66B49" offset="0"/> <stop stop-color="#865236" offset=".7412"/> <stop stop-color="#663D29" offset="1"/> </radialGradient> <path d="m6.392-5.375c0.426 0.063 0.751-0.094 0.977-0.47 0.225-0.375 0.207-0.72-0.057-1.033-0.2-0.226-0.507-0.313-0.92-0.263-0.401 0.051-0.664 0.182-0.789 0.395-0.163 0.313-0.182 0.601-0.057 0.864 0.151 0.288 0.433 0.458 0.846 0.507z" fill="url(#ge)"/> <radialGradient id="gf" cx="-2568.8" cy="-11739" r="2.9909" gradientTransform="matrix(.1712 -.3345 -.3659 -.157 -3852.5 -2711.6)" gradientUnits="userSpaceOnUse"> <stop stop-color="#A66B49" offset="0"/> <stop stop-color="#865236" offset=".7412"/> <stop stop-color="#663D29" offset="1"/> </radialGradient> <path d="m3.405-8.061c0.426 0.05 0.751-0.113 0.977-0.489 0.226-0.375 0.207-0.72-0.057-1.033-0.2-0.226-0.507-0.313-0.92-0.263-0.401 0.05-0.664 0.182-0.789 0.395-0.176 0.313-0.195 0.601-0.057 0.864 0.15 0.288 0.432 0.463 0.846 0.526z" fill="url(#gf)"/> <radialGradient id="gg" cx="-2568.1" cy="-11723" r="2.9909" gradientTransform="matrix(.1712 -.3345 -.3659 -.157 -3841.2 -2706.7)" gradientUnits="userSpaceOnUse"> <stop stop-color="#A66B49" offset="0"/> <stop stop-color="#865236" offset=".7412"/> <stop stop-color="#663D29" offset="1"/> </radialGradient> <path d="m9.003-5.976c0.426 0.063 0.752-0.094 0.977-0.469 0.226-0.376 0.2-0.72-0.075-1.033-0.2-0.226-0.507-0.313-0.92-0.263-0.388 0.049-0.645 0.181-0.771 0.394-0.175 0.313-0.194 0.601-0.056 0.864 0.151 0.288 0.432 0.457 0.845 0.507z" fill="url(#gg)"/> <radialGradient id="gi" cx="-2574.5" cy="-11721" r="2.9909" gradientTransform="matrix(.1712 -.3345 -.3659 -.157 -3839.9 -2706.2)" gradientUnits="userSpaceOnUse"> <stop stop-color="#A66B49" offset="0"/> <stop stop-color="#865236" offset=".7412"/> <stop stop-color="#663D29" offset="1"/> </radialGradient> <path d="m8.571-3.571c0.426 0.063 0.751-0.094 0.977-0.47s0.201-0.72-0.075-1.033c-0.188-0.225-0.488-0.313-0.902-0.263-0.4 0.05-0.664 0.182-0.789 0.395-0.175 0.313-0.194 0.601-0.056 0.864 0.15 0.288 0.432 0.457 0.845 0.507z" fill="url(#gi)"/> <radialGradient id="gj" cx="-2564.4" cy="-11732" r="2.9909" gradientTransform="matrix(.1712 -.3345 -.3659 -.157 -3847.6 -2709.5)" gradientUnits="userSpaceOnUse"> <stop stop-color="#A66B49" offset="0"/> <stop stop-color="#865236" offset=".7412"/> <stop stop-color="#663D29" offset="1"/> </radialGradient> <path d="m6.523-8.568c0.426 0.049 0.752-0.113 0.977-0.489 0.226-0.375 0.207-0.714-0.056-1.014-0.201-0.226-0.507-0.313-0.921-0.263-0.401 0.038-0.657 0.163-0.77 0.375-0.175 0.313-0.194 0.602-0.056 0.865 0.137 0.288 0.413 0.463 0.826 0.526z" fill="url(#gj)"/> <radialGradient id="gk" cx="-2673.1" cy="-12135" r="1.5715" gradientTransform="matrix(.1584 -.3407 -.3407 -.1584 -3703 -2837.1)" gradientUnits="userSpaceOnUse"> <stop stop-color="#A66B49" offset="0"/> <stop stop-color="#804E33" offset="1"/> </radialGradient> <path d="m8.29-3.759c0.213 0.075 0.388 0.094 0.526 0.056 0.125-0.037 0.187-0.118 0.187-0.244 0-0.15-0.056-0.275-0.169-0.375-0.15-0.15-0.363-0.219-0.639-0.207-0.275 0.012-0.369 0.132-0.281 0.357 0.075 0.2 0.2 0.338 0.376 0.413z" fill="url(#gk)"/> <radialGradient id="gl" cx="-2667.8" cy="-12153" r="1.3366" gradientTransform="matrix(.1581 -.3409 -.3409 -.1581 -3715 -2837.3)" gradientUnits="userSpaceOnUse"> <stop stop-color="#A66B49" offset="0"/> <stop stop-color="#804E33" offset="1"/> </radialGradient> <path d="m5.791-5.9c0.075-0.138 0.119-0.282 0.131-0.433 0.013-0.188-0.025-0.313-0.112-0.375-0.113-0.076-0.22-0.032-0.32 0.131-0.113 0.138-0.169 0.294-0.169 0.47 0 0.15 0.063 0.251 0.188 0.301 0.125 0.062 0.219 0.031 0.282-0.094z" fill="url(#gl)"/> <radialGradient id="gm" cx="-2685.6" cy="-12086" r="1.644" gradientTransform="matrix(.16 -.34 -.34 -.16 -3670.8 -2853.1)" gradientUnits="userSpaceOnUse"> <stop stop-color="#A66B49" offset="0"/> <stop stop-color="#804E33" offset="1"/> </radialGradient> <path d="m8.44-6.013c0.476 0.213 0.758 0.175 0.845-0.113 0.075-0.301-0.1-0.526-0.526-0.676-0.35-0.126-0.532-0.044-0.545 0.244s0.063 0.47 0.226 0.545z" fill="url(#gm)"/> <radialGradient id="gn" cx="-2665.3" cy="-12110" r="1.4763" gradientTransform="matrix(.1591 -.3404 -.3404 -.1591 -3686.6 -2842.5)" gradientUnits="userSpaceOnUse"> <stop stop-color="#A66B49" offset="0"/> <stop stop-color="#804E33" offset="1"/> </radialGradient> <path d="m12.047-8.38c0.175-0.013 0.313-0.082 0.413-0.207 0.088-0.125 0.12-0.263 0.095-0.413-0.1-0.351-0.326-0.426-0.676-0.226-0.188 0.1-0.245 0.27-0.169 0.507 0.074 0.226 0.187 0.339 0.337 0.339z" fill="url(#gn)"/> <radialGradient id="go" cx="-2658.1" cy="-12120" r="1.3925" gradientTransform="matrix(.1585 -.3407 -.3407 -.1585 -3693.1 -2834.9)" gradientUnits="userSpaceOnUse"> <stop stop-color="#A66B49" offset="0"/> <stop stop-color="#804E33" offset="1"/> </radialGradient> <path d="m14.452-7.61c0.238-0.012 0.438-0.094 0.601-0.244 0.15-0.15 0.188-0.27 0.113-0.357-0.138-0.15-0.401-0.119-0.789 0.094-0.175 0.101-0.238 0.213-0.188 0.338 0.05 0.112 0.138 0.169 0.263 0.169z" fill="url(#go)"/> <radialGradient id="gp" cx="-2693.2" cy="-12094" r="1.2022" gradientTransform="matrix(.1602 -.3399 -.3399 -.1602 -3676.2 -2859.3)" gradientUnits="userSpaceOnUse"> <stop stop-color="#A66B49" offset="0"/> <stop stop-color="#804E33" offset="1"/> </radialGradient> <path d="m3.085-6.483c0.238 0.125 0.395 0.163 0.47 0.113 0.063-0.05 0.063-0.138 0-0.263-0.037-0.1-0.131-0.188-0.282-0.263-0.138-0.075-0.263-0.119-0.376-0.132s-0.144 0.057-0.094 0.207c0.051 0.15 0.144 0.263 0.282 0.338z" fill="url(#gp)"/> <radialGradient id="gq" cx="-2671.5" cy="-12158" r="1.3646" gradientTransform="matrix(.1583 -.3408 -.3408 -.1583 -3718.6 -2842.9)" gradientUnits="userSpaceOnUse"> <stop stop-color="#A66B49" offset="0"/> <stop stop-color="#804E33" offset="1"/> </radialGradient> <path d="m1.507-7.272c0.188 0.025 0.332 0 0.432-0.075 0.112-0.075 0.15-0.188 0.112-0.338-0.037-0.125-0.163-0.2-0.375-0.225h-0.545c-0.163-0.026-0.181 0.068-0.056 0.281s0.269 0.332 0.432 0.357z" fill="url(#gq)"/> <radialGradient id="gr" cx="-2673.8" cy="-12131" r="1.682" gradientTransform="matrix(.1591 -.3404 -.3404 -.1591 -3701 -2848.8)" gradientUnits="userSpaceOnUse"> <stop stop-color="#A66B49" offset="0"/> <stop stop-color="#804E33" offset="1"/> </radialGradient> <path d="m3.687-8.644c0.401 0.075 0.595-0.088 0.583-0.488-0.026-0.401-0.227-0.583-0.602-0.545-0.338 0.05-0.489 0.225-0.451 0.526s0.194 0.47 0.47 0.507z" fill="url(#gr)"/> <radialGradient id="gt" cx="-2683.4" cy="-12063" r="1.5488" gradientTransform="matrix(.1607 -.3397 -.3397 -.1607 -3655.7 -2860.2)" gradientUnits="userSpaceOnUse"> <stop stop-color="#A66B49" offset="0"/> <stop stop-color="#804E33" offset="1"/> </radialGradient> <path d="m10.356-9.527c0.188 0.025 0.301 0.013 0.338-0.037 0.038-0.063 0.031-0.213-0.019-0.451-0.063-0.238-0.163-0.401-0.301-0.488-0.138-0.088-0.269-0.069-0.395 0.056-0.113 0.125-0.125 0.301-0.038 0.526 0.09 0.238 0.227 0.369 0.415 0.394z" fill="url(#gt)"/> <radialGradient id="gu" cx="-2678" cy="-12101" r="1.5322" gradientTransform="matrix(.1594 -.3403 -.3403 -.1594 -3680.4 -2846)" gradientUnits="userSpaceOnUse"> <stop stop-color="#A66B49" offset="0"/> <stop stop-color="#804E33" offset="1"/> </radialGradient> <path d="m10.168-5.525c0.489 0.075 0.708-0.063 0.658-0.413-0.05-0.376-0.245-0.533-0.583-0.47-0.275 0.05-0.413 0.207-0.413 0.47 0 0.25 0.113 0.388 0.338 0.413z" fill="url(#gu)"/> <radialGradient id="gv" cx="-2675.9" cy="-12127" r="1.0066" gradientTransform="matrix(.1586 -.3406 -.3406 -.1586 -3698 -2839.4)" gradientUnits="userSpaceOnUse"> <stop stop-color="#804E33" offset="0"/> <stop stop-color="#704630" offset="1"/> </radialGradient> <path d="m8.29-3.853c0.376 0.1 0.551 0.082 0.526-0.057-0.012-0.075-0.063-0.15-0.15-0.225-0.113-0.088-0.25-0.132-0.414-0.132-0.175 0-0.244 0.057-0.207 0.169 0.038 0.126 0.12 0.208 0.245 0.245z" fill="url(#gv)"/> <radialGradient id="gw" cx="-2654.8" cy="-12188" r=".688" gradientTransform="matrix(.157 -.3414 -.3414 -.157 -3738.3 -2826.4)" gradientUnits="userSpaceOnUse"> <stop stop-color="#804E33" offset="0"/> <stop stop-color="#704630" offset="1"/> </radialGradient> <path d="m5.434-6.088c-0.025 0.1-6e-3 0.119 0.057 0.056 0.063-0.075 0.094-0.182 0.094-0.319 0-0.163-0.012-0.231-0.038-0.207-0.038 0.037-0.076 0.194-0.113 0.47z" fill="url(#gw)"/> <radialGradient id="gx" cx="-2694.6" cy="-12090" r=".7325" gradientTransform="matrix(.1603 -.3399 -.3399 -.1603 -3673.8 -2860.5)" gradientUnits="userSpaceOnUse"> <stop stop-color="#804E33" offset="0"/> <stop stop-color="#704630" offset="1"/> </radialGradient> <path d="m3.273-6.464c0.125 0.012 0.15-0.044 0.075-0.169-0.087-0.113-0.213-0.182-0.375-0.207-0.176-0.013-0.201 0.044-0.076 0.169 0.125 0.138 0.251 0.207 0.376 0.207z" fill="url(#gx)"/> <radialGradient id="gy" cx="-2678.2" cy="-12140" r=".8276" gradientTransform="matrix(.1589 -.3405 -.3405 -.1589 -3706.7 -2848.5)" gradientUnits="userSpaceOnUse"> <stop stop-color="#804E33" offset="0"/> <stop stop-color="#704630" offset="1"/> </radialGradient> <path d="m1.526-7.347c0.163 0 0.25-0.056 0.263-0.169 0.012-0.088-0.038-0.15-0.15-0.188-0.126-0.038-0.257-0.025-0.395 0.037-0.125 0.063-0.138 0.132-0.037 0.207 0.087 0.075 0.194 0.113 0.319 0.113z" fill="url(#gy)"/> <radialGradient id="gz" cx="-2689.7" cy="-12086" r=".9953" gradientTransform="matrix(.1605 -.3398 -.3398 -.1605 -3671.5 -2862.3)" gradientUnits="userSpaceOnUse"> <stop stop-color="#A66B49" offset="0"/> <stop stop-color="#865236" offset=".7412"/> <stop stop-color="#663D29" offset="1"/> </radialGradient> <path d="m3.855-8.813c0.139-0.012 0.22-0.056 0.245-0.131 0.012-0.025 0.012-0.106 0-0.244-0.013-0.113-0.076-0.195-0.188-0.245-0.125-0.05-0.244-0.031-0.357 0.056-0.1 0.075-0.106 0.194-0.019 0.357 0.1 0.151 0.207 0.22 0.319 0.207z" fill="url(#gz)"/> <radialGradient id="ha" cx="-2681.4" cy="-12067" r=".7604" gradientTransform="matrix(.1606 -.3397 -.3397 -.1606 -3658.4 -2858.8)" gradientUnits="userSpaceOnUse"> <stop stop-color="#804E33" offset="0"/> <stop stop-color="#704630" offset="1"/> </radialGradient> <path d="m10.601-9.827c-0.025-0.201-0.094-0.357-0.207-0.47-0.1-0.113-0.15-0.088-0.15 0.075 0 0.125 0.063 0.238 0.188 0.338 0.112 0.088 0.169 0.107 0.169 0.057z" fill="url(#ha)"/> <radialGradient id="hb" cx="-2672.8" cy="-12088" r=".9115" gradientTransform="matrix(.1598 -.3401 -.3401 -.1598 -3672.3 -2848.9)" gradientUnits="userSpaceOnUse"> <stop stop-color="#804E33" offset="0"/> <stop stop-color="#704630" offset="1"/> </radialGradient> <path d="m12.197-8.531c0.176-0.075 0.238-0.201 0.188-0.376-0.025-0.113-0.075-0.188-0.15-0.225-0.1-0.025-0.188 0.031-0.263 0.169s-0.082 0.257-0.019 0.357c0.063 0.087 0.144 0.113 0.244 0.075z" fill="url(#hb)"/> <radialGradient id="hd" cx="-2675.1" cy="-12073" r=".7046" gradientTransform="matrix(.16 -.34 -.34 -.16 -3662.2 -2849)" gradientUnits="userSpaceOnUse"> <stop stop-color="#804E33" offset="0"/> <stop stop-color="#704630" offset="1"/> </radialGradient> <path d="m14.734-7.704c0.201-0.113 0.282-0.201 0.245-0.263-0.05-0.038-0.213 0.019-0.489 0.169-0.088 0.05-0.094 0.094-0.019 0.132 0.088 0.024 0.175 0.012 0.263-0.038z" fill="url(#hd)"/> <radialGradient id="hf" cx="-2675.5" cy="-12107" r=".8556" gradientTransform="matrix(.1592 -.3404 -.3404 -.1592 -3684.6 -2844)" gradientUnits="userSpaceOnUse"> <stop stop-color="#804E33" offset="0"/> <stop stop-color="#704630" offset="1"/> </radialGradient> <path d="m10.337-5.712c0.15-0.038 0.244-0.069 0.282-0.094 0.038-0.038 0.031-0.1-0.019-0.188-0.163-0.238-0.313-0.282-0.451-0.131-0.088 0.1-0.101 0.2-0.038 0.301 0.064 0.099 0.139 0.136 0.226 0.112z" fill="url(#hf)"/> <radialGradient id="hg" cx="-2690.9" cy="-12072" r=".9953" gradientTransform="matrix(.1605 -.3398 -.3398 -.1605 -3661.3 -2857.4)" gradientUnits="userSpaceOnUse"> <stop stop-color="#804E33" offset="0"/> <stop stop-color="#704630" offset="1"/> </radialGradient> <path d="m8.741-6.013c0.163-0.013 0.256-0.038 0.282-0.075 0.025-0.025 6e-3 -0.088-0.056-0.188-0.064-0.113-0.183-0.195-0.358-0.245-0.175-0.063-0.263-0.05-0.263 0.038-0.012 0.1 0.025 0.2 0.113 0.301 0.1 0.112 0.194 0.169 0.282 0.169z" fill="url(#hg)"/> </g> </symbol> <path d="m2.3 6.8 15.9 1.15c-0.367 5.733-0.783 9.85-1.25 12.35-0.134 0.634-0.517 1.134-1.15 1.5-0.267 0.467-2.649 0.55-7.15 0.25-4.533-0.3-6.933-0.75-7.2-1.35-0.4-0.834-0.117-5.467 0.85-13.9z" clip-rule="evenodd" fill="#E4E4E4" fill-rule="evenodd"/> <use transform="matrix(1 0 0 -1 1.4502 9.25)" x="-0.007" y="-12.261" width="15.414" height="12.252" xlink:href="#ai"/> <use transform="matrix(1 0 0 -1 15.15 7.7998)" x="-0.02" y="-14.362" width="3.07" height="14.362" enable-background="new" opacity=".6484" xlink:href="#b"/> <use transform="matrix(1 0 0 -1 1.4502 7.7002)" y="-10.6" width="14.5" height="10.6" enable-background="new" opacity=".5586" xlink:href="#id"/> <linearGradient id="hh" x1="1.3154" x2="8.4654" y1="-9.7246" y2="-9.7246" gradientTransform="matrix(.00013986 1 -1 -.001 -.00019411 .00017444)" gradientUnits="userSpaceOnUse"> <stop stop-color="#D1AD42" offset="0"/> <stop stop-color="#856C24" offset=".9922"/> </linearGradient> <path d="m0 7 0.1-6.9 10.25 0.7c2.834 0.2 5.784 0.583 8.85 1.15l0.25 6.7-19.45-1.65z" clip-rule="evenodd" fill="url(#hh)" fill-rule="evenodd"/> <linearGradient id="hi" x1="-18.296" x2="5.1332" y1="-5.6904" y2="-5.6904" gradientTransform="matrix(-.971 .239 -.239 -.971 -.00023568 .00014725)" gradientUnits="userSpaceOnUse"> <stop stop-color="#fff" stop-opacity=".4863" offset="0"/> <stop stop-color="#fff" stop-opacity="0" offset="1"/> </linearGradient> <polygon points="19.7 2.3 0.3 7 0.5 4.45 12.5 1.65" clip-rule="evenodd" fill="url(#hi)" fill-rule="evenodd"/> <path d="m9.6 1.7c0.567-0.067 0.867 0.25 0.9 0.95 0.033 0.667-0.184 0.967-0.65 0.9-0.533-0.1-0.883-0.4-1.05-0.9-0.2-0.533 0.067-0.85 0.8-0.95z" clip-rule="evenodd" fill="#665414" fill-rule="evenodd"/> <polygon points="18.9 2.1 19.6 1.8 19.85 8.55 19.3 8.65" clip-rule="evenodd" fill="#665414" fill-rule="evenodd"/> <path d="m18.9 2.1c-2.8-0.433-5.334-0.7-7.6-0.8-2.3-0.1-6.033-0.5-11.2-1.2l0.55-0.1 10 0.75c2.633 0.2 5.616 0.55 8.949 1.05l-0.699 0.3z" clip-rule="evenodd" fill="#FFD330" fill-rule="evenodd"/> <path d="m15.3 21.5 0.601 0.75c-2.167 0-4.367-0.05-6.601-0.15-2.267-0.066-4.816-0.517-7.65-1.35l-0.25-0.5c2.934 0.7 5.1 1.116 6.5 1.25 3.267 0.333 5.734 0.333 7.4 0z" clip-rule="evenodd" fill="#8F8F8F" fill-rule="evenodd"/> </svg>